<?xml version="1.0" encoding="UTF-8"?>
<!DOCTYPE svg PUBLIC "-//W3C//DTD SVG 1.0//EN" "http://www.w3.org/TR/2001/REC-SVG-20010904/DTD/svg10.dtd">
<!-- Creator: CorelDRAW 2018 (64 Bit) -->
<svg xmlns="http://www.w3.org/2000/svg" xml:space="preserve" width="275mm" height="60mm" version="1.0" style="shape-rendering:geometricPrecision; text-rendering:geometricPrecision; image-rendering:optimizeQuality; fill-rule:evenodd; clip-rule:evenodd"
viewBox="0 0 2750 600"
 xmlns:xlink="http://www.w3.org/1999/xlink">
 <defs>
  <style type="text/css">
   <![CDATA[
    .fil0 {fill:#E5AA2D}
    .fil1 {fill:#2F4065;fill-rule:nonzero}
   ]]>
  </style>
 </defs>
 <g id="Camada_x0020_1">
  <metadata id="CorelCorpID_0Corel-Layer"/>
  <g id="_1347541083904">
   <g>
    <path class="fil0" d="M851.845 253.153l102.978 -59.465 28.658 0 0 81.272 0 23.316 0 250.804 -105.722 0 0 -236.809 -25.914 0 0 -59.118zm253.027 295.927l0 0c61.487,0 111.778,-50.309 111.778,-111.786l0 -134.673c0,-61.469 -50.291,-111.769 -111.778,-111.769l0 0c-61.477,0 -111.768,50.3 -111.768,111.769l0 134.673c0,61.477 50.291,111.786 111.768,111.786zm0 -89.641l0 0c12.98,0 23.591,-10.62 23.591,-23.581l0 -131.783c0,-12.98 -10.611,-23.581 -23.591,-23.581l0 0c-12.97,0 -23.581,10.601 -23.581,23.581l0 131.783c0,12.961 10.611,23.581 23.581,23.581z"/>
    <path class="fil0" d="M1037.732 110.385l-187.652 108.348 0 -67.387 187.652 -108.329 187.653 108.329 0 67.387 -187.653 -108.348z"/>
   </g>
   <g>
    <path class="fil1" d="M5.802 192.133l65.868 0c43.906,0 73.653,1.656 89.194,5.058 15.531,3.385 28.218,12.065 38.033,25.941 9.797,13.968 14.709,36.15 14.709,66.71 0,27.844 -3.476,46.55 -10.419,56.136 -6.86,9.586 -20.526,15.312 -40.896,17.215 18.413,4.592 30.862,10.702 37.192,18.404 6.265,7.61 10.272,14.635 11.781,21.047 1.583,6.422 2.342,24.076 2.342,52.971l0 94.398 -86.404 0 0 -118.921c0,-19.163 -1.582,-31.009 -4.601,-35.619 -3.009,-4.528 -10.94,-6.869 -23.691,-6.869l0 161.409 -93.108 0 0 -357.88zm93.108 61.185l0 79.616c10.419,0 17.736,-1.436 21.953,-4.308 4.226,-2.863 6.339,-12.23 6.339,-27.99l0 -19.63c0,-11.388 -2.04,-18.779 -6.11,-22.328 -4.08,-3.549 -11.461,-5.36 -22.182,-5.36z"/>
    <path class="fil1" d="M228.122 192.133l155.217 0 0 71.603 -62.108 0 0 67.835 58.102 0 0 68.137 -58.102 0 0 78.693 68.283 0 0 71.612 -161.392 0 0 -357.88z"/>
    <path class="fil1" d="M400.902 192.133l69.637 0c44.967,0 75.299,2.04 91.151,6.193 15.842,4.134 27.908,10.857 36.14,20.288 8.305,9.43 13.437,19.995 15.55,31.53 2.04,11.553 3.092,34.265 3.092,68.219l0 125.324c0,32.143 -1.51,53.575 -4.601,64.442 -3.019,10.793 -8.233,19.319 -15.779,25.429 -7.537,6.11 -16.822,10.345 -27.844,12.833 -11.086,2.415 -27.688,3.622 -49.952,3.622l-117.394 0 0 -357.88zm93.099 61.185l0 235.428c13.364,0 21.66,-2.643 24.752,-8.004 3.092,-5.433 4.601,-20.068 4.601,-43.915l0 -139.063c0,-16.227 -0.521,-26.554 -1.509,-31.164 -1.052,-4.528 -3.394,-7.922 -7.089,-10.035 -3.705,-2.113 -10.638,-3.247 -20.755,-3.247z"/>
    <path class="fil1" d="M632.699 192.133l155.217 0 0 71.603 -62.1 0 0 67.835 58.093 0 0 68.137 -58.093 0 0 78.693 68.274 0 0 71.612 -161.391 0 0 -357.88z"/>
   </g>
   <path class="fil1" d="M1374.483 191.566l0 357.88 -93.108 0 0 -357.88 93.108 0zm324.53 0l0 357.88 -81.336 0 0 -241.611 -32.527 241.611 -57.718 0 -34.265 -236.105 0 236.105 -81.336 0 0 -357.88 120.504 0c3.549,21.496 7.244,46.851 11.232,76.049l12.834 91.068 21.203 -167.117 121.409 0zm249.982 209.533c0,35.993 -0.833,61.422 -2.488,76.36 -1.738,15.019 -7.025,28.667 -15.926,41.034 -8.9,12.385 -20.974,21.889 -36.14,28.538 -15.166,6.632 -32.902,9.953 -53.044,9.953 -19.172,0 -36.369,-3.175 -51.608,-9.44 -15.321,-6.257 -27.551,-15.614 -36.826,-28.128 -9.284,-12.531 -14.791,-26.197 -16.593,-40.905 -1.738,-14.782 -2.643,-40.586 -2.643,-77.412l0 -61.195c0,-35.984 0.832,-61.413 2.552,-76.442 1.664,-14.928 6.951,-28.594 15.934,-40.961 8.891,-12.376 20.892,-21.889 36.131,-28.52 15.175,-6.641 32.829,-9.971 53.053,-9.971 19.163,0 36.369,3.174 51.608,9.44 15.239,6.257 27.542,15.614 36.817,28.146 9.285,12.522 14.8,26.17 16.529,40.887 1.811,14.8 2.644,40.513 2.644,77.421l0 61.195zm-93.036 -117.568c0,-16.666 -0.905,-27.313 -2.799,-31.988 -1.811,-4.61 -5.579,-6.933 -11.305,-6.933 -4.912,0 -8.608,1.884 -11.178,5.644 -2.635,3.704 -3.924,14.8 -3.924,33.277l0 167.063c0,20.818 0.905,33.652 2.57,38.481 1.656,4.912 5.662,7.318 11.836,7.318 6.358,0 10.346,-2.799 12.157,-8.37 1.738,-5.662 2.643,-18.934 2.643,-40.073l0 -164.419zm60.819 -163.13l-72.737 59.914 -44.903 0 38.939 -59.914 78.701 0zm288.006 71.165l-47.309 357.88 -141.249 0 -53.73 -357.88 98.176 0c11.315,98.532 19.391,181.917 24.294,249.981 4.821,-68.823 9.952,-129.944 15.239,-183.436l6.412 -66.545 98.167 0zm15.925 0l155.208 0 0 71.594 -62.108 0 0 67.844 58.102 0 0 68.128 -58.102 0 0 78.702 68.292 0 0 71.612 -161.392 0 0 -357.88zm281.21 0l0 357.88 -93.109 0 0 -357.88 93.109 0zm234.522 108.274l-86.403 0 0 -26.499c0,-12.367 -1.134,-20.288 -3.321,-23.691 -2.186,-3.384 -5.881,-5.04 -11.095,-5.04 -5.589,0 -9.806,2.259 -12.669,6.869 -2.872,4.519 -4.299,11.462 -4.299,20.746 0,11.919 1.583,20.974 4.83,27.011 3.092,6.028 11.909,13.273 26.325,21.88 41.427,24.597 67.469,44.739 78.254,60.518 10.793,15.76 16.135,41.189 16.135,76.277 0,25.502 -3.018,44.291 -8.973,56.365 -5.955,12.074 -17.508,22.264 -34.558,30.414 -17.123,8.141 -36.973,12.294 -59.685,12.294 -24.898,0 -46.174,-4.757 -63.764,-14.178 -17.654,-9.44 -29.189,-21.441 -34.622,-35.994 -5.433,-14.636 -8.15,-35.317 -8.15,-62.182l0 -23.39 86.394 0 0 43.532c0,13.437 1.208,22.044 3.623,25.895 2.488,3.759 6.796,5.726 12.97,5.726 6.193,0 10.794,-2.406 13.812,-7.318 3.019,-4.829 4.528,-12.074 4.528,-21.66 0,-21.047 -2.863,-34.85 -8.598,-41.345 -5.891,-6.494 -20.453,-17.288 -43.55,-32.445 -23.16,-15.394 -38.472,-26.49 -46.019,-33.432 -7.464,-6.934 -13.729,-16.52 -18.632,-28.75 -4.985,-12.211 -7.4,-27.825 -7.4,-46.851 0,-27.387 3.476,-47.455 10.491,-60.142 6.943,-12.669 18.258,-22.557 33.881,-29.728 15.614,-7.08 34.476,-10.712 56.593,-10.712 24.222,0 44.812,3.924 61.789,11.709 17.059,7.839 28.292,17.644 33.881,29.563 5.507,11.855 8.232,31.997 8.232,60.444l0 14.114z"/>
  </g>
 </g>
</svg>
