<?xml version="1.0" encoding="UTF-8"?>
<!DOCTYPE svg PUBLIC "-//W3C//DTD SVG 1.0//EN" "http://www.w3.org/TR/2001/REC-SVG-20010904/DTD/svg10.dtd">
<!-- Creator: CorelDRAW 2018 (64 Bit) -->
<svg xmlns="http://www.w3.org/2000/svg" xml:space="preserve" width="3307px" height="709px" version="1.0" style="shape-rendering:geometricPrecision; text-rendering:geometricPrecision; image-rendering:optimizeQuality; fill-rule:evenodd; clip-rule:evenodd"
viewBox="0 0 3307 708.64"
 xmlns:xlink="http://www.w3.org/1999/xlink">
 <defs>
  <style type="text/css">
   <![CDATA[
    .fil0 {fill:#E5AA2D}
    .fil1 {fill:white;fill-rule:nonzero}
   ]]>
  </style>
 </defs>
 <g id="Camada_x0020_1">
  <metadata id="CorelCorpID_0Corel-Layer"/>
  <g id="_1347541083904">
   <g>
    <path class="fil0" d="M1035.62 298.99l121.62 -70.23 33.85 0 0 95.99 0 27.54 0 296.21 -124.87 0 0 -279.69 -30.6 0 0 -69.82zm298.84 349.51l0 0c72.62,0 132.02,-59.42 132.02,-132.02l0 -159.06c0,-72.6 -59.4,-132.01 -132.02,-132.01l0 0c-72.61,0 -132.01,59.41 -132.01,132.01l0 159.06c0,72.6 59.4,132.02 132.01,132.02zm0 -105.87l0 0c15.33,0 27.86,-12.54 27.86,-27.85l0 -155.65c0,-15.33 -12.53,-27.85 -27.86,-27.85l0 0c-15.32,0 -27.85,12.52 -27.85,27.85l0 155.65c0,15.31 12.53,27.85 27.85,27.85z"/>
    <path class="fil0" d="M1255.16 130.37l-221.63 127.97 0 -79.59 221.63 -127.94 221.63 127.94 0 79.59 -221.63 -127.97z"/>
   </g>
   <g>
    <path class="fil1" d="M36.38 226.92l77.79 0c51.86,0 86.99,1.96 105.35,5.98 18.34,3.99 33.33,14.25 44.92,30.63 11.57,16.5 17.37,42.7 17.37,78.79 0,32.89 -4.1,54.98 -12.3,66.3 -8.11,11.33 -24.25,18.09 -48.31,20.34 21.75,5.42 36.45,12.64 43.93,21.73 7.4,8.99 12.13,17.29 13.91,24.86 1.87,7.59 2.77,28.44 2.77,62.56l0 111.49 -102.05 0 0 -140.45c0,-22.63 -1.87,-36.62 -5.43,-42.07 -3.56,-5.35 -12.92,-8.11 -27.98,-8.11l0 190.63 -109.97 0 0 -422.68zm109.97 72.27l0 94.03c12.3,0 20.94,-1.7 25.92,-5.09 5,-3.38 7.49,-14.44 7.49,-33.06l0 -23.18c0,-13.45 -2.41,-22.18 -7.21,-26.37 -4.82,-4.19 -13.54,-6.33 -26.2,-6.33z"/>
    <path class="fil1" d="M298.96 226.92l183.32 0 0 84.57 -73.36 0 0 80.12 68.63 0 0 80.47 -68.63 0 0 92.95 80.65 0 0 84.57 -190.61 0 0 -422.68z"/>
    <path class="fil1" d="M503.02 226.92l82.25 0c53.11,0 88.93,2.41 107.65,7.32 18.71,4.88 32.96,12.82 42.69,23.96 9.81,11.14 15.87,23.61 18.36,37.24 2.41,13.64 3.65,40.47 3.65,80.57l0 148.02c0,37.96 -1.78,63.27 -5.43,76.11 -3.57,12.74 -9.72,22.81 -18.64,30.03 -8.9,7.22 -19.86,12.22 -32.88,15.16 -13.1,2.85 -32.7,4.27 -59,4.27l-138.65 0 0 -422.68zm109.96 72.27l0 278.05c15.78,0 25.58,-3.12 29.23,-9.45 3.65,-6.42 5.44,-23.7 5.44,-51.87l0 -164.24c0,-19.16 -0.62,-31.36 -1.79,-36.81 -1.24,-5.34 -4.01,-9.35 -8.37,-11.85 -4.38,-2.49 -12.56,-3.83 -24.51,-3.83z"/>
    <path class="fil1" d="M776.79 226.92l183.32 0 0 84.57 -73.34 0 0 80.12 68.61 0 0 80.47 -68.61 0 0 92.95 80.63 0 0 84.57 -190.61 0 0 -422.68z"/>
   </g>
   <path class="fil1" d="M1652.89 226.25l0 422.68 -109.97 0 0 -422.68 109.97 0zm383.29 0l0 422.68 -96.06 0 0 -285.35 -38.42 285.35 -68.17 0 -40.47 -278.85 0 278.85 -96.06 0 0 -422.68 142.32 0c4.2,25.39 8.56,55.34 13.27,89.82l15.16 107.56 25.04 -197.38 143.39 0zm295.25 247.48c0,42.51 -0.98,72.54 -2.94,90.18 -2.05,17.74 -8.3,33.86 -18.81,48.47 -10.51,14.62 -24.77,25.85 -42.68,33.7 -17.92,7.84 -38.86,11.76 -62.65,11.76 -22.65,0 -42.96,-3.75 -60.95,-11.15 -18.1,-7.39 -32.54,-18.44 -43.5,-33.22 -10.96,-14.8 -17.47,-30.94 -19.6,-48.31 -2.05,-17.46 -3.12,-47.94 -3.12,-91.43l0 -72.28c0,-42.5 0.98,-72.53 3.02,-90.28 1.96,-17.63 8.21,-33.77 18.82,-48.38 10.5,-14.62 24.67,-25.85 42.67,-33.68 17.92,-7.85 38.77,-11.78 62.66,-11.78 22.63,0 42.95,3.75 60.95,11.15 18,7.39 32.53,18.44 43.48,33.24 10.97,14.79 17.48,30.91 19.53,48.29 2.14,17.48 3.12,47.85 3.12,91.44l0 72.28zm-109.88 -138.86c0,-19.68 -1.07,-32.26 -3.31,-37.78 -2.14,-5.44 -6.59,-8.19 -13.35,-8.19 -5.8,0 -10.17,2.23 -13.2,6.67 -3.12,4.37 -4.64,17.48 -4.64,39.3l0 197.31c0,24.59 1.07,39.75 3.04,45.45 1.95,5.8 6.69,8.65 13.98,8.65 7.51,0 12.22,-3.31 14.36,-9.89 2.05,-6.69 3.12,-22.36 3.12,-47.33l0 -194.19zm71.83 -192.67l-85.91 70.76 -53.03 0 45.99 -70.76 92.95 0zm340.15 84.05l-55.87 422.68 -166.83 0 -63.46 -422.68 115.96 0c13.36,116.38 22.9,214.86 28.69,295.25 5.69,-81.29 11.75,-153.47 18,-216.65l7.57 -78.6 115.94 0zm18.81 0l183.31 0 0 84.56 -73.35 0 0 80.13 68.62 0 0 80.46 -68.62 0 0 92.96 80.66 0 0 84.57 -190.62 0 0 -422.68zm332.13 0l0 422.68 -109.97 0 0 -422.68 109.97 0zm276.99 127.88l-102.05 0 0 -31.29c0,-14.61 -1.34,-23.97 -3.92,-27.99 -2.58,-3.99 -6.95,-5.95 -13.11,-5.95 -6.6,0 -11.58,2.67 -14.96,8.11 -3.39,5.34 -5.08,13.54 -5.08,24.51 0,14.07 1.87,24.77 5.71,31.9 3.65,7.12 14.06,15.68 31.09,25.84 48.93,29.05 79.69,52.84 92.42,71.48 12.75,18.61 19.06,48.64 19.06,90.09 0,30.12 -3.56,52.31 -10.6,66.57 -7.03,14.26 -20.68,26.29 -40.81,35.92 -20.23,9.61 -43.67,14.52 -70.49,14.52 -29.41,0 -54.54,-5.62 -75.31,-16.75 -20.86,-11.15 -34.48,-25.32 -40.9,-42.51 -6.41,-17.28 -9.62,-41.71 -9.62,-73.44l0 -27.63 102.04 0 0 51.42c0,15.87 1.42,26.03 4.28,30.58 2.93,4.44 8.02,6.77 15.31,6.77 7.32,0 12.75,-2.85 16.32,-8.65 3.56,-5.7 5.34,-14.26 5.34,-25.58 0,-24.86 -3.38,-41.16 -10.15,-48.83 -6.96,-7.67 -24.16,-20.42 -51.44,-38.32 -27.35,-18.18 -45.43,-31.29 -54.35,-39.49 -8.81,-8.19 -16.21,-19.51 -22,-33.95 -5.89,-14.42 -8.74,-32.87 -8.74,-55.34 0,-32.34 4.1,-56.04 12.39,-71.03 8.2,-14.96 21.56,-26.64 40.01,-35.11 18.44,-8.36 40.72,-12.65 66.84,-12.65 28.61,0 52.93,4.63 72.98,13.83 20.15,9.26 33.42,20.84 40.02,34.91 6.5,14.01 9.72,37.79 9.72,71.39l0 16.67z"/>
  </g>
 </g>
</svg>
