<?xml version="1.0" encoding="UTF-8"?>
<!DOCTYPE svg PUBLIC "-//W3C//DTD SVG 1.0//EN" "http://www.w3.org/TR/2001/REC-SVG-20010904/DTD/svg10.dtd">
<!-- Creator: CorelDRAW 2018 (64 Bit) -->
<svg xmlns="http://www.w3.org/2000/svg" xml:space="preserve" width="1890px" height="1063px" version="1.0" style="shape-rendering:geometricPrecision; text-rendering:geometricPrecision; image-rendering:optimizeQuality; fill-rule:evenodd; clip-rule:evenodd"
viewBox="0 0 1890 1063.13"
 xmlns:xlink="http://www.w3.org/1999/xlink">
 <defs>
  <style type="text/css">
   <![CDATA[
    .fil1 {fill:#8F8F8F;fill-rule:nonzero}
    .fil0 {fill:#737474;fill-rule:nonzero}
   ]]>
  </style>
 </defs>
 <g id="Layer_x0020_1">
  <metadata id="CorelCorpID_0Corel-Layer"/>
  <g id="_2341531315360">
   <path class="fil0" d="M233.78 806.9l-114.53 0 -22.06 55.57 -88.24 0 123.02 -319.85 90.78 0 109.8 291.49 0 -291.49 83.14 0 0 249.44 99.69 0 0 70.41 -172.15 0 -10.68 0 -77.98 0 -20.79 -55.57zm1205.15 61.01l0 22.74 44.71 0 0 -20.12c1.54,-0.12 3.07,-0.26 4.58,-0.42 5.23,-0.56 10.39,-1.42 15.48,-2.55 6.51,-1.41 13.15,-3.03 19.94,-4.87 4.09,-1.11 8.34,-2.35 12.74,-3.72l-21.02 -78.45c-0.77,0.39 -1.54,0.77 -2.33,1.14 -12.72,6.08 -25.87,9.12 -39.45,9.12 -25.73,0 -46.59,-8.2 -62.57,-24.6 -15.98,-16.4 -23.97,-37.19 -23.97,-62.36 0,-24.89 7.85,-45.89 23.55,-63 15.69,-17.1 36.27,-25.66 61.72,-25.66 13.67,0 26.81,2.78 39.43,8.33l20.82 -77.69c-8.05,-2.81 -16.18,-5.15 -24.4,-7 -12.59,-2.82 -25.53,-4.24 -38.82,-4.24 -0.57,0 -1.2,0 -1.91,0 -0.71,0 -1.34,0 -1.91,0 -22.06,0.57 -43.41,5.44 -64.05,14.64 -20.65,9.19 -38.61,21.56 -53.88,37.11 -15.27,15.56 -26.94,33.52 -34.99,53.88 -8.07,20.36 -12.1,41.43 -12.1,63.21 0,23.75 4.18,45.88 12.52,66.38 8.34,20.51 21.28,38.68 38.81,54.52 16.69,14.98 35.29,26.51 55.79,34.57 10.21,4.01 20.65,7.03 31.31,9.04zm332.67 -61.01l-114.54 0 -22.06 55.57 -88.23 0 123.02 -319.85 90.78 0 120.48 319.85 -88.66 0 -20.79 -55.57zm-22.48 -63.63l-33.94 -101.81 -0.85 0 -34.36 101.81 69.15 0zm-785.24 119.2l0 -319.85 83.15 0 152.29 195.56 0.85 0 0 -195.56 83.14 0 0 319.85 -83.14 0 -152.29 -195.98 -0.85 0 0 195.98 -83.15 0zm-114.33 -55.57l-114.53 0 -22.07 55.57 -88.23 0 123.02 -319.85 90.78 0 120.48 319.85 -88.66 0 -20.79 -55.57zm-22.48 -63.63l-33.94 -101.81 -0.85 0 -34.36 101.81 69.15 0zm-206.81 -200.65l0 319.85 -83.15 0 0 -319.85 83.15 0zm-408.96 200.65l-33.94 -101.81 -0.84 0 -34.37 101.81 69.15 0z"/>
   <path class="fil0" d="M748.55 1031.97l0 -74.21 12.04 0 0 74.21 -12.04 0z"/>
   <path id="1" class="fil0" d="M838.45 995.33c-0.14,-0.57 -0.36,-2.16 -0.66,-4.76 -0.28,-2.16 -0.52,-3.96 -0.71,-5.37 -0.31,1.69 -0.74,3.39 -1.3,5.06 -0.55,1.7 -1.26,3.41 -2.11,5.18l-19.4 39.54 -19.41 -40.36c-0.82,-1.66 -1.52,-3.25 -2.11,-4.81 -0.59,-1.55 -1.11,-3.09 -1.54,-4.61 -0.04,1.55 -0.16,3.18 -0.38,4.89 -0.23,1.71 -0.56,3.49 -0.99,5.35l-7.96 36.53 -11.1 0 17.54 -77.32 21.9 46.82c0.33,0.73 0.85,1.97 1.54,3.69 0.69,1.73 1.52,3.85 2.51,6.38 0.71,-2.13 1.83,-4.83 3.35,-8.1 0.4,-0.88 0.71,-1.55 0.9,-2.02l21.4 -46.77 17.94 77.32 -11.21 0 -8.2 -36.64z"/>
   <path id="2" class="fil0" d="M931.01 995.02c0,-3.75 -0.69,-7.32 -2.06,-10.69 -1.37,-3.37 -3.34,-6.38 -5.9,-9.01 -2.51,-2.61 -5.4,-4.6 -8.68,-6 -3.31,-1.4 -6.78,-2.11 -10.41,-2.11 -3.65,0 -7.13,0.69 -10.44,2.07 -3.28,1.39 -6.22,3.39 -8.78,6.04 -2.56,2.59 -4.54,5.59 -5.88,8.96 -1.35,3.37 -2.03,6.95 -2.03,10.74 0,3.75 0.68,7.3 2.03,10.64 1.34,3.34 3.32,6.33 5.88,8.96 2.56,2.65 5.48,4.65 8.77,6.04 3.27,1.38 6.76,2.07 10.45,2.07 3.61,0 7.04,-0.69 10.3,-2.07 3.26,-1.39 6.2,-3.39 8.79,-6.04 2.56,-2.63 4.53,-5.62 5.9,-8.98 1.37,-3.37 2.06,-6.9 2.06,-10.62zm12.56 0c0,5.28 -0.99,10.26 -2.96,14.95 -1.99,4.7 -4.86,8.89 -8.65,12.57 -3.81,3.69 -8.11,6.5 -12.92,8.46 -4.79,1.95 -9.83,2.94 -15.08,2.94 -5.35,0 -10.44,-0.99 -15.3,-2.96 -4.84,-1.99 -9.11,-4.79 -12.83,-8.44 -3.79,-3.68 -6.66,-7.85 -8.62,-12.52 -1.95,-4.66 -2.94,-9.65 -2.94,-15 0,-5.31 0.99,-10.31 2.94,-15 1.96,-4.7 4.83,-8.9 8.62,-12.62 3.79,-3.69 8.08,-6.49 12.87,-8.41 4.79,-1.92 9.87,-2.89 15.26,-2.89 5.32,0 10.37,0.97 15.16,2.89 4.78,1.92 9.07,4.72 12.84,8.41 3.79,3.75 6.66,7.99 8.65,12.69 1.97,4.72 2.96,9.69 2.96,14.93zm-46.81 -44.52l9.65 -13.81 11.42 0 -14.83 13.81 -6.24 0z"/>
   <path id="3" class="fil0" d="M980.96 1034.87l-33.12 -77.11 12.54 0 16.62 39.54c0.99,2.29 1.8,4.41 2.44,6.35 0.64,1.96 1.14,3.81 1.52,5.55 0.44,-1.85 0.99,-3.77 1.67,-5.77 0.67,-1.99 1.47,-4.03 2.38,-6.13l16.57 -39.54 12.47 0 -33.09 77.11z"/>
   <path id="4" class="fil0" d="M1021.55 1031.97l0 -74.21 41.41 0 0 10.28 -29.38 0 0 18.57 29.38 0 0 10.59 -29.38 0 0 23.97 29.38 0 0 10.8 -41.41 0z"/>
   <path id="5" class="fil0" d="M1076.98 1031.97l0 -74.21 12.04 0 0 74.21 -12.04 0z"/>
   <path id="6" class="fil0" d="M1102.12 1017.11l9.61 -4.45c0.92,3.31 2.6,5.83 5.04,7.56 2.42,1.75 5.53,2.61 9.32,2.61 3.6,0 6.44,-1 8.56,-2.99 2.12,-1.99 3.17,-4.65 3.17,-7.99 0,-4.36 -3.62,-8.25 -10.86,-11.66 -1.02,-0.5 -1.8,-0.88 -2.34,-1.11 -8.18,-3.99 -13.63,-7.59 -16.35,-10.82 -2.71,-3.24 -4.08,-7.18 -4.08,-11.84 0,-6.05 2.06,-10.94 6.16,-14.7 4.1,-3.75 9.5,-5.62 16.16,-5.62 5.46,0 10.05,1.06 13.73,3.17 3.69,2.11 6.23,5.13 7.65,9.08l-9.41 4.87c-1.49,-2.33 -3.12,-4.04 -4.9,-5.11 -1.78,-1.1 -3.82,-1.63 -6.12,-1.63 -3.24,0 -5.83,0.85 -7.73,2.54 -1.92,1.68 -2.87,3.94 -2.87,6.78 0,4.47 4.2,8.63 12.59,12.47 0.64,0.32 1.14,0.56 1.52,0.71 7.33,3.39 12.37,6.7 15.1,9.91 2.73,3.24 4.1,7.27 4.1,12.1 0,7.02 -2.21,12.61 -6.64,16.74 -4.43,4.13 -10.41,6.21 -17.96,6.21 -6.31,0 -11.48,-1.45 -15.53,-4.36 -4.03,-2.9 -6.68,-7.06 -7.92,-12.47z"/>
   <path class="fil1" d="M1162.53 416.57l-146.29 -388.4 -138.6 0 -149.35 388.31 -407.49 41.2 391.64 0 39.85 0 95.59 0 10.33 -26.03 174.87 0 9.74 26.03 94.89 0 40.31 0 391.17 0 -406.66 -41.11zm-283.33 -85.45l0 0 33.86 -88.01c-12.06,-9.48 -19.8,-24.19 -19.8,-40.71 0,-28.57 23.17,-51.74 51.74,-51.74 28.57,0 51.74,23.17 51.74,51.74 0,16.27 -7.52,30.79 -19.27,40.27l33.32 88.45c-46.62,0 -84.88,0 -131.59,0z"/>
  </g>
 </g>
</svg>
