<?xml version="1.0" encoding="UTF-8"?>
<!DOCTYPE svg PUBLIC "-//W3C//DTD SVG 1.0//EN" "http://www.w3.org/TR/2001/REC-SVG-20010904/DTD/svg10.dtd">
<!-- Creator: CorelDRAW 2018 (64 Bit) -->
<svg xmlns="http://www.w3.org/2000/svg" xml:space="preserve" width="2244px" height="1181px" version="1.0" style="shape-rendering:geometricPrecision; text-rendering:geometricPrecision; image-rendering:optimizeQuality; fill-rule:evenodd; clip-rule:evenodd"
viewBox="0 0 2244 1181.05"
 xmlns:xlink="http://www.w3.org/1999/xlink">
 <defs>
  <style type="text/css">
   <![CDATA[
    .fil1 {fill:#69696A}
    .fil2 {fill:#494949}
    .fil4 {fill:#3E3F3F}
    .fil0 {fill:#3E3F3F;fill-rule:nonzero}
    .fil3 {fill:url(#id0)}
   ]]>
  </style>
  <linearGradient id="id0" gradientUnits="userSpaceOnUse" x1="533.01" y1="692.71" x2="393.93" y2="630.64">
   <stop offset="0" style="stop-opacity:1; stop-color:#474848"/>
   <stop offset="1" style="stop-opacity:1; stop-color:#3E3F3F"/>
  </linearGradient>
 </defs>
 <g id="Layer_x0020_1">
  <metadata id="CorelCorpID_0Corel-Layer"/>
  <g id="_2341417325344">
   <path class="fil0" d="M821.75 522.93l0 80.39 15.17 0c17.88,0 30.73,-3.08 38.47,-9.24 7.74,-6.16 11.65,-16.15 11.65,-29.98 0,-15.1 -3.53,-25.77 -10.67,-31.93 -7.14,-6.16 -19.91,-9.24 -38.32,-9.24l-16.3 0zm-70.48 -52.14l74.01 0c3.83,0 7.66,-0.08 11.64,-0.23 3.99,-0.15 6.09,-0.22 6.39,-0.22 39.75,0 68.67,6.76 86.78,20.13 18.11,13.45 27.2,34.86 27.2,64.17 0,19.23 -4.96,35.09 -14.95,47.56 -9.99,12.47 -24.57,21.03 -43.66,25.77 9.4,2.33 16.91,6.76 22.39,13.22 5.49,6.46 11.12,18.63 16.83,36.52l34.34 105.86 -74.01 0 -24.79 -88.73c-4.43,-16.08 -9.32,-26.75 -14.65,-31.78 -5.34,-5.04 -13.23,-7.59 -23.67,-7.59l-13.37 0 0 128.1 -70.48 0 0 -312.78zm370.7 61.61l-37.42 127.27 70.63 0 -33.21 -127.27zm-40.27 -61.61l82.94 0 97.08 312.78 -74.38 0 -18.04 -69.72 -100.6 0 -18.94 69.72 -69.79 0 101.73 -312.78zm197.06 0l82.57 0 94.22 228.03 0 -228.03 61.38 0 0 312.78 -82.5 0 -94.66 -228.48 0 228.48 -61.01 0 0 -312.78zm266.18 0l208.2 0 0 55.9 -68 0 0 256.88 -72.2 0 0 -256.88 -68 0 0 -55.9zm237.03 0l178.07 0 0 52.14 -106.31 0 0 74.91 100.6 0 0 52.37 -100.6 0 0 80.54 111.35 0 0 52.82 -183.11 0 0 -312.78zm389.26 4.88l-4.21 56.28c-11.05,-4.81 -21.71,-8.49 -32.16,-10.97 -10.44,-2.48 -20.13,-3.76 -29.07,-3.76 -13.75,0 -24.42,2.78 -32.01,8.34 -7.59,5.64 -11.35,13.45 -11.35,23.59 0,9.39 3.16,17.28 9.47,23.75 6.31,6.46 19.24,14.27 38.77,23.51 32.53,15.71 53.65,30.13 63.26,43.2 9.62,13 14.43,30.21 14.43,51.47 0,30.13 -9.92,53.87 -29.68,71.3 -19.84,17.51 -46.96,26.22 -81.3,26.22 -11.87,0 -24.34,-1.12 -37.41,-3.37 -13,-2.34 -27.2,-5.72 -42.45,-10.3l5.48 -56.35c13.23,6.46 25.7,11.19 37.42,14.27 11.8,3.09 23.06,4.66 33.89,4.66 14.27,0 25.39,-3.23 33.35,-9.76 8.04,-6.54 12.02,-15.63 12.02,-27.2 0,-16.31 -16.67,-32.84 -49.96,-49.74 -4.13,-2.03 -7.21,-3.61 -9.24,-4.66 -26.45,-13.3 -44.03,-26.22 -52.82,-38.69 -8.79,-12.48 -13.22,-28.48 -13.22,-48.01 0,-29.31 9.61,-52.37 28.92,-69.05 19.31,-16.76 46.06,-25.1 80.25,-25.1 10.44,0 21.18,0.83 32.38,2.56 11.12,1.65 22.84,4.28 35.24,7.81z"/>
   <path class="fil0" d="M1790.58 917.49l12.41 0 0 -81.98 -12.41 0 0 81.98zm102.84 -81.98l-15.52 0 -11.88 35.96c-1.6,5.06 -3.05,9.95 -4.35,14.64 -1.28,4.69 -2.44,9.22 -3.46,13.61l-0.32 0c-1.02,-4.48 -2.14,-9.04 -3.39,-13.68 -1.23,-4.64 -2.6,-9.45 -4.1,-14.46l-11.56 -36.07 -15.41 0 -5.56 81.98 11.55 0 1.82 -33.82c0.22,-3.85 0.43,-7.78 0.63,-11.79 0.19,-4.03 0.37,-7.97 0.53,-11.84 0.16,-3.87 0.27,-7.53 0.34,-10.94l0.32 0c1.04,4.94 2.25,10.04 3.64,15.31 1.41,5.26 2.94,10.57 4.6,15.94l11.24 36.39 9.31 0 12.2 -37.14c1.73,-5.21 3.35,-10.4 4.9,-15.53 1.56,-5.14 2.95,-10.13 4.2,-14.97l0.32 0c-0.04,3.41 0,7.03 0.1,10.85 0.11,3.8 0.25,7.67 0.43,11.59 0.18,3.92 0.36,7.76 0.54,11.49l1.82 34.46 11.98 0 -4.92 -81.98zm50.72 -1.17c-5.26,0.01 -10.06,1.03 -14.35,3.05 -4.32,1.99 -8.05,4.88 -11.17,8.63 -3.12,3.74 -5.53,8.22 -7.22,13.46 -1.7,5.23 -2.55,11.08 -2.57,17.55 0.02,6.21 0.82,11.85 2.42,16.93 1.59,5.08 3.89,9.47 6.87,13.16 3,3.68 6.6,6.51 10.79,8.51 4.21,2 8.94,3.02 14.16,3.03 5.02,0 9.64,-0.91 13.9,-2.71 4.26,-1.78 7.99,-4.47 11.18,-8.08 3.18,-3.58 5.66,-8.04 7.44,-13.41 1.76,-5.35 2.67,-11.59 2.69,-18.71 0,-4.73 -0.5,-9.17 -1.46,-13.34 -0.98,-4.17 -2.41,-7.99 -4.3,-11.42 -1.89,-3.42 -4.21,-6.38 -6.97,-8.86 -2.77,-2.48 -5.92,-4.41 -9.51,-5.74 -3.58,-1.36 -7.54,-2.04 -11.9,-2.05zm-0.42 10.16c2.92,0.02 5.54,0.63 7.86,1.78 2.32,1.18 4.34,2.81 6.05,4.88 1.71,2.05 3.12,4.43 4.24,7.11 1.13,2.69 1.98,5.57 2.53,8.62 0.56,3.05 0.83,6.13 0.83,9.29 0,3.49 -0.29,6.85 -0.88,10.06 -0.59,3.19 -1.48,6.15 -2.64,8.84 -1.17,2.71 -2.62,5.07 -4.37,7.07 -1.73,2 -3.76,3.55 -6.06,4.65 -2.32,1.13 -4.91,1.68 -7.78,1.7 -2.82,-0.02 -5.38,-0.59 -7.67,-1.72 -2.28,-1.12 -4.3,-2.69 -6.04,-4.69 -1.73,-2.01 -3.2,-4.35 -4.36,-7.02 -1.17,-2.68 -2.06,-5.57 -2.65,-8.69 -0.59,-3.1 -0.9,-6.33 -0.9,-9.67 0,-3.22 0.27,-6.4 0.83,-9.52 0.55,-3.1 1.39,-6.03 2.51,-8.76 1.12,-2.73 2.57,-5.13 4.3,-7.22 1.73,-2.09 3.76,-3.71 6.13,-4.91 2.36,-1.17 5.05,-1.78 8.07,-1.8zm-6.43 -13.27l9.96 0 15.3 -14.12 -14.23 0 -11.03 14.12zm97.82 4.28l-11.56 38.58c-1.57,5.07 -3.03,10.15 -4.4,15.23 -1.36,5.1 -2.54,10.1 -3.52,15l-0.32 0c-1.02,-4.92 -2.19,-9.91 -3.5,-14.96 -1.3,-5.05 -2.71,-10.17 -4.2,-15.38l-10.81 -38.47 -13.59 0 24.82 81.98 13.81 0 26.54 -81.98 -13.27 0zm66.78 71.6l-32.22 0 0 -27.19 28.68 0 0 -10.27 -28.68 0 0 -23.76 30.4 0 0 -10.38 -42.81 0 0 81.98 44.63 0 0 -10.38zm12.62 10.38l12.42 0 0 -81.98 -12.42 0 0 81.98zm70.74 -79.41c-1.18,-0.62 -2.6,-1.21 -4.3,-1.78 -1.69,-0.57 -3.62,-1.04 -5.78,-1.39 -2.15,-0.38 -4.55,-0.56 -7.15,-0.57 -4.08,0.01 -7.76,0.58 -11.02,1.73 -3.28,1.12 -6.08,2.71 -8.4,4.76 -2.32,2.03 -4.1,4.44 -5.35,7.18 -1.24,2.75 -1.86,5.75 -1.88,9.01 0.04,3.69 0.9,7.01 2.59,9.94 1.69,2.9 4.08,5.47 7.13,7.7 3.05,2.23 6.64,4.16 10.72,5.8 3.25,1.34 5.89,2.75 7.94,4.23 2.05,1.48 3.57,3.12 4.53,4.92 0.98,1.8 1.46,3.85 1.45,6.15 0,2.48 -0.59,4.64 -1.77,6.49 -1.18,1.88 -2.91,3.32 -5.16,4.36 -2.26,1.03 -5.02,1.55 -8.27,1.57 -2.26,-0.02 -4.48,-0.24 -6.64,-0.66 -2.15,-0.43 -4.17,-1 -6.06,-1.72 -1.91,-0.73 -3.59,-1.53 -5.07,-2.44l-2.78 10.38c1.36,0.91 3.07,1.73 5.18,2.46 2.12,0.75 4.42,1.34 6.95,1.78 2.52,0.45 5.07,0.67 7.67,0.68 4.6,-0.01 8.69,-0.62 12.24,-1.82 3.55,-1.19 6.52,-2.87 8.95,-5.02 2.43,-2.16 4.26,-4.7 5.51,-7.6 1.25,-2.91 1.87,-6.09 1.87,-9.53 0,-3.73 -0.69,-7.06 -2.12,-9.99 -1.43,-2.92 -3.57,-5.54 -6.45,-7.86 -2.88,-2.3 -6.52,-4.43 -10.9,-6.33 -3.46,-1.47 -6.28,-2.91 -8.49,-4.32 -2.21,-1.39 -3.86,-2.94 -4.93,-4.62 -1.05,-1.68 -1.57,-3.66 -1.57,-5.94 0,-1.34 0.25,-2.64 0.79,-3.92 0.54,-1.29 1.36,-2.45 2.46,-3.5 1.13,-1.05 2.55,-1.91 4.3,-2.53 1.75,-0.63 3.83,-0.95 6.26,-0.97 2.25,0.02 4.32,0.22 6.17,0.61 1.87,0.4 3.52,0.86 4.92,1.43 1.41,0.55 2.57,1.09 3.46,1.6l3 -10.27z"/>
   <path class="fil1" d="M548.08 262.39l-116.22 0 -173.11 526.21 116.22 0 115 -349.56 58.11 -176.65z"/>
   <path class="fil2" d="M331.26 568.21l-17.89 54.39c15.67,1.29 31.57,4.1 47.53,8.57 20.29,5.68 39.67,13.74 58.02,23.83l21.02 -63.9c-11.44,-4.7 -23.14,-8.76 -35.07,-12.1 -25.07,-7.03 -49.73,-10.52 -73.61,-10.79z"/>
   <path class="fil3" d="M381.34 554.94c151.02,0 279.31,97.72 325.72,233.66l-100.09 0c-51.7,-98.96 -154.93,-166.48 -273.87,-166.48 -118.94,0 -222.17,67.52 -273.87,166.48l-3.59 0c46.42,-135.94 174.69,-233.66 325.7,-233.66z"/>
   <path class="fil4" d="M431.86 262.39l116.22 0 173.1 526.21 -116.22 0 -114.99 -349.56 -58.11 -176.65z"/>
  </g>
 </g>
</svg>
