<?xml version="1.0" encoding="UTF-8"?>
<!DOCTYPE svg PUBLIC "-//W3C//DTD SVG 1.0//EN" "http://www.w3.org/TR/2001/REC-SVG-20010904/DTD/svg10.dtd">
<!-- Creator: CorelDRAW 2018 (64 Bit) -->
<svg xmlns="http://www.w3.org/2000/svg" xml:space="preserve" width="2717px" height="2008px" version="1.0" style="shape-rendering:geometricPrecision; text-rendering:geometricPrecision; image-rendering:optimizeQuality; fill-rule:evenodd; clip-rule:evenodd"
viewBox="0 0 2717 2008.22"
 xmlns:xlink="http://www.w3.org/1999/xlink">
 <defs>
  <style type="text/css">
   <![CDATA[
    .fil1 {fill:#878889}
    .fil0 {fill:#3A3A3A}
   ]]>
  </style>
 </defs>
 <g id="Camada_x0020_1">
  <metadata id="CorelCorpID_0Corel-Layer"/>
  <g id="_2341712119232">
   <path class="fil0" d="M234.1 1647l-21.53 0c-1.23,-21.47 -2.72,-33.82 -4.47,-37.07 -2.29,-5.05 -7.41,-9.66 -15.4,-13.83 -7.99,-4.13 -18.04,-6.22 -30.15,-6.22 -18.59,0 -32.17,5.5 -40.67,16.43 -8.51,10.93 -12.75,30.64 -12.75,59.04 0,36.02 7.94,63.87 23.88,83.5 15.94,19.62 36.42,29.46 61.47,29.46 9.12,-0.01 17.46,-0.82 25.08,-2.45 7.63,-1.63 14.59,-3.98 20.89,-7.07l4.42 5.98c-3.82,8.62 -7.39,17.32 -10.69,26.11 -11.54,5.9 -23.33,10.34 -35.35,13.31 -11.97,2.97 -24.1,4.44 -36.36,4.44 -38.17,0 -67.9,-10.88 -89.18,-32.64 -21.26,-21.78 -31.92,-52.71 -31.92,-92.82 0.01,-14.82 1.4,-28.22 4.21,-40.23 2.79,-12.03 6.61,-22.23 11.41,-30.63 4.82,-8.4 10.12,-15.22 15.88,-20.47 3.53,-2.88 18.57,-12.9 45.19,-30.08 15.55,-10.11 26.89,-16.33 33.99,-18.67 7.09,-2.37 16.58,-3.53 28.48,-3.53 10.53,-0.01 20.76,0.81 30.73,2.44 9.98,1.6 19.69,4.04 29.16,7.3l4.45 4.87c-6.31,30.15 -9.88,57.75 -10.77,82.83z"/>
   <path class="fil0" d="M418.57 1679.47c-30.69,6.89 -50.68,14.38 -59.9,22.41 -9.26,8.07 -13.87,18.87 -13.87,32.46 0,11.03 2.95,19.73 8.88,26.06 5.93,6.33 13.45,9.5 22.51,9.5 13.77,0 27.91,-8.04 42.37,-24.14l0.01 -66.29zm99.25 111.28l0 22.19 -20.27 -0.81c-10.71,-0.54 -21.42,-0.81 -32.12,-0.81 -16.49,-0.01 -32.12,0.54 -46.87,1.62l-2.62 -2.97 2.63 -37.13 -54.76 42.29c-9.79,2.33 -18.45,3.5 -25.96,3.5 -18.51,0 -32.84,-5.69 -42.97,-17.06 -10.14,-11.37 -15.23,-27.97 -15.23,-49.8 0,-26.9 6.92,-45.83 20.72,-56.85 17.83,-14.43 57.22,-27.34 118.19,-38.71 -0.33,-21.37 -3.92,-36.87 -10.71,-46.47 -9.6,-13.24 -24.45,-19.86 -44.52,-19.86 -4.73,0 -9.58,0.59 -14.56,1.77 -4.97,1.17 -9.99,3.02 -15.04,5.55l-11.8 28.96 -18.08 -4.59 0.52 -12.18 -0.3 -11.92 -0.22 -10.83c26.77,-17.15 46.02,-27.88 57.73,-32.21 8.6,-3.24 20.5,-4.87 35.73,-4.87 20.64,-0.01 37.45,3.21 50.42,9.62 12.96,6.42 22.39,15.15 28.35,26.19 5.95,11.03 8.92,27.14 8.92,48.29 0,8.87 -0.36,24.7 -1.05,47.49 -0.7,23.51 -1.04,42.4 -1.04,56.69 0,22.62 0.59,36.36 1.83,41.25 0.71,2.88 2.39,5.16 5.11,6.78 2.73,1.62 12.04,3.25 27.97,4.88z"/>
   <path class="fil0" d="M571.8 1725.24c0.87,23.26 2.01,36.27 3.39,38.99 3.86,7.39 11.05,13.89 21.62,19.47 10.56,5.6 22.84,8.39 36.81,8.39 17.12,0 29.9,-3.61 38.39,-10.91 8.45,-7.27 12.69,-16.92 12.69,-28.92 0,-10.38 -3.06,-18.56 -9.2,-24.58 -6.1,-5.98 -19.26,-11.2 -39.36,-15.72 -30.48,-6.85 -50.3,-12.83 -59.51,-17.99 -9.17,-5.14 -16.49,-12.77 -21.91,-22.87 -5.42,-10.1 -8.15,-22.21 -8.15,-36.27 0.01,-16.6 4.01,-31.3 12.08,-44.14 8.05,-12.8 19.61,-22.85 34.72,-30.18 15.14,-7.32 35.12,-10.95 59.94,-10.95 25.84,-0.01 49.9,4.31 72.07,13 -2.31,14.67 -3.89,37.5 -4.7,68.48l-20.75 -0.01c-1.02,-19.48 -2.55,-30.94 -4.47,-34.37 -2.61,-5.23 -7.61,-9.65 -14.97,-13.26 -10.14,-4.88 -21.01,-7.3 -32.55,-7.3 -14.7,-0.01 -26.13,3.35 -34.25,10.11 -8.16,6.73 -12.22,15.24 -12.22,25.48 0,9.52 3.67,17.07 11.02,22.67 7.38,5.74 24.86,11.21 52.49,16.44 19.13,3.59 32.32,6.93 39.68,10 12.24,5.44 21.58,13.36 27.97,23.73 6.38,10.4 9.58,23.56 9.58,39.47 0,30.56 -11.45,53.96 -34.35,70.21 -22.93,16.29 -50.18,24.42 -81.83,24.42 -10.47,0 -22.1,-1.24 -34.86,-3.75 -12.78,-2.5 -26.69,-6.16 -41.69,-10.99l-3.94 -4.55c2.1,-15.69 3.4,-40.38 3.94,-74.1l22.32 0z"/>
   <path class="fil0" d="M915.38 1679.47c-30.71,6.89 -50.68,14.38 -59.93,22.41 -9.24,8.07 -13.86,18.87 -13.86,32.46 0.01,11.03 2.97,19.73 8.88,26.06 5.97,6.33 13.45,9.5 22.52,9.5 13.78,0 27.9,-8.04 42.38,-24.14l0.01 -66.29zm99.24 111.28l0 22.19 -20.27 -0.81c-10.7,-0.54 -21.39,-0.81 -32.11,-0.81 -16.49,-0.01 -32.11,0.54 -46.87,1.62l-2.61 -2.97 2.62 -37.13 -54.77 42.29c-9.78,2.33 -18.45,3.5 -25.95,3.5 -18.53,0 -32.84,-5.69 -42.99,-17.06 -10.13,-11.37 -15.21,-27.97 -15.21,-49.8 0,-26.9 6.92,-45.83 20.72,-56.85 17.83,-14.43 57.21,-27.34 118.19,-38.71 -0.33,-21.37 -3.9,-36.87 -10.74,-46.47 -9.58,-13.24 -24.45,-19.86 -44.5,-19.86 -4.72,0 -9.57,0.59 -14.56,1.77 -4.97,1.17 -9.99,3.02 -15.03,5.55l-11.8 28.96 -18.1 -4.59 0.52 -12.18 -0.28 -11.92 -0.24 -10.83c26.79,-17.15 46.04,-27.88 57.77,-32.21 8.57,-3.24 20.46,-4.87 35.71,-4.87 20.65,-0.01 37.45,3.21 50.4,9.62 12.96,6.42 22.41,15.15 28.36,26.19 5.95,11.03 8.92,27.14 8.92,48.29 0.01,8.87 -0.34,24.7 -1.05,47.49 -0.7,23.51 -1.05,42.4 -1.05,56.69 0.01,22.62 0.61,36.36 1.83,41.25 0.71,2.88 2.41,5.16 5.13,6.78 2.73,1.62 12.04,3.25 27.96,4.88z"/>
   <path class="fil0" d="M1115.85 1627.1c0,27.11 3.87,46.21 11.63,57.25 7.75,11 18.84,16.53 33.27,16.53 13.23,0 23.5,-4.84 30.78,-14.52 7.33,-9.67 10.97,-24.82 10.97,-45.44 0.01,-22.61 -3.78,-39.07 -11.35,-49.36 -7.56,-10.32 -18.23,-15.46 -31.97,-15.46 -13.23,-0.01 -23.74,4.47 -31.58,13.43 -7.83,8.94 -11.76,21.45 -11.75,37.57zm6.05 192.6c-14.7,11.22 -24.3,20.55 -28.76,27.98 -4.45,7.38 -6.69,15.9 -6.69,25.49 0,17.38 6.56,31.43 19.7,42.2 13.12,10.76 32.47,16.14 58.01,16.14 18.4,-0.01 34.06,-2.98 47.01,-8.95 12.96,-5.98 22.69,-14.2 29.14,-24.69 6.48,-10.5 9.73,-22.16 9.73,-35.01 0,-11.75 -2.62,-21.71 -7.89,-29.86 -3.85,-5.6 -9.16,-9.2 -15.87,-10.85 -6.76,-1.63 -26.23,-2.44 -58.43,-2.44l-45.95 -0.01zm185.65 -215.75l-43.61 0c2.45,8.87 3.68,17.11 3.68,24.72 0,33.27 -11.5,58.04 -34.48,74.31 -22.96,16.28 -49.85,24.43 -80.6,24.43 -4.88,-0.01 -12.06,-0.35 -21.48,-1.06 -8.05,4.85 -13.17,8.73 -15.35,11.61 -2.17,2.89 -3.26,6.15 -3.26,9.75 0,8.65 5.85,13.89 17.58,15.69 6.49,1.09 42.03,1.64 106.62,1.64 21.69,0 36.7,1.94 45.01,5.8 8.32,3.9 15.2,10.8 20.63,20.73 5.41,9.92 8.14,22.74 8.14,38.43 0,36.26 -13.94,66.68 -41.75,91.23 -27.83,24.52 -65.47,36.8 -112.92,36.8 -40.25,-0.01 -70.27,-7.25 -90.05,-21.77 -19.76,-14.54 -29.67,-33.06 -29.67,-55.62 0,-13 3.04,-23.82 9.19,-32.47 2.8,-3.98 12.42,-10.84 28.91,-20.58l18.87 -11.1c-14.17,-2.87 -23.62,-6.7 -28.37,-11.49 -4.7,-4.78 -7.09,-11.6 -7.09,-20.42 0.01,-9.58 3.43,-21.32 10.25,-35.2l8.67 -5.66c9.98,-6.71 19.44,-13.9 28.35,-21.66 -20.01,-7.43 -34.49,-17.42 -43.38,-30.06 -8.89,-12.65 -13.34,-28.54 -13.34,-47.67 0.01,-27.62 10.3,-50.32 30.91,-68.11 20.61,-17.78 49.51,-26.66 86.69,-26.66 18.34,-0.01 34.48,1.89 48.44,5.68 10.31,2.89 20.6,8.04 30.92,15.43 38.48,0.18 63.6,-0.35 75.35,-1.61l4.45 5.59c-4.73,6.75 -10.49,16.54 -17.31,29.3z"/>
   <path class="fil0" d="M1320.28 1812.94l0 -22.19c17.7,-0.91 27.85,-1.98 30.46,-3.25 2.1,-1.1 3.76,-2.78 5,-5.15 1.92,-4.35 3.04,-13.91 3.37,-28.74 0.74,-26.39 1.08,-50.42 1.08,-72.11 0,-41.75 -0.53,-66.49 -1.58,-74.27 -0.52,-4.52 -2.09,-7.71 -4.72,-9.62 -2.62,-1.89 -13.84,-3.21 -33.63,-3.93l0.02 -20.85c35.26,-3.46 60.51,-7.75 75.69,-12.87l26.99 -10.41c2.43,0 3.66,1.73 3.66,5.14l-0.22 3.79c-0.55,11.38 -0.83,27.71 -0.83,49.01 8.95,-8.86 18.81,-20.04 29.72,-33.58 8,-10.09 15.06,-16.69 20.9,-19.76 6,-3.04 13.99,-4.59 23.98,-4.59 5.53,-0.01 11.21,1 17.05,2.98 -1.53,18.05 -2.61,42.61 -3.22,73.67l-11.68 4.35c-4.15,-7.06 -8.46,-12 -13.38,-14.8 -4.75,-2.82 -11.06,-4.21 -18.75,-4.21 -10.44,0 -19.51,2.81 -27.04,8.41 -7.51,5.6 -12.33,12.04 -14.43,19.28 -1.41,5.45 -2.1,23.9 -2.1,55.41 0,45.79 0.61,72.47 1.83,80.08 0.72,5.08 2.37,8.51 4.99,10.31 4.03,2.72 17.24,4.62 39.68,5.71l0 22.19 -29.36 -0.81c-18.81,-0.54 -34.99,-0.81 -48.65,-0.81 -12.95,-0.01 -28.01,0.27 -45.17,0.81l-29.66 0.81z"/>
   <path class="fil0" d="M1676.44 1679.47c-30.74,6.89 -50.57,14.38 -59.94,22.41 -9.22,8.07 -13.83,18.87 -13.83,32.46 0,11.03 2.92,19.73 8.91,26.06 6,6.33 13.37,9.5 22.44,9.5 13.83,0 27.97,-8.04 42.41,-24.14l0.01 -66.29zm99.27 111.28l0 22.19 -20.29 -0.81c-10.75,-0.54 -21.36,-0.81 -32.12,-0.81 -16.43,-0.01 -32.11,0.54 -46.87,1.62l-2.61 -2.97 2.62 -37.13 -54.71 42.29c-9.84,2.33 -18.45,3.5 -25.98,3.5 -18.59,0 -32.89,-5.69 -43.03,-17.06 -10.14,-11.37 -15.21,-27.97 -15.21,-49.8 0,-26.9 6.91,-45.83 20.75,-56.85 17.83,-14.43 57.16,-27.34 118.17,-38.71 -0.3,-21.37 -3.84,-36.87 -10.75,-46.47 -9.53,-13.24 -24.44,-19.86 -44.42,-19.86 -4.76,0 -9.53,0.59 -14.6,1.77 -4.91,1.17 -9.99,3.02 -15.06,5.55l-11.83 28.96 -17.98 -4.59 0.46 -12.18 -0.3 -11.92 -0.16 -10.83c26.75,-17.15 45.95,-27.88 57.63,-32.21 8.61,-3.24 20.59,-4.87 35.81,-4.87 20.6,-0.01 37.34,3.21 50.4,9.62 12.92,6.42 22.44,15.15 28.28,26.19 6,11.03 8.91,27.14 8.91,48.29 0.01,8.87 -0.31,24.7 -0.92,47.49 -0.76,23.51 -1.07,42.4 -1.07,56.69 0,22.62 0.61,36.36 1.84,41.25 0.62,2.88 2.3,5.16 5.07,6.78 2.76,1.62 11.99,3.25 27.97,4.88z"/>
   <path class="fil0" d="M1797.07 1812.94l0 -22.19c19.21,-1.09 29.81,-2.67 32.43,-4.74 2.31,-2.1 3.84,-6.75 4.45,-13.96 0.93,-18.26 1.54,-50.42 1.54,-96.51 0,-22.77 -0.31,-42.37 -1.07,-58.83 -0.31,-10.12 -1.08,-16.07 -2.16,-17.88 -0.76,-1.45 -2.15,-2.53 -4.15,-3.25 -1.84,-0.74 -12.14,-1.37 -31.04,-1.9l0 -20.85c9.53,0 24.28,-2.08 44.42,-6.28 20.13,-4.22 37.03,-9.03 50.71,-14.54l7.07 -2.46c2.46,0 3.69,2.1 3.69,6.23l-0.3 2.44c-0.47,5.06 -0.78,18.05 -0.78,38.98l40.57 -35.18c5.08,-4.51 10.45,-7.59 15.83,-9.22 7.69,-2.17 17.05,-3.24 27.97,-3.24 18.6,-0.01 33.81,3.3 45.49,9.91 11.83,6.59 20.43,15.73 25.97,27.39 5.53,11.67 8.3,29.79 8.3,54.4 0,10.84 -0.31,23.43 -0.77,37.71 -0.92,29.3 -1.38,54.63 -1.38,75.96 0,12.12 1.07,20.53 2.92,25.24 1.38,3.25 3.38,5.42 5.99,6.51 2.46,1.08 11.98,2.44 28.73,4.07l0.01 22.19 -32.43 -1.09 -20.59 -0.54 -54.09 1.63 -2.93 -3.52c4.47,-34.31 6.77,-69.56 6.77,-105.71 0,-45.89 -2.77,-74.18 -8.15,-84.83 -6.91,-13.75 -19.82,-20.59 -38.27,-20.59 -11.98,-0.01 -22.28,3.1 -31.04,9.36 -8.76,6.25 -14.44,12.89 -17.06,19.95 -1.22,2.9 -1.84,12.03 -1.84,27.43 0,65.51 0.3,103.01 0.77,112.5 0.62,9.51 2,15.34 4.45,17.51 3.23,2.72 14.91,4.62 35.2,5.71l0 22.19c-30.43,-1.09 -56.1,-1.62 -77.15,-1.62 -12.44,-0.01 -35.04,0.54 -68.08,1.62z"/>
   <path class="fil0" d="M2318.81 1619.17c-8.29,-12.11 -17.68,-21.15 -28.12,-27.09 -10.6,-5.98 -22.14,-8.96 -34.89,-8.96 -18.13,0 -31.97,6.64 -41.49,19.95 -9.68,13.27 -14.45,35.54 -14.45,66.8 0.01,32.16 5.84,56.2 17.67,72.14 11.84,15.88 26.9,23.82 45.34,23.82 12.45,0 23.82,-3.69 34.42,-11.1 10.61,-7.42 16.91,-14.18 18.75,-20.35 1.85,-6.13 2.77,-29.44 2.77,-69.92l0 -45.29zm0 -57.96l0 -46.73c0,-28.99 -0.62,-45.82 -1.85,-50.49 -0.91,-3.42 -2.61,-5.8 -5.07,-7.15 -2.61,-1.35 -14.44,-2.3 -35.5,-2.85l0 -19.48c41.65,-4.7 76.69,-13.35 104.81,-25.99l6.92 6.5c-1.69,29.08 -2.77,56.63 -3.08,82.62l-1.69 212.66c0,35.56 0.62,57.23 1.85,65.01 0.62,4.87 2.3,8.27 5.07,10.16 2.77,1.88 13.37,3.65 32.12,5.28l0 22.19c-21.36,-1.09 -42.27,-1.62 -62.55,-1.62 -14.75,-0.01 -28.58,0.54 -41.34,1.62l-4.45 -3.25c2.15,-18.23 3.84,-32.94 4.76,-44.11 -11.99,9.19 -30.89,25 -57.02,47.36 -9.98,3.8 -19.36,5.69 -28.12,5.69 -29.04,0 -53.33,-11.16 -72.54,-33.47 -19.35,-22.3 -29.04,-51.97 -29.04,-89.01 0,-18.08 1.99,-34.45 5.84,-49.18 4,-14.73 8.6,-25.78 13.98,-33.18 5.23,-7.42 15.99,-16.9 32.12,-28.47 21.83,-15.72 37.81,-25.6 47.95,-29.66 10,-4.06 21.05,-6.1 32.89,-6.1 8.61,-0.01 17.36,0.95 26.28,2.84 8.92,1.9 18.13,4.82 27.66,8.81z"/>
   <path class="fil0" d="M2516.6 1655.65c15.67,1.46 31.5,2.19 47.17,2.19 13.84,-0.01 28.43,-0.72 43.65,-2.18l0.31 -12.77c0,-22.26 -4,-38.52 -11.84,-48.75 -7.84,-10.24 -18.59,-15.35 -32.12,-15.35 -9.37,-0.01 -17.52,2.41 -24.28,7.19 -6.91,4.8 -11.98,11.55 -15.37,20.25 -3.22,8.7 -5.84,25.18 -7.52,49.42zm146.3 105l7.52 7.87 -11.68 25.92c-12.6,8.05 -26.12,14.11 -40.57,18.12 -14.44,4.05 -29.81,6.07 -46.1,6.07 -38.26,0 -68.23,-11.42 -90.21,-34.28 -21.97,-22.85 -33.04,-54.96 -33.04,-96.31 0.01,-26.2 3.23,-47.87 9.68,-65.06 5.39,-13.91 13.99,-25.46 25.97,-34.67 12,-9.22 25.82,-17.96 41.5,-26.28 15.52,-8.31 32.73,-12.47 51.48,-12.47 28.74,-0.01 52.56,8.28 71.15,24.82 18.76,16.53 28.12,43.18 28.12,79.89 0.01,4.52 -0.3,11.41 -1.07,20.61l-42.87 8.12c-13.38,0.91 -32.59,1.36 -57.79,1.36l-56.86 0c2.62,31.14 11.68,54.58 27.04,70.33 15.53,15.72 35.04,23.62 58.86,23.62 10,-0.01 19.83,-1.51 29.66,-4.49 9.84,-2.99 19.52,-7.38 29.21,-13.17z"/>
   <path class="fil0" d="M1420.38 1881.33l0 14.53 -6.77 0 0 54.36 6.77 0 0 14.56 -31.78 0 0 -14.56 6.78 0 0 -54.36 -6.78 0 0 -14.53 31.78 0z"/>
   <path class="fil0" d="M1582.07 1964.78l-17.97 0 0 -49.94c0,-5.39 0.15,-11.35 0.61,-17.86l-0.46 -0.01c-0.92,5.13 -1.85,8.81 -2.46,11.06l-19.05 56.75 -14.91 0 -19.21 -56.17c-0.62,-1.51 -1.39,-5.38 -2.62,-11.63l-0.45 -0.01c0.46,8.24 0.6,15.44 0.6,21.66l0.01 46.15 -16.29 0 0 -83.45 26.59 0 16.6 49.46c1.38,3.95 2.3,7.93 2.91,11.93l0.31 0c1.08,-4.62 1.99,-8.63 3.23,-12.04l16.45 -49.35 26.11 0 0 83.45z"/>
   <path class="fil0" d="M1693.18 1896.1c-6.3,0 -11.37,2.49 -15.21,7.42 -3.68,4.95 -5.69,11.5 -5.69,19.66 0.01,8.25 2,14.78 5.69,19.59 3.85,4.81 8.76,7.23 14.75,7.23 6.31,0 11.37,-2.36 15.06,-7.01 3.7,-4.67 5.54,-11.17 5.54,-19.47 0,-8.66 -1.85,-15.39 -5.38,-20.18 -3.54,-4.85 -8.46,-7.24 -14.76,-7.24zm-0.76 70.1c-11.53,0 -21.06,-3.86 -28.28,-11.63 -7.38,-7.79 -10.91,-17.91 -10.91,-30.42 0,-13.18 3.69,-23.85 11.06,-32 7.38,-8.15 17.21,-12.23 29.51,-12.23 11.53,-0.01 20.9,3.9 27.97,11.71 7.07,7.8 10.76,18.09 10.76,30.84 0,13.09 -3.69,23.68 -11.22,31.71 -7.38,8.03 -16.91,12.03 -28.89,12.02z"/>
   <path class="fil0" d="M1821.97 1928.92l0 21.99 9.84 0c4.15,0 7.52,-0.99 9.83,-3.01 2.46,-2.05 3.69,-4.79 3.69,-8.26 0,-3.34 -1.23,-5.96 -3.54,-7.87 -2.3,-1.89 -5.69,-2.85 -9.83,-2.85l-9.99 0zm0 -33.75l0 19.77 7.99 0c3.69,0 6.76,-0.92 8.91,-2.8 2.16,-1.87 3.23,-4.48 3.23,-7.77 0,-6.14 -4.46,-9.19 -13.37,-9.19l-6.76 -0.01zm-18.28 69.61l0 -83.45 29.5 0c9.06,0 15.98,1.71 20.74,5.12 4.92,3.4 7.38,8.22 7.38,14.42 0,4.51 -1.54,8.43 -4.46,11.83 -2.92,3.36 -6.76,5.7 -11.37,7.04l0 0.22c5.85,0.74 10.45,2.94 13.83,6.59 3.38,3.63 5.22,8.08 5.22,13.32 0.01,7.64 -2.76,13.69 -7.99,18.18 -5.37,4.48 -12.6,6.73 -21.82,6.73l-31.03 0z"/>
   <path class="fil0" d="M1960.59 1881.33l0 14.53 -6.77 0 0 54.36 6.77 0 0 14.56 -31.81 0 0 -14.56 6.76 0 0 -54.36 -6.76 0 0 -14.53 31.81 0z"/>
   <path class="fil0" d="M2078.3 1964.78l-48.25 0 0 -83.45 18.29 0 0 68.17 29.96 0 0 15.28z"/>
   <path class="fil0" d="M2171.89 1881.33l0 14.53 -6.75 0 0 54.36 6.75 0 0 14.56 -31.81 0 0 -14.56 6.92 0 0 -54.36 -6.92 0 0 -14.53 31.81 0z"/>
   <path class="fil0" d="M2282.7 1931.76l-8.61 -28.02c-0.76,-2.11 -1.08,-4.61 -1.39,-7.52l-0.45 0c-0.16,2.45 -0.62,4.88 -1.39,7.27l-8.91 28.27 20.75 0zm7.84 -76.97l-17.68 18.8 -12.75 0 14.59 -18.8 15.84 0zm21.97 109.99l-19.82 0 -5.84 -18.57 -28.74 0 -5.69 18.57 -19.82 0 29.5 -83.45 21.67 0 28.74 83.45z"/>
   <path class="fil0" d="M2398.72 1895.4l0 23.22 7.84 0c3.84,0 7.07,-1.16 9.37,-3.48 2.47,-2.37 3.69,-5.3 3.69,-8.79 0.01,-7.31 -4.3,-10.94 -12.76,-10.94l-8.14 -0.01zm49.64 69.38l-20.9 0 -12.6 -21.48c-1.08,-1.64 -1.85,-3.09 -2.77,-4.37 -0.92,-1.28 -1.69,-2.36 -2.61,-3.29 -0.92,-0.91 -1.84,-1.6 -2.77,-2.09 -0.92,-0.49 -1.99,-0.72 -3.07,-0.72l-4.92 0 0 31.95 -18.28 0 0 -83.45 28.89 0c19.67,0 29.5,7.57 29.5,22.7 0,2.89 -0.46,5.6 -1.38,8.05 -0.77,2.46 -2,4.69 -3.69,6.67 -1.53,1.97 -3.38,3.68 -5.69,5.12 -2.14,1.43 -4.76,2.55 -7.53,3.36l0.01 0.23c1.23,0.39 2.45,1.02 3.53,1.9 1.23,0.88 2.3,1.89 3.38,3.05 0.92,1.15 2,2.42 2.92,3.75 0.92,1.33 1.84,2.65 2.61,3.94l15.37 24.68z"/>
   <path class="fil0" d="M2538.73 1881.33l0 14.53 -6.77 0 0 54.36 6.77 0 0 14.56 -31.81 0 0 -14.56 6.76 0 0 -54.36 -6.76 0 0 -14.53 31.81 0z"/>
   <path class="fil0" d="M2649.52 1931.76l-8.75 -28.02c-0.62,-2.11 -1.08,-4.61 -1.39,-7.52l-0.45 0c-0.16,2.45 -0.62,4.88 -1.4,7.27l-8.75 28.27 20.74 0zm29.82 33.02l-19.98 0 -5.68 -18.57 -28.74 0 -5.69 18.57 -19.82 0 29.5 -83.45 21.52 0 28.89 83.45z"/>
   <path class="fil0" d="M443.72 727c277.37,-530.95 932.6,-736.51 1463.58,-459.13 240,125.34 413.43,327.91 505.86,561.29 -78.15,-276.53 -265.51,-521.53 -540.3,-665.08 -529.71,-276.74 -1183.48,-71.62 -1460.2,458.09 -143.55,274.8 -157.4,582.93 -63.6,854.53 -57.39,-244.39 -30.7,-509.72 94.66,-749.7z"/>
   <path class="fil1" d="M2431.24 1085.15l-1037.28 -558.11 -360.12 193.78 0 -131.37 -172.05 0 0 223.98 -505.05 271.72 504.91 -155.11 0 488.89 1.09 0 58.2 0 38.2 0 0 -518.81 434.82 -133.6 434.86 133.6 0 518.81 40.88 0 56.56 0 1.53 0 0 -488.37 503.45 154.59z"/>
  </g>
 </g>
</svg>
