<?xml version="1.0" encoding="UTF-8"?>
<!DOCTYPE svg PUBLIC "-//W3C//DTD SVG 1.0//EN" "http://www.w3.org/TR/2001/REC-SVG-20010904/DTD/svg10.dtd">
<!-- Creator: CorelDRAW 2018 (64 Bit) -->
<svg xmlns="http://www.w3.org/2000/svg" xml:space="preserve" width="600px" height="400px" version="1.0" style="shape-rendering:geometricPrecision; text-rendering:geometricPrecision; image-rendering:optimizeQuality; fill-rule:evenodd; clip-rule:evenodd"
viewBox="0 0 600 400"
 xmlns:xlink="http://www.w3.org/1999/xlink">
 <defs>
  <style type="text/css">
   <![CDATA[
    .fil2 {fill:#414242}
    .fil0 {fill:#999A9A;fill-rule:nonzero}
    .fil1 {fill:#414242;fill-rule:nonzero}
   ]]>
  </style>
 </defs>
 <g id="Camada_x0020_1">
  <metadata id="CorelCorpID_0Corel-Layer"/>
  <g id="_2341279600416">
   <path class="fil0" d="M232.83 80.68c4.87,0 9.27,1.97 12.46,5.16 3.19,3.19 5.16,7.59 5.16,12.46 0,3.88 -1.25,7.47 -3.38,10.38l17 22.27 23.1 -45.43c-3.15,-3.18 -5.11,-7.56 -5.11,-12.4 0,-4.87 1.98,-9.27 5.17,-12.46 3.19,-3.19 7.59,-5.16 12.46,-5.16 4.86,0 9.27,1.97 12.46,5.16 3.18,3.19 5.16,7.59 5.16,12.46 0,4.8 -1.93,9.16 -5.05,12.34l23.36 45.92 17.58 -22.13c-2.39,-3 -3.82,-6.81 -3.82,-10.95 0,-4.87 1.97,-9.27 5.16,-12.46 3.19,-3.19 7.59,-5.16 12.46,-5.16 4.86,0 9.27,1.97 12.46,5.16 3.19,3.19 5.16,7.59 5.16,12.46 0,4.86 -1.97,9.27 -5.16,12.46 -2.24,2.23 -5.07,3.87 -8.25,4.65l0 87.04 -4.57 0 -0.07 0.03 -4.45 -0.02 0 -0.01 -0.05 0 0 -0.1 -27.96 -54.4 -34.95 44 -33.72 -44.16 -28.04 54.56 0 0.1 -0.04 0 -0.01 0.01 -4.45 0.02 -0.07 -0.03 -4.57 0 0 -87.13c-3.03,-0.81 -5.74,-2.41 -7.89,-4.56 -3.19,-3.19 -5.16,-7.6 -5.16,-12.46 0,-4.87 1.97,-9.27 5.16,-12.46 3.19,-3.19 7.6,-5.16 12.46,-5.16zm71.56 9.42c-1.5,0.42 -3.08,0.64 -4.7,0.64 -1.6,0 -3.15,-0.21 -4.62,-0.61l-25.01 48.67 29.24 38.3 30.23 -38.06 -25.14 -48.94zm57.68 93.27l0 -68.15c-0.52,-0.15 -1.03,-0.33 -1.53,-0.53l-20.37 25.64 21.9 43.04zm-122.11 -68.96c-0.82,0.37 -1.67,0.67 -2.56,0.91l0 68.05 22.08 -43.4 -19.52 -25.56zm65.72 -47.29c-1.53,-1.53 -3.65,-2.48 -5.99,-2.48 -2.34,0 -4.46,0.95 -6,2.48 -1.53,1.54 -2.48,3.66 -2.48,6 0,2.34 0.95,4.46 2.48,5.99 1.54,1.53 3.66,2.48 6,2.48 2.34,0 4.46,-0.95 5.99,-2.48 1.53,-1.53 2.48,-3.65 2.48,-5.99 0,-2.34 -0.95,-4.46 -2.48,-6zm67.31 25.18c-1.53,-1.53 -3.65,-2.48 -5.99,-2.48 -2.34,0 -4.46,0.95 -5.99,2.48 -1.54,1.54 -2.48,3.66 -2.48,6 0,2.34 0.94,4.46 2.48,5.99 1.53,1.53 3.65,2.48 5.99,2.48 2.34,0 4.46,-0.95 5.99,-2.48 1.53,-1.53 2.48,-3.65 2.48,-5.99 0,-2.34 -0.95,-4.46 -2.48,-6zm-134.17 0c-1.53,-1.53 -3.65,-2.48 -5.99,-2.48 -2.34,0 -4.46,0.95 -5.99,2.48 -1.53,1.54 -2.48,3.66 -2.48,6 0,2.34 0.95,4.46 2.48,5.99 1.53,1.53 3.65,2.48 5.99,2.48 2.34,0 4.46,-0.95 5.99,-2.48 1.54,-1.53 2.48,-3.65 2.48,-5.99 0,-2.34 -0.94,-4.46 -2.48,-6z"/>
   <g>
    <path class="fil0" d="M41.73 232.18l39.49 0 0 16.33 -16.12 0 0 15.6 14.3 0 0 15.5 -14.3 0 0 34.31 -23.37 0 0 -81.74zm98.38 47.91c0,8.22 -0.21,14.02 -0.64,17.43 -0.42,3.43 -1.74,6.55 -3.98,9.37 -2.23,2.82 -5.25,4.99 -9.05,6.51 -3.81,1.52 -8.23,2.27 -13.28,2.27 -4.8,0 -9.1,-0.72 -12.92,-2.15 -3.82,-1.43 -6.9,-3.57 -9.21,-6.42 -2.32,-2.86 -3.7,-5.98 -4.16,-9.34 -0.43,-3.37 -0.66,-9.26 -0.66,-17.67l0 -13.98c0,-8.21 0.21,-14.02 0.64,-17.43 0.42,-3.42 1.74,-6.54 3.97,-9.37 2.24,-2.82 5.26,-4.99 9.06,-6.51 3.8,-1.51 8.23,-2.27 13.28,-2.27 4.8,0 9.1,0.72 12.92,2.15 3.82,1.43 6.9,3.57 9.21,6.43 2.32,2.86 3.7,5.97 4.16,9.33 0.43,3.38 0.66,9.27 0.66,17.67l0 13.98zm-23.38 -26.84c0,-3.79 -0.22,-6.22 -0.68,-7.29 -0.45,-1.05 -1.38,-1.58 -2.78,-1.58 -1.19,0 -2.1,0.43 -2.74,1.29 -0.62,0.84 -0.95,3.37 -0.95,7.58l0 38.14c0,4.74 0.21,7.66 0.63,8.77 0.41,1.12 1.38,1.67 2.89,1.67 1.55,0 2.56,-0.64 2.99,-1.92 0.44,-1.27 0.64,-4.32 0.64,-9.12l0 -37.54zm85.14 -21.07l0 54.65c0,6.2 -0.22,10.55 -0.66,13.05 -0.45,2.52 -1.76,5.1 -3.93,7.73 -2.18,2.66 -5.05,4.65 -8.61,6.01 -3.57,1.36 -7.77,2.05 -12.61,2.05 -5.35,0 -10.08,-0.81 -14.16,-2.43 -4.11,-1.61 -7.17,-3.72 -9.2,-6.3 -2.04,-2.6 -3.23,-5.34 -3.61,-8.21 -0.36,-2.88 -0.55,-8.94 -0.55,-18.15l0 -48.4 23.38 0 0 61.31c0,3.57 0.21,5.86 0.62,6.84 0.42,1 1.27,1.5 2.54,1.5 1.43,0 2.38,-0.55 2.8,-1.64 0.41,-1.1 0.62,-3.68 0.62,-7.75l0 -60.26 23.37 0zm9.06 0l16.51 0c11.01,0 18.46,0.38 22.36,1.16 3.89,0.77 7.07,2.75 9.53,5.94 2.46,3.17 3.69,8.25 3.69,15.21 0,6.35 -0.87,10.62 -2.61,12.81 -1.72,2.18 -5.15,3.49 -10.25,3.92 4.61,1.05 7.73,2.45 9.32,4.21 1.59,1.74 2.57,3.35 2.95,4.82 0.4,1.46 0.59,5.49 0.59,12.09l0 21.58 -21.67 0 0 -27.2c0,-4.37 -0.38,-7.07 -1.14,-8.13 -0.74,-1.05 -2.7,-1.56 -5.9,-1.56l0 36.89 -23.38 0 0 -81.74zm23.38 13.95l0 18.19c2.61,0 4.42,-0.33 5.47,-0.98 1.03,-0.66 1.57,-2.79 1.57,-6.39l0 -4.5c0,-2.6 -0.52,-4.3 -1.52,-5.11 -1,-0.81 -2.85,-1.21 -5.52,-1.21z"/>
    <path class="fil1" d="M325.6 232.18l0 81.74 -23.38 0 0 -34.31 -6.81 0 0 34.31 -23.37 0 0 -81.74 23.37 0 0 29.25 6.81 0 0 -29.25 23.38 0zm62.65 47.91c0,8.22 -0.21,14.02 -0.64,17.43 -0.42,3.43 -1.74,6.55 -3.97,9.37 -2.23,2.82 -5.26,4.99 -9.06,6.51 -3.8,1.52 -8.23,2.27 -13.28,2.27 -4.8,0 -9.09,-0.72 -12.91,-2.15 -3.82,-1.43 -6.91,-3.57 -9.21,-6.42 -2.33,-2.86 -3.71,-5.98 -4.16,-9.34 -0.44,-3.37 -0.67,-9.26 -0.67,-17.67l0 -13.98c0,-8.21 0.21,-14.02 0.65,-17.43 0.41,-3.42 1.74,-6.54 3.97,-9.37 2.23,-2.82 5.26,-4.99 9.06,-6.51 3.8,-1.51 8.22,-2.27 13.27,-2.27 4.81,0 9.1,0.72 12.92,2.15 3.82,1.43 6.9,3.57 9.21,6.43 2.33,2.86 3.71,5.97 4.16,9.33 0.44,3.38 0.66,9.27 0.66,17.67l0 13.98zm-23.37 -26.84c0,-3.79 -0.23,-6.22 -0.68,-7.29 -0.46,-1.05 -1.38,-1.58 -2.78,-1.58 -1.19,0 -2.1,0.43 -2.75,1.29 -0.62,0.84 -0.94,3.37 -0.94,7.58l0 38.14c0,4.74 0.21,7.66 0.62,8.77 0.42,1.12 1.38,1.67 2.9,1.67 1.55,0 2.55,-0.64 2.98,-1.92 0.44,-1.27 0.65,-4.32 0.65,-9.12l0 -37.54zm85.14 -21.07l0 54.65c0,6.2 -0.23,10.55 -0.66,13.05 -0.46,2.52 -1.76,5.1 -3.94,7.73 -2.17,2.66 -5.05,4.65 -8.6,6.01 -3.58,1.36 -7.77,2.05 -12.62,2.05 -5.35,0 -10.08,-0.81 -14.16,-2.43 -4.1,-1.61 -7.17,-3.72 -9.19,-6.3 -2.04,-2.6 -3.24,-5.34 -3.61,-8.21 -0.36,-2.88 -0.55,-8.94 -0.55,-18.15l0 -48.4 23.37 0 0 61.31c0,3.57 0.21,5.86 0.63,6.84 0.41,1 1.26,1.5 2.53,1.5 1.44,0 2.38,-0.55 2.8,-1.64 0.42,-1.1 0.62,-3.68 0.62,-7.75l0 -60.26 23.38 0zm58.42 24.8l-21.68 0 0 -6.04c0,-2.83 -0.28,-4.63 -0.83,-5.41 -0.55,-0.77 -1.45,-1.15 -2.74,-1.15 -1.4,0 -2.46,0.51 -3.18,1.56 -0.71,1.04 -1.07,2.6 -1.07,4.72 0,2.72 0.41,4.77 1.22,6.15 0.8,1.36 2.99,3.03 6.6,4.99 10.35,5.64 16.87,10.27 19.56,13.87 2.71,3.6 4.05,9.4 4.05,17.39 0,5.82 -0.76,10.11 -2.25,12.88 -1.5,2.76 -4.37,5.07 -8.67,6.93 -4.27,1.87 -9.24,2.8 -14.94,2.8 -6.24,0 -11.55,-1.08 -15.98,-3.24 -4.4,-2.15 -7.28,-4.89 -8.66,-8.21 -1.36,-3.34 -2.04,-8.08 -2.04,-14.19l0 -5.36 21.67 0 0 9.94c0,3.07 0.31,5.03 0.91,5.91 0.61,0.88 1.68,1.31 3.23,1.31 1.56,0 2.71,-0.55 3.47,-1.67 0.75,-1.11 1.13,-2.76 1.13,-4.93 0,-4.8 -0.72,-7.96 -2.16,-9.42 -1.49,-1.48 -5.12,-3.96 -10.91,-7.44 -5.79,-3.49 -9.6,-6.04 -11.5,-7.63 -1.87,-1.58 -3.44,-3.77 -4.67,-6.56 -1.23,-2.79 -1.85,-6.35 -1.85,-10.69 0,-6.25 0.87,-10.84 2.63,-13.73 1.76,-2.89 4.57,-5.15 8.49,-6.78 3.91,-1.64 8.62,-2.45 14.16,-2.45 6.06,0 11.2,0.9 15.47,2.67 4.26,1.79 7.08,4.03 8.46,6.75 1.38,2.7 2.08,7.3 2.08,13.8l0 3.23zm9.32 -24.8l38.92 0 0 16.33 -15.54 0 0 15.6 14.52 0 0 15.5 -14.52 0 0 17.98 17.13 0 0 16.33 -40.51 0 0 -81.74z"/>
   </g>
   <path class="fil2" d="M277.35 334.96c0,1.21 -0.18,2.41 -0.56,3.57 -0.36,1.09 -0.91,2.1 -1.64,3 -0.69,0.84 -1.52,1.54 -2.5,2.04 -0.92,0.47 -1.91,0.72 -2.95,0.72 -1.04,0 -2.02,-0.25 -2.95,-0.72 -0.97,-0.5 -1.8,-1.2 -2.49,-2.04 -0.73,-0.9 -1.28,-1.91 -1.65,-3.01 -0.39,-1.15 -0.56,-2.35 -0.56,-3.56 0,-1.22 0.17,-2.43 0.56,-3.58 0.37,-1.11 0.92,-2.12 1.65,-3.02 0.69,-0.84 1.52,-1.53 2.49,-2.02 0.93,-0.47 1.91,-0.72 2.95,-0.72 1.04,0 2.03,0.25 2.96,0.72 0.97,0.49 1.8,1.18 2.49,2.02 0.73,0.89 1.28,1.91 1.64,3.01 0.38,1.16 0.56,2.36 0.56,3.59zm-7.65 6.69c0.69,0 1.35,-0.16 1.96,-0.48 0.67,-0.36 1.23,-0.87 1.71,-1.46 0.51,-0.65 0.9,-1.38 1.16,-2.17 0.27,-0.83 0.4,-1.7 0.4,-2.58 0,-0.9 -0.13,-1.78 -0.41,-2.63 -0.26,-0.79 -0.63,-1.52 -1.15,-2.17 -0.47,-0.59 -1.03,-1.09 -1.7,-1.44 -0.62,-0.32 -1.28,-0.49 -1.97,-0.49 -0.7,0 -1.37,0.17 -1.99,0.49 -0.67,0.34 -1.22,0.84 -1.68,1.43 -0.51,0.66 -0.9,1.4 -1.16,2.19 -0.28,0.85 -0.4,1.73 -0.4,2.62 0,0.87 0.12,1.74 0.39,2.57 0.26,0.8 0.65,1.52 1.17,2.18 0.47,0.59 1.03,1.11 1.7,1.46 0.62,0.32 1.27,0.48 1.97,0.48zm-2.21 -16.75l2.51 -4.34 0.17 -0.09 3.12 0 0.19 0.42 -3.78 4.3 -0.14 0.07 -1.86 0 -0.21 -0.36zm-71.43 18.72l0 -17.4 0.22 -0.21 2.49 0 0.21 0.21 0 17.4 -0.21 0.21 -2.49 0 -0.22 -0.21zm30.26 -10.37l-1.68 10.41 -0.2 0.17 -2.03 0 -0.22 -0.25 3.1 -18.22 0.55 -0.05 4.98 13.49 4.97 -13.49 0.55 0.05 3.1 18.22 -0.21 0.25 -2.03 0 -0.2 -0.17 -1.7 -10.42 -4.23 11.26 -0.5 0.01 -4.25 -11.26zm80.4 5.08l4.11 -12.19 0.19 -0.13 2.24 0 0.22 0.3 -6.51 18.19 -0.5 0.01 -6.54 -18.2 0.22 -0.3 2.25 0 0.19 0.13 4.13 12.19zm32.66 -9.74l0 4.19 5.94 0 0.21 0.21 0 2.19 -0.21 0.21 -5.94 0 0 5.83 5.94 0 0.21 0.21 0 2.19 -0.21 0.21 -8.24 0 -0.21 -0.21 0 -17.4 0.21 -0.21 8.24 0 0.21 0.21 0 2.16 -0.21 0.21 -5.94 0zm29.58 15.03l0 -17.4 0.21 -0.21 2.49 0 0.22 0.21 0 17.4 -0.22 0.21 -2.49 0 -0.21 -0.21zm32.02 -9.96c0.92,0.47 1.69,1.13 2.21,2.03 0.54,0.9 0.75,1.93 0.75,2.97 0,1.47 -0.35,2.9 -1.32,4.04 -0.92,1.08 -2.13,1.57 -3.54,1.57 -1.14,0 -2.17,-0.35 -3.02,-1.13 -0.9,-0.83 -1.38,-1.95 -1.62,-3.13l-0.03 -0.11 0.09 -0.21 1.78 -1.07 0.34 0.15 0.04 0.18c0.14,0.76 0.41,1.61 0.93,2.19 0.4,0.46 0.89,0.68 1.49,0.68 0.7,0 1.3,-0.22 1.77,-0.76 0.5,-0.57 0.68,-1.3 0.68,-2.06 0,-0.64 -0.14,-1.25 -0.49,-1.8 -0.36,-0.57 -0.9,-0.99 -1.49,-1.3l-1.7 -0.89c-0.91,-0.46 -1.7,-1.09 -2.23,-1.97 -0.53,-0.87 -0.74,-1.86 -0.74,-2.87 0,-1.24 0.36,-2.36 1.21,-3.26 0.83,-0.89 1.88,-1.31 3.1,-1.31 0.87,0 1.69,0.22 2.4,0.72 0.73,0.52 1.23,1.26 1.56,2.09l0.05 0.11 -0.06 0.24 -1.62 1.25 -0.33 -0.08 -0.08 -0.16c-0.22,-0.48 -0.54,-1 -0.95,-1.35 -0.32,-0.26 -0.68,-0.4 -1.09,-0.4 -0.52,0 -0.94,0.18 -1.27,0.57 -0.38,0.44 -0.51,0.98 -0.51,1.56 0,0.49 0.11,0.96 0.39,1.37 0.32,0.46 0.82,0.8 1.3,1.06l2 1.08z"/>
  </g>
 </g>
</svg>
