<?xml version="1.0" encoding="UTF-8"?>
<!DOCTYPE svg PUBLIC "-//W3C//DTD SVG 1.0//EN" "http://www.w3.org/TR/2001/REC-SVG-20010904/DTD/svg10.dtd">
<!-- Creator: CorelDRAW 2018 (64 Bit) -->
<svg xmlns="http://www.w3.org/2000/svg" xml:space="preserve" width="210mm" height="78mm" version="1.0" style="shape-rendering:geometricPrecision; text-rendering:geometricPrecision; image-rendering:optimizeQuality; fill-rule:evenodd; clip-rule:evenodd"
viewBox="0 0 2100 780"
 xmlns:xlink="http://www.w3.org/1999/xlink">
 <defs>
  <style type="text/css">
   <![CDATA[
    .fil1 {fill:#494949}
    .fil0 {fill:#6E6E6E}
    .fil2 {fill:white}
   ]]>
  </style>
 </defs>
 <g id="Camada_x0020_1">
  <metadata id="CorelCorpID_0Corel-Layer"/>
  <g id="_2603357227200">
   <path class="fil0" d="M188.723 8.251c-41.19,4.076 -66.727,9.51 -102.974,40.756 -26.362,23.096 -51.076,59.776 -62.609,107.325 -14.828,57.059 -10.709,119.551 4.943,172.534 22.242,76.078 93.913,153.515 133.455,201.064 40.366,47.549 112.036,120.91 156.521,161.666l60.137 58.417c12.357,12.227 9.061,10.868 26.361,9.51 67.551,-4.076 135.102,-44.832 163.935,-149.439 14.828,-52.983 12.357,-120.91 -4.943,-169.818 -23.066,-59.775 -65.903,-101.89 -103.798,-144.005l-246.314 -277.141c-10.71,-12.227 -9.062,-12.227 -24.714,-10.869z"/>
   <path class="fil1" d="M1196.223 453.852l78.261 0 0.824 -239.103c0.824,1.359 0.824,1.359 0.824,1.359l98.855 237.744 78.26 0 0 -440.167c-14.004,-1.358 -60.96,-1.358 -78.26,0l0 241.82 -25.538 -59.775c-15.652,-40.757 -34.599,-84.23 -51.075,-124.986l-18.947 -44.832c-6.591,-14.944 -2.472,-12.227 -12.357,-12.227l-70.847 0 0 440.167z"/>
   <path class="fil1" d="M1509.265 453.852l82.38 1.358 0 -179.327 90.617 0 0 177.969 83.203 1.358 0.824 -441.525 -84.027 0 0 153.515 -90.617 0c0,-20.378 0.824,-145.363 0,-154.873l-82.38 0 0 441.525z"/>
   <path class="fil1" d="M1794.298 453.852l83.203 1.358c2.472,-1.358 6.591,-31.246 7.415,-35.322 2.471,-12.226 4.119,-27.17 6.59,-38.039l94.736 0 13.181 72.003 86.498 1.358 -100.502 -441.525 -90.618 0 -100.503 440.167z"/>
   <path class="fil1" d="M925.195 453.852l226.544 1.358 0 -100.531 -143.341 0 0 -86.947 128.512 0 0 -89.663 -128.512 0 0 -70.644 139.222 0c0,-17.661 0.823,-82.871 -0.824,-95.098l-221.601 0 0 441.525z"/>
   <path class="fil1" d="M718.423 300.337l-78.261 8.151c-1.647,35.322 14.829,91.022 32.128,114.117 19.771,27.171 47.78,36.681 79.908,39.398 32.952,1.359 61.785,-4.076 86.499,-27.171 19.771,-17.661 37.894,-52.983 42.837,-97.814 6.59,-58.418 -8.238,-99.174 -26.361,-123.627 -32.128,-42.115 -87.323,-47.549 -114.508,-65.21 -18.947,-10.869 -16.476,-36.681 -7.414,-50.266 10.709,-13.586 56.842,-25.812 62.608,46.19l78.261 -6.793c-8.238,-112.758 -60.961,-135.853 -121.098,-131.778 -33.776,2.717 -56.842,12.227 -77.437,39.398 -16.476,23.095 -31.304,69.285 -23.066,120.91 6.59,43.473 27.185,65.21 50.252,82.871 42.013,31.246 104.621,27.17 99.679,86.946 -3.295,46.19 -50.252,50.266 -67.551,23.095 -4.943,-8.151 -8.238,-13.585 -10.71,-24.454 -2.471,-9.509 -4.119,-27.17 -5.766,-33.963z"/>
   <path class="fil0" d="M659.109 569.328l1408.689 0 0 -42.115 -1408.689 0 0 42.115z"/>
   <path class="fil1" d="M16.55 759.523l293.271 1.358c-8.238,-12.226 -25.538,-28.529 -35.424,-39.397l-257.023 -277.142 -0.824 315.181z"/>
   <path class="fil1" d="M545.426 2.817l-270.205 0c3.295,6.793 130.984,149.439 135.103,153.515 27.185,31.246 57.665,66.568 84.85,96.456 8.238,9.51 46.133,52.983 51.076,57.059l-0.824 -307.03z"/>
   <path class="fil1" d="M1140.205 631.82c-28.832,5.434 -42.013,33.964 -37.894,86.947 4.119,46.19 24.714,62.492 56.018,57.058 28.009,-5.434 41.19,-36.68 37.071,-86.946 -3.296,-47.549 -25.538,-62.493 -55.195,-57.059z"/>
   <path class="fil1" d="M851.877 773.108l20.595 0 -2.471 -105.966c0.824,1.359 0.824,0 1.647,2.717 3.296,9.51 23.067,101.891 23.067,103.249l22.242 0 23.066 -105.966 -0.823 105.966 18.947 0 0 -139.929c-34.599,0 -27.185,-6.793 -34.599,25.812l-11.534 52.983c-1.647,5.434 -4.942,23.095 -7.414,27.171l-23.066 -105.966 -29.657 0 0 139.929z"/>
   <path class="fil1" d="M1949.995 748.655l0 24.453c14.829,0 58.49,2.717 70.023,-2.717 22.242,-12.227 18.947,-62.493 4.119,-73.361 -9.062,-6.793 -21.419,-5.434 -32.128,-5.434 -10.709,0 -27.185,5.434 -24.714,-19.02 2.471,-25.812 41.19,-8.151 63.432,-14.943l0 -23.096c-8.238,-4.075 -61.784,-1.358 -69.198,2.717 -9.062,5.435 -14.829,14.944 -15.653,33.964 -3.295,82.871 73.318,16.302 69.199,65.21 -1.647,16.302 -18.123,12.227 -28.833,12.227 -12.357,0 -23.89,0 -36.247,0z"/>
   <path class="fil1" d="M1633.658 773.108l0 -24.453c-31.304,0 -55.194,10.868 -55.194,-33.964l55.194 0 0 -24.454 -55.194 0c1.648,-43.473 27.185,-31.246 55.194,-32.604l0 -24.454c-42.013,-1.359 -76.613,-6.793 -77.436,69.285 -1.648,81.513 40.366,72.003 77.436,70.644z"/>
   <path class="fil1" d="M1366.749 773.108l20.595 0 39.542 -138.571 -21.419 -1.358 -28.833 103.249c0,0 0,0 -0.823,-1.359l-13.181 -48.907c-4.943,-17.661 -9.886,-35.322 -14.828,-52.983l-22.243 0 41.19 139.929z"/>
   <path class="fil2" d="M1909.629 285.393l59.314 1.359c-1.648,-10.869 -18.948,-101.891 -22.243,-118.193 -2.471,-12.227 -4.943,-28.529 -7.414,-39.398l-29.657 156.232z"/>
   <path class="fil2" d="M1142.677 656.274c-16.476,4.076 -20.595,25.812 -18.947,57.059 1.647,28.529 12.356,43.473 31.304,38.039 16.476,-4.076 20.595,-28.53 18.947,-58.418 -1.648,-27.17 -12.357,-43.473 -31.304,-36.68z"/>
   <path class="fil1" d="M681.352 773.108l21.419 0 0 -139.929 -20.595 0 -0.824 139.929z"/>
   <path class="fil1" d="M1800.889 773.108l0.823 -138.571 -20.594 -1.358c-1.648,32.605 0,93.739 0,131.778 -0.824,10.868 0,9.51 6.59,8.151 4.943,0 9.062,1.359 13.181,0z"/>
  </g>
 </g>
</svg>
