<?xml version="1.0" encoding="UTF-8"?>
<!DOCTYPE svg PUBLIC "-//W3C//DTD SVG 1.0//EN" "http://www.w3.org/TR/2001/REC-SVG-20010904/DTD/svg10.dtd">
<!-- Creator: CorelDRAW 2018 (64 Bit) -->
<svg xmlns="http://www.w3.org/2000/svg" xml:space="preserve" width="1594px" height="827px" version="1.0" style="shape-rendering:geometricPrecision; text-rendering:geometricPrecision; image-rendering:optimizeQuality; fill-rule:evenodd; clip-rule:evenodd"
viewBox="0 0 1594 826.52"
 xmlns:xlink="http://www.w3.org/1999/xlink">
 <defs>
  <style type="text/css">
   <![CDATA[
    .fil0 {fill:#8F8F8F}
    .fil1 {fill:#8F8F8F;fill-rule:nonzero}
   ]]>
  </style>
 </defs>
 <g id="Layer_x0020_2">
  <metadata id="CorelCorpID_0Corel-Layer"/>
  <g id="_2341721761024">
   <path class="fil0" d="M1211.42 37.44c10.33,0 14.17,4.52 11.18,13.55l-160.67 483.95c-1.98,6.05 -7.14,9.51 -15.34,10.55 -5.74,0.8 -38.63,4.27 -43.51,4.4 -4.87,0.11 -8.7,0.11 -11.36,0.11 -7.68,0 -10.65,-3.09 -8.57,-9.4l143 -430.81c20.74,-62.41 16.83,-72.35 95.4,-72.35l-10.13 0zm-163.62 610.7l10.72 -15.7c0.29,-0.46 0.75,-0.9 1.41,-1.19 0.65,-0.37 1.72,-0.51 3.2,-0.51 0.9,0 1.97,0 3.2,0.01 1.19,0.03 2.53,0.03 3.96,0.1 1.37,0.03 2.79,0.14 4.3,0.18 1.48,0.09 2.78,0.22 3.99,0.34 1.69,0.13 2.55,0.44 2.55,0.95 0,0.16 -0.19,0.39 -0.61,0.7l-23.65 15.63 -9.07 -0.51zm246.13 -94.93c-27.92,0 -52.04,-4.43 -72.23,-13.21 -20.4,-8.67 -36.78,-20.65 -49.19,-35.82 -12.31,-15 -20.18,-32.93 -23.5,-53.54 -3.39,-20.48 -1.85,-42.67 4.62,-66.46 7.12,-26.11 18.76,-49.93 34.98,-71.48 16.08,-21.69 35.41,-40.18 57.63,-55.35 22.45,-15.34 47.39,-27.16 74.82,-35.51 27.64,-8.5 56.53,-12.77 86.87,-12.77 27.94,0 52.28,4.27 73.07,12.77 20.65,8.35 37.28,20.03 49.47,34.75 12.35,14.87 20.34,32.32 23.82,52.51 3.63,20.15 2.33,42 -4,65.38 -7.29,26.71 -19.06,50.98 -35.07,73.12 -16.17,22.01 -35.43,40.82 -58.11,56.44 -22.5,15.46 -47.68,27.62 -75.54,36.25 -27.64,8.49 -56.95,12.92 -87.64,12.92zm34.44 -39.17l0 0c18.26,0 34.22,-3.5 47.86,-10.48 13.6,-6.96 25.36,-15.9 35.04,-26.82 9.73,-11.12 17.72,-23.38 23.99,-36.88 6.12,-13.67 11.15,-27 14.71,-40.06 4.36,-16.07 6.87,-32.93 7.93,-50.69 0.89,-17.75 -1.06,-34.11 -6.12,-49.14 -5.06,-14.88 -13.57,-27.3 -25.74,-37.02 -12.15,-9.83 -29.1,-14.7 -50.99,-14.7 -18.26,0 -34.22,3.49 -47.82,10.46 -13.62,6.97 -25.38,15.93 -35.13,26.99 -9.78,11.24 -17.92,23.54 -24.19,37.01 -6.36,13.4 -11.46,26.87 -15.06,40.22 -4.44,16.24 -6.99,33.23 -7.72,51.14 -0.89,17.75 1.25,33.99 6.35,48.84 5.06,14.87 13.66,27.01 25.86,36.7 12.19,9.57 29.16,14.43 51.03,14.43zm-716.21 39.17c-27.9,0 -51.65,-4.43 -71.04,-13.21 -19.62,-8.67 -34.96,-20.65 -46.03,-35.82 -10.94,-15 -17.25,-32.93 -18.75,-53.54 -1.57,-20.48 1.97,-42.67 10.57,-66.46 9.42,-26.11 23.18,-49.93 41.3,-71.48 18,-21.69 38.97,-40.18 62.54,-55.35 23.82,-15.34 49.81,-27.16 77.98,-35.51 28.38,-8.5 57.67,-12.77 88.04,-12.77 27.9,0 51.89,4.27 71.9,12.77 19.93,8.35 35.51,20.03 46.42,34.75 10.99,14.87 17.48,32.32 19.12,52.51 1.87,20.17 -1.4,42 -9.84,65.38 -9.63,26.71 -23.57,50.98 -41.55,73.12 -18.13,22.01 -39.02,40.82 -63.13,56.44 -23.85,15.46 -50.13,27.62 -78.76,36.25 -28.38,8.49 -58.07,12.92 -88.77,12.92zm37.94 -39.17l0 0c18.29,0 34.53,-3.5 48.75,-10.48 14.26,-6.96 26.79,-15.9 37.45,-26.82 10.75,-11.12 19.81,-23.38 27.28,-36.88 7.32,-13.67 13.53,-27 18.25,-40.06 5.81,-16.07 9.81,-32.93 12.42,-50.66 2.45,-17.75 1.99,-34.14 -1.71,-49.16 -3.79,-14.89 -11.16,-27.28 -22.48,-37 -11.26,-9.86 -27.79,-14.73 -49.66,-14.73 -18.29,0 -34.54,3.49 -48.77,10.46 -14.25,6.97 -26.79,15.93 -37.49,26.99 -10.8,11.24 -20.07,23.54 -27.52,37.01 -7.57,13.4 -13.81,26.91 -18.63,40.22 -5.87,16.24 -9.94,33.23 -12.27,51.14 -2.45,17.75 -1.77,33.99 2.01,48.84 3.77,14.87 11.26,27.01 22.59,36.7 11.38,9.57 27.88,14.43 49.78,14.43zm-183.24 -364.09c1.02,-16.28 -0.54,-30.22 -4.93,-41.89 -4.38,-11.85 -11.04,-21.54 -20.17,-29.15 -8.93,-7.72 -19.97,-13.48 -32.92,-17.11 -12.92,-3.79 -27.57,-5.64 -43.63,-5.64 -15.84,0 -31.49,1.67 -46.89,5.19 -15.4,3.32 -29.63,8.77 -42.85,16.19 -13.08,7.47 -24.41,16.87 -34.1,28.37 -9.86,11.55 -16.9,25.36 -21.28,41.44 -3.88,14.26 -3.22,26.4 1.79,36.57 4.92,10.31 12.87,19.11 23.74,26.69 10.87,7.58 24.04,14.28 39.13,20.34 15.25,5.89 31.05,11.85 47.7,17.75 18.32,6.8 36.49,14.11 54.68,22 18.02,7.89 33.51,17.45 46.34,28.69 12.95,11.21 22.14,24.86 27.85,40.79 5.58,16.1 5.06,35.82 -1.3,59.16 -5.56,20.49 -13.76,38.54 -24.57,54.16 -10.85,15.8 -23.71,29.42 -38.41,41.13 -14.73,11.71 -31.05,21.55 -48.75,29.59 -17.7,8.05 -35.96,14.39 -55.25,19.43 -19.08,4.83 -38.66,8.33 -58.47,10.32 -20.06,2.11 -39.49,3.15 -58.27,3.15 -22.58,0 -44.64,-1.18 -66.43,-3.46 -21.75,-2.44 -43.02,-5.95 -64.08,-10.32 -2.93,-0.61 -5.01,-1.84 -6.38,-3.81 -1.38,-1.8 -1.85,-3.93 -1.66,-5.91 0.99,-6.23 2.81,-15.3 5.37,-27.28 2.77,-12.18 5.39,-24.32 8.26,-36.73 2.86,-12.46 5.59,-23.71 8,-33.84 2.37,-10.05 3.8,-15.94 4.3,-17.77l25.8 -2.28c-2.42,17.78 -1.3,33.24 3.43,46.3 4.74,13.05 12.13,23.8 22.44,32.14 10.45,8.51 23.23,14.74 38.37,18.67 15.26,4.11 32.28,6.07 51.07,6.07 16.89,0 33.72,-1.65 50.55,-5.14 16.58,-3.36 32.2,-8.81 46.49,-16.4 14.47,-7.59 26.95,-17.28 37.58,-29.13 10.62,-11.83 18.16,-26.24 22.76,-43.08 3.82,-13.96 3.23,-25.81 -1.83,-35.65 -5.14,-9.74 -13.11,-18.37 -23.98,-25.95 -11.04,-7.59 -24.03,-14.28 -38.97,-20.2 -15.11,-5.88 -30.7,-11.96 -46.92,-18.18 -18.23,-7.13 -36.3,-14.85 -54.25,-22.89 -17.94,-8.23 -33.36,-18.1 -46.24,-29.58 -12.89,-11.55 -22.04,-25.54 -27.52,-42.06 -5.38,-16.38 -4.84,-36.71 1.69,-60.71 7.88,-28.94 21.05,-53.23 39.3,-72.81 18.26,-19.58 39.61,-35.32 63.85,-47.18 24.25,-11.82 50.35,-20.3 78.61,-25.31 28.06,-5.02 56.18,-7.59 84.11,-7.59 18.43,0 38.23,1.36 59.44,3.79 21.18,2.56 40.79,5.91 58.99,10.01 2.78,0.59 4.86,1.82 6.19,3.79 1.37,1.99 1.87,3.96 1.63,6.07 -1.01,6.2 -2.67,14.89 -4.98,25.91 -2.33,11.11 -4.75,22.47 -7.14,33.87 -2.43,11.39 -4.88,21.7 -7.01,30.79 -2.19,9.27 -3.49,14.72 -3.99,16.54l-26.29 2.14zm627.51 -112.51c10.33,0 14.16,4.52 11.16,13.55l-160.66 483.95c-2,6.05 -7.15,9.51 -15.32,10.55 -5.76,0.8 -21.12,3.23 -27.08,3.59 -6.15,0.4 -11.57,0.68 -16.44,0.81 -4.86,0.11 -8.71,0.11 -11.38,0.11 -7.64,0 -10.64,-3.09 -8.55,-9.4l143.01 -430.81c20.75,-62.41 16.82,-72.35 95.4,-72.35l-10.14 0z"/>
   <path class="fil1" d="M70.14 658.44c2.45,-0.42 4.06,-0.28 4.75,-0.28 3.17,0 4.8,1.36 4.8,4.08l0 142.16c0,2.04 -1.23,3.22 -3.62,3.55 -1.68,0.29 -3.49,0.46 -5.5,0.72 -2.11,0.19 -4.08,0.36 -6.02,0.5 -1.93,0.14 -3.7,0.22 -5.31,0.25 -1.62,0.06 -2.83,0.06 -3.67,0.06 -2.36,0 -3.54,-1.07 -3.54,-3.15l0 -125.49c0,-17.43 -4.7,-18.48 18.11,-22.4zm1124.74 72.46c7.6,-0.43 22.6,-1.37 28.44,-2.78 5.9,-1.44 10.75,-3.52 14.66,-6.29 3.9,-2.76 6.91,-6.24 8.94,-10.46 2.02,-4.26 3.03,-9.35 3.03,-15.31 0,-5 -1.12,-9.33 -3.31,-13.04 -2.19,-3.73 -5.19,-6.81 -9,-9.24 -3.92,-2.39 -8.42,-4.23 -13.72,-5.37 -5.23,-1.22 -10.91,-1.76 -16.94,-1.76 -3.97,0 -6.95,0.26 -8.92,0.84 -2,0.54 -2.95,2.03 -2.95,4.61l0 131.4c0,2.02 -1.23,3.22 -3.59,3.54 -1.69,0.27 -3.51,0.5 -5.53,0.72 -2.08,0.19 -4.06,0.36 -5.99,0.51 -1.94,0.11 -3.73,0.19 -5.32,0.22 -1.64,0.08 -2.85,0.08 -3.66,0.08 -2.39,0 -3.58,-1.03 -3.58,-3.17l0 -127.12c0,-17.61 -5.58,-22.16 44.29,-22.16 4.79,0 9.76,0.17 15.04,0.49 5.21,0.35 10.4,1 15.43,1.92 5.05,0.93 9.88,2.25 14.44,3.9 4.5,1.63 8.51,3.8 11.92,6.43 3.43,2.65 6.2,5.85 8.22,9.62 2.03,3.77 3.06,8.25 3.06,13.39 0,5.48 -1,10.35 -2.97,14.47 -1.91,4.2 -4.57,7.9 -7.99,11.1 -3.42,3.23 -7.43,5.98 -11.99,8.24 -4.53,2.32 -9.42,4.26 -14.69,5.83l0 0.74c2.47,0.47 5.15,1.09 8.06,2 2.84,0.87 5.63,2.16 8.37,3.81 2.71,1.66 5.26,3.72 7.59,6.29 2.28,2.48 4.16,5.65 5.53,9.36l11.01 28.99c1.47,3.97 2.9,7.11 4.12,9.49 3.73,7.46 10.8,15.04 -2.85,17.07 -1.71,0.25 -3.03,0.19 -3.96,0.19 -3.15,0 -5.98,-0.34 -8.47,-0.96 -2.43,-0.62 -4.65,-1.73 -6.64,-3.29 -1.99,-1.57 -3.75,-3.62 -5.26,-6.2 -1.59,-2.61 -2.97,-5.79 -4.27,-9.7l-10.54 -30.9c-1.48,-4.41 -3.27,-7.94 -5.35,-10.53 -2.07,-2.61 -4.7,-4.63 -7.81,-6.01 -3.13,-1.43 -6.89,-2.33 -11.33,-2.82 -4.4,-0.45 -19.06,-0.76 -25.29,-0.94l-0.23 -7.2zm225.76 23.83l-22.9 52.58c-0.36,0.96 -1.26,1.47 -2.66,1.66 -1.77,0.14 -3.81,0.29 -6.09,0.37 -2.3,0.08 -4.87,0.14 -7.7,0.14 -1.58,0 -2.42,-0.45 -2.42,-1.24 0,-0.29 0.07,-0.48 0.15,-0.67l68.1 -139.16c6.78,-11.98 3.17,-11.98 16.62,-12.66 1.69,-0.09 2.9,-0.12 3.69,-0.12 2.01,0 3.44,0.98 4.33,2.93l66.32 145.49c0.3,0.67 0.39,1.1 0.39,1.35 0,1.46 -0.96,2.31 -2.93,2.55 -1.78,0.29 -3.81,0.46 -6.03,0.72 -2.24,0.19 -4.41,0.36 -6.55,0.5 -2.13,0.14 -4.07,0.22 -5.84,0.25 -1.83,0.06 -3.11,0.06 -3.9,0.06 -1.68,0 -2.79,-0.68 -3.4,-1.91l-24.25 -53.74 -64.93 0.9zm4.77 -10.79l0 0 55.75 0 -28.26 -62.87 -27.49 62.87zm-411.64 10.79l-22.87 52.58c-0.4,0.96 -1.27,1.47 -2.71,1.66 -1.78,0.14 -3.8,0.29 -6.1,0.37 -2.26,0.08 -4.87,0.14 -7.69,0.14 -1.59,0 -2.4,-0.45 -2.4,-1.24 0,-0.29 0.04,-0.48 0.16,-0.67l68.09 -139.16c6.78,-11.98 3.18,-11.98 16.62,-12.66 1.71,-0.09 2.89,-0.12 3.71,-0.12 2.01,0 3.42,0.98 4.3,2.93l66.34 145.49c0.27,0.67 0.36,1.1 0.36,1.35 0,1.46 -0.96,2.31 -2.93,2.55 -1.75,0.29 -3.8,0.46 -6.04,0.72 -2.22,0.19 -4.41,0.36 -6.52,0.5 -2.14,0.14 -4.08,0.22 -5.84,0.25 -1.83,0.06 -3.11,0.06 -3.9,0.06 -1.69,0 -2.8,-0.68 -3.41,-1.91l-24.24 -53.74 -64.93 0.9zm4.78 -10.79l0 0 55.73 0 -28.26 -62.87 -27.47 62.87zm327.06 -85.5c2.45,-0.47 4.07,-0.28 4.75,-0.28 3.15,0 4.81,1.36 4.81,4.08l0 142.16c0,2.04 -1.23,3.22 -3.63,3.55 -1.68,0.29 -3.51,0.46 -5.53,0.72 -2.06,0.19 -4.07,0.36 -6,0.5 -1.92,0.14 -3.67,0.22 -5.28,0.25 -1.67,0.06 -2.85,0.06 -3.69,0.06 -2.37,0 -3.52,-1.07 -3.52,-3.15l0 -125.49c0,-17.43 -2.28,-18.68 18.09,-22.4zm-409.1 0c2.45,-0.47 4.03,-0.28 4.78,-0.28 3.12,0 4.74,1.36 4.74,4.08l0 142.16c0,2.04 -1.2,3.22 -3.59,3.55 -1.65,0.29 -3.48,0.46 -5.53,0.72 -2.08,0.19 -4.05,0.36 -5.97,0.5 -1.95,0.14 -3.71,0.22 -5.33,0.25 -1.63,0.06 -2.86,0.06 -3.66,0.06 -2.4,0 -3.57,-1.07 -3.57,-3.15l0 -125.49c0,-17.43 -2.28,-18.68 18.13,-22.4zm-127.17 131.01c0,2.05 0.04,3.59 0.21,4.77 0.13,1.09 0.53,2.02 1.22,2.62 0.59,0.66 1.66,1.04 3.14,1.23 1.5,0.14 3.6,0.25 6.3,0.25l14.66 0c7.95,0 14.39,-0.19 19.41,-0.51 5.03,-0.35 9.22,-1.42 12.67,-3.17 3.51,-1.79 6.55,-4.5 9.25,-8.08 6.65,-9.02 4.47,-16.21 16.34,-13.97 0,0.56 -0.27,2.16 -0.74,4.72 -0.51,2.47 -1.11,5.42 -1.86,8.69 -0.75,3.3 -1.58,6.7 -2.45,10.15 -0.92,3.46 -1.75,6.48 -2.67,9 -1.27,2.9 -3.71,4.33 -7.3,4.33 -7.42,-0.09 -16.63,-0.17 -27.69,-0.26 -11.08,-0.11 -24.37,-0.14 -39.93,-0.14l-24.69 0c-1.36,0 -2.29,-0.31 -2.82,-1.1 -0.44,-0.72 -0.7,-1.43 -0.7,-2.05l0 -123.83c0,-17.42 -1.38,-20.22 18.12,-22.42 2.47,-0.26 4.06,-0.23 4.74,-0.23 3.15,0 4.79,1.33 4.79,4.03l0 125.97zm-84.7 -131.01c2.41,-0.5 4.02,-0.28 4.74,-0.28 3.13,0 4.76,1.36 4.76,4.08l0 142.16c0,2.04 -1.19,3.22 -3.58,3.55 -1.68,0.29 -3.51,0.46 -5.53,0.72 -2.08,0.19 -4.1,0.36 -5.99,0.5 -1.93,0.14 -3.7,0.22 -5.31,0.25 -1.65,0.06 -2.86,0.06 -3.67,0.06 -2.39,0 -3.54,-1.07 -3.54,-3.15l0 -125.49c0,-17.43 -2.17,-18.48 18.12,-22.4zm-125 -1.54c4.75,0 9.72,0.2 14.96,0.5 5.17,0.34 10.28,0.93 15.38,1.85 5,0.86 9.82,2.17 14.39,3.82 4.55,1.64 8.57,3.72 12.13,6.39 3.5,2.62 6.3,5.79 8.3,9.55 2.05,3.77 3.06,8.2 3.06,13.25 0,3.71 -0.78,7.39 -2.23,11.08 -1.46,3.68 -3.73,7.11 -6.65,10.4 -2.89,3.26 -6.51,6.23 -10.78,8.79 -4.33,2.64 -9.31,4.75 -14.98,6.38l0 0.45c1.66,0.27 3.87,0.72 6.68,1.32 2.78,0.69 5.76,1.57 8.83,2.86 3.17,1.16 6.29,2.76 9.44,4.61 3.2,1.85 6.03,4.04 8.57,6.71 2.52,2.58 4.57,5.67 6.14,9.16 1.61,3.51 2.37,7.58 2.37,12.11 0,1.79 -0.25,4.05 -0.71,6.93 -0.5,2.82 -1.59,5.83 -3.2,9 -1.65,3.22 -3.95,6.49 -6.99,9.71 -3.04,3.29 -7.05,6.21 -12.11,8.83 -5.03,2.61 -11.27,4.77 -18.73,6.43 -7.4,1.64 -16.25,2.45 -26.58,2.45 -4.65,0 -8.82,-0.09 -12.42,-0.26 -3.6,-0.19 -7.2,-0.42 -10.71,-0.62 -3.51,-0.25 -7.21,-0.48 -11.03,-0.65 -3.75,-0.16 -8.19,-0.24 -13.26,-0.24 -2.39,0 -3.57,-1.05 -3.57,-3.17l0 -125.47c0,-23.66 -8.13,-22.17 43.7,-22.17zm-16.06 140.02l0 0c1.18,0.26 2.7,0.48 4.53,0.67 1.84,0.26 3.82,0.4 5.87,0.59 2.09,0.17 4.23,0.31 6.46,0.4 2.24,0.06 4.37,0.13 6.34,0.13 7.2,0 13.24,-0.9 18.1,-2.73 4.89,-1.82 8.73,-4.09 11.63,-6.92 2.84,-2.77 4.86,-5.79 6.1,-9.03 1.15,-3.28 1.76,-6.29 1.76,-9.1 0,-6.83 -1.26,-12.47 -3.81,-16.91 -2.54,-4.41 -6.08,-7.92 -10.68,-10.48 -4.62,-2.58 -10.18,-4.35 -16.64,-5.36 -6.49,-0.93 -13.67,-1.46 -21.48,-1.46l-4.14 0c-0.73,0 -1.37,0 -2.04,0 -0.6,0 -1.32,0.03 -2,0.13l0 60.07zm0 -70.32l0 0c0.98,0 1.94,0 2.92,0.05 0.9,0.03 1.8,0.06 2.72,0.06 8.23,0 15.42,-0.55 21.56,-1.63 6.15,-1.14 11.22,-2.83 15.24,-5.19 3.99,-2.39 6.98,-5.45 8.96,-9.21 2,-3.75 3.01,-8.35 3.01,-13.74 0,-5.35 -1.09,-9.89 -3.17,-13.61 -2.05,-3.75 -4.94,-6.88 -8.63,-9.24 -3.75,-2.41 -8.2,-4.21 -13.42,-5.28 -5.19,-1.09 -10.9,-1.65 -17.14,-1.65 -4.26,0 -7.36,0.3 -9.26,0.79 -1.87,0.46 -2.79,1.99 -2.79,4.54l0 54.11zm-147.15 -71.46c12.8,0 24.35,1.68 34.67,5.05 10.28,3.39 19.06,8.29 26.37,14.61 7.3,6.46 12.89,14.26 16.89,23.54 3.95,9.29 5.92,19.83 5.92,31.54 0,12.82 -2.22,24.23 -6.63,34.08 -4.41,9.9 -10.65,18.21 -18.76,24.92 -8.13,6.72 -17.92,11.81 -29.38,15.29 -11.41,3.54 -24.2,5.31 -38.25,5.31 -12.78,0 -24.35,-1.77 -34.71,-5.31 -10.32,-3.48 -19.14,-8.46 -26.47,-14.98 -7.24,-6.49 -12.89,-14.44 -16.77,-23.85 -3.94,-9.32 -5.9,-19.94 -5.9,-31.78 0,-12.75 2.24,-24.04 6.62,-33.82 4.44,-9.83 10.68,-18 18.78,-24.61 8.17,-6.59 17.91,-11.55 29.38,-14.94 11.49,-3.37 24.19,-5.05 38.24,-5.05zm-7.39 10.64l0 0c-9.73,0 -18.06,1.71 -24.97,5.08 -6.95,3.35 -12.62,7.84 -17.03,13.52 -4.41,5.69 -7.67,12.19 -9.76,19.57 -2.07,7.31 -3.08,14.93 -3.08,22.93 0,8.83 1.12,17.58 3.34,26.18 2.24,8.61 5.77,16.32 10.6,23.06 4.89,6.79 11.17,12.23 18.89,16.44 7.74,4.19 17.03,6.27 27.93,6.27 9.7,0 18.07,-1.79 24.95,-5.28 6.95,-3.49 12.65,-8.12 17.06,-13.93 4.41,-5.79 7.66,-12.42 9.74,-19.89 2.09,-7.48 3.09,-15.2 3.09,-23.12 0,-8.89 -1.12,-17.54 -3.35,-26.07 -2.24,-8.46 -5.78,-16.05 -10.59,-22.66 -4.85,-6.6 -11.17,-11.98 -18.88,-16.06 -7.75,-4.02 -17.04,-6.04 -27.94,-6.04zm-155.33 26.23l-55.41 115.3c-0.41,0.96 -1.29,1.47 -2.68,1.66 -1.78,0.14 -3.78,0.29 -6.05,0.37 -2.2,0.08 -4.44,0.14 -6.72,0.14 -1.57,0 -2.69,-0.68 -3.26,-1.91l-52.05 -117.08 -17.08 116.71c-0.2,1.04 -1.07,1.57 -2.69,1.6 -1.8,0.2 -3.97,0.37 -6.59,0.51 -2.66,0.11 -5.38,0.17 -8.22,0.17 -1.43,0 -2.14,-0.48 -2.14,-1.4 0,-0.6 0.06,-1.04 0.15,-1.25l29.01 -134.6c3.9,-17.94 6.33,-15.56 15.31,-16.48 1.67,-0.19 2.92,-0.12 3.72,-0.12 1.09,0 1.94,0.24 2.55,0.74 0.56,0.53 1.12,1.24 1.61,2.19l53.23 119.5 54.5 -106.44c7.08,-12.87 4.87,-14.05 18.21,-15.87 1.63,-0.22 2.84,-0.12 3.62,-0.12 2.48,0 3.9,0.98 4.16,2.93l20.25 145.19c0.08,0.38 0.14,0.62 0.14,0.81 0,0.23 0,0.45 0,0.59 0,1.61 -0.96,2.56 -2.84,2.8 -1.66,0.29 -3.57,0.46 -5.78,0.72 -2.17,0.19 -4.31,0.36 -6.4,0.5 -2.08,0.14 -4,0.22 -5.71,0.25 -1.74,0.06 -3.01,0.06 -3.82,0.06 -0.84,0 -1.63,-0.14 -2.23,-0.45 -0.56,-0.26 -0.9,-0.76 -1.01,-1.46l-15.78 -115.56z"/>
  </g>
 </g>
</svg>
