<?xml version="1.0" encoding="UTF-8"?>
<!DOCTYPE svg PUBLIC "-//W3C//DTD SVG 1.0//EN" "http://www.w3.org/TR/2001/REC-SVG-20010904/DTD/svg10.dtd">
<!-- Creator: CorelDRAW 2018 (64 Bit) -->
<svg xmlns="http://www.w3.org/2000/svg" xml:space="preserve" width="3508px" height="2480px" version="1.0" style="shape-rendering:geometricPrecision; text-rendering:geometricPrecision; image-rendering:optimizeQuality; fill-rule:evenodd; clip-rule:evenodd"
viewBox="0 0 3508 2480.4"
 xmlns:xlink="http://www.w3.org/1999/xlink">
 <defs>
  <style type="text/css">
   <![CDATA[
    .fil3 {fill:#FEFEFE}
    .fil2 {fill:#8E8E8E}
    .fil1 {fill:#343434}
    .fil5 {fill:#FEFEFE;fill-rule:nonzero}
    .fil0 {fill:#343434;fill-rule:nonzero}
    .fil4 {fill:url(#id2);fill-rule:nonzero}
   ]]>
  </style>
     <mask id="id0">
  <linearGradient id="id1" gradientUnits="userSpaceOnUse" x1="1732.9" y1="1795.88" x2="1735.74" y2="1576.16">
   <stop offset="0" style="stop-opacity:1; stop-color:white"/>
   <stop offset="1" style="stop-opacity:0; stop-color:white"/>
  </linearGradient>
      <rect style="fill:url(#id1)" x="328.41" y="1154.98" width="2861.76" height="549.2"/>
     </mask>
  <linearGradient id="id2" gradientUnits="userSpaceOnUse" x1="1611.06" y1="1659.29" x2="1611.06" y2="1943.52">
   <stop offset="0" style="stop-opacity:1; stop-color:#8E8E8E"/>
   <stop offset="0.658824" style="stop-opacity:1; stop-color:#818182"/>
   <stop offset="1" style="stop-opacity:1; stop-color:#747475"/>
  </linearGradient>
 </defs>
 <g id="Layer_x0020_1">
  <metadata id="CorelCorpID_0Corel-Layer"/>
  <g id="_2341420949696">
   <g>
    <path class="fil0" d="M2183.54 1490.48c-5.47,-3.41 -10.88,-5.56 -16.27,-6.49 -10.03,-1.71 -19.91,-2.57 -29.64,-2.57 -20.04,0 -38.66,3.58 -55.83,10.73 -12.86,5.35 -24.33,12.23 -34.46,20.63 -11.91,12.42 -21.41,27.04 -28.4,43.83 -7.15,17.18 -10.74,35.79 -10.74,55.82l0 320.41 -10.58 9.84 -140.86 0 0 -462.94 -69.1 0c7.21,11.87 13.69,24.33 19.49,37.35 16.32,36.66 24.47,75.02 24.47,115.11 0,40.09 -8.15,78.3 -24.47,114.68 -16.33,36.35 -38.23,68.28 -65.71,95.76 -4.4,4.4 -8.87,8.62 -13.5,12.73 -26.83,26.13 -57.93,47.08 -93.3,62.83 -36.65,16.33 -75.01,24.48 -115.09,24.48 -45.24,0 -86.33,-8.15 -123.27,-24.48 -36.93,-16.32 -68.58,-38.23 -94.92,-65.71 -10.55,-11.01 -20.11,-22.75 -28.73,-35.2l0 115.55 -10.59 9.84 -120.25 0c-34.92,0 -69.29,-8.01 -103.08,-24.05 -33.79,-16.03 -63.85,-37.23 -90.19,-63.57 -26.33,-26.33 -47.53,-56.26 -63.56,-89.76 -16.04,-33.5 -24.06,-67.7 -24.06,-102.63l0 -359.06 -112.68 0 86.37 -138.33 10.59 -9.85 167.18 0 0 175.82 260.27 0 0 134.72c8.62,-12.48 18.18,-24.22 28.73,-35.24 5.46,-5.7 11.18,-11.2 17.1,-16.42 25,-24.44 54.45,-44.13 88.4,-59.14 36.95,-16.31 78.04,-24.47 123.28,-24.47 40.08,0 78.44,8.16 115.09,24.47 36.66,16.32 68.73,38.23 96.21,65.71 13.91,13.91 26.39,28.99 37.45,45.24l78.28 -124.72 10.58 -9.84 -0.41 0 80.74 0 60.12 0 0 40.37c9.74,-5.16 20.63,-10.16 32.65,-15.03 12.03,-4.88 24.33,-9.16 36.93,-12.89 12.61,-3.72 24.91,-6.72 36.94,-9.01 23.7,-4.53 55.85,-7.3 79.41,-3.16l0 148.79 -10.59 9.85zm-1171.18 -10.73l0 173.07c0,20.6 4.58,39.5 13.75,56.69 9.15,17.17 20.61,31.79 34.36,43.81 13.72,12.02 28.77,21.47 45.09,28.34 16.31,6.87 31.93,10.3 46.82,10.3l104.56 0c-6.2,-11.24 -11.74,-22.97 -16.57,-35.23 -14.31,-36.38 -21.47,-74.59 -21.47,-114.69 0,-40.09 7.16,-78.44 21.47,-115.1 6.37,-16.32 13.99,-31.79 22.78,-46.32 0.13,-0.21 0.38,-0.63 0.51,-0.86l-1.62 -0.01 -249.68 0zm403.95 37.12c-1.3,1.34 -2.61,2.7 -3.87,4.09 -13.73,15.18 -24.32,32.36 -31.77,51.53 -7.45,19.19 -11.17,39.1 -11.17,59.71 0,20.04 3.72,39.8 11.17,59.27 7.45,19.47 18.04,36.64 31.77,51.54 13.75,14.88 30.5,26.9 50.26,36.08 19.75,9.16 42.23,13.73 67.44,13.73 20.61,0 40.5,-4.57 59.69,-13.73 15.45,-7.39 29.62,-16.66 42.47,-27.76 14.48,-14.54 26.12,-31.21 34.98,-50.02 9.17,-19.47 13.75,-39.22 13.75,-59.27 0,-20.61 -4.58,-40.51 -13.75,-59.7 -9.16,-19.18 -21.32,-36.35 -36.5,-51.54 -15.19,-15.18 -32.35,-27.34 -51.54,-36.49 -19.19,-9.17 -39.08,-13.75 -59.69,-13.75 -25.21,0 -47.68,4.58 -67.44,13.75 -13.31,6.17 -25.22,13.66 -35.8,22.56zm956.6 -37.12l0 173.07c0,20.61 4.58,39.5 13.74,56.69 9.17,17.17 20.62,31.78 34.36,43.81 13.74,12.02 28.78,21.47 45.1,28.34 16.32,6.87 31.92,10.3 46.81,10.3l103.37 0c-2.84,-5.17 -5.51,-10.37 -8.05,-15.68 -2.95,-5.83 -5.77,-11.75 -8.4,-17.84 -15.79,-36.4 -23.63,-75.45 -23.63,-117.28 0.01,-41.78 7.85,-80.87 23.62,-117.23 6.65,-15.38 14.36,-30.01 23.07,-43.77 0.06,-0.09 0.27,-0.26 0.33,-0.36l-0.64 -0.05 -249.68 0zm260.26 339.42l0 113.67 -10.58 9.84 -120.25 0c-34.94,0 -69.3,-8.01 -103.08,-24.05 -33.78,-16.03 -63.86,-37.22 -90.19,-63.57 -26.33,-26.33 -47.53,-56.26 -63.56,-89.76 -16.04,-33.5 -24.05,-67.7 -24.05,-102.63l0 -359.06 -112.7 0 86.38 -138.33 10.59 -9.85 167.18 0 0 175.9 260.26 0 0 133.66c9.35,-12.92 19.72,-25.04 31.06,-36.38 4.41,-4.4 8.89,-8.7 13.55,-12.8 26.55,-25.87 57.35,-46.31 92.45,-61.48 36.3,-15.76 75.36,-23.63 117.17,-23.62 30.95,-0.02 60.42,4.42 88.48,13.29 28.12,8.92 54,21.34 77.76,37.37 23.8,16.05 44.92,35.08 63.56,57.07 15.38,18.24 28.37,38 38.8,59.1 23.83,47.6 35.42,108.68 33.52,160.4 0.09,1.05 0.14,2.05 0.14,3.08 -1.07,11.68 -1.66,22.07 -3.8,32.03l-0.12 0.64 0 0.01 -0.29 1.61 -0.11 0c-0.68,2.83 -1.46,5.63 -2.48,8.42l-10.59 9.85 -423.13 0c6.82,11.53 14.99,22.08 24.46,31.57 14.61,14.62 31.69,26.03 51.14,34.38 19.44,8.29 40.3,12.43 62.67,12.47 33.79,-0.04 64.02,-9.52 90.62,-28.39 3.71,-2.58 7.35,-5.38 10.75,-8.18l177.88 0c-14.68,35.04 -36.41,67.53 -64.77,95.6 -3.8,3.75 -7.7,7.36 -11.68,10.88 -19.53,19.1 -41.53,35.21 -66.12,48.4l-0.24 0.13 -1.18 0.65c-25.79,14.31 -54.13,24.92 -84.3,31.11 -32.88,6.75 -66.51,7.65 -101,2.8 -34.43,-4.85 -67.8,-15.95 -100.07,-33.27 -36.82,-19.86 -67.51,-45.3 -92.11,-76.35 -4.2,-5.31 -8.21,-10.73 -12.02,-16.21zm-1919.58 -525.67l-10.59 9.84 -156.53 0 -0.02 0 0 -0.27c-20.85,0 -40.22,7.45 -55.73,19.84 -14.9,16.22 -24.07,37.56 -24.07,60.7l0.27 0 0 0.02 0 0 0 0.01 -0.27 0c0,24.54 10.27,47.06 26.8,63.61 16.53,16.53 39.06,26.79 63.58,26.79l0 -0.27 0.02 0 51 0 0.01 0.27c62.99,0 120.04,25.56 161.2,66.71 40.38,40.38 62.45,92.08 66.24,144.82 4.56,63.66 -17.52,128.87 -66.25,177.6 -3.64,3.64 -7.39,7.13 -11.28,10.53 -41.09,40.75 -97.84,66.01 -160.48,66.01l15.17 0.27 -15.2 0 -277.96 0 0 -138.04 10.59 -9.85 277.96 0 0.02 0 0 0.27c20.79,-0.01 40.18,-7.42 55.65,-19.72 14.98,-16.24 24.15,-37.64 24.15,-60.82l-0.27 0 0 -0.02 0 0 0 -0.02 0.27 0c0,-24.52 -10.27,-47.05 -26.8,-63.58 -16.54,-16.53 -39.07,-26.8 -63.6,-26.8l0 0.27 -0.01 0 -50.99 0 -0.03 0 0 -0.27c-62.99,-0.01 -120.03,-25.56 -161.18,-66.71 -41.16,-41.15 -66.71,-98.19 -66.71,-161.2l-0.27 0 0 -0.01 0 0 0 -0.02 0.27 0c0.01,-62.99 25.55,-120.03 66.7,-161.18 3.5,-3.5 7.15,-6.85 10.87,-10.12 41.13,-41 98.06,-66.43 160.92,-66.43l242.74 -0.27 -86.19 138.04zm2061.84 230.71c-10.36,10.65 -19.22,22.96 -26.68,36.78 -0.74,1.36 -1.41,2.81 -2.1,4.18l270.89 0c-4.88,-8.44 -10.92,-16.45 -16.67,-23.27 -12.48,-14.88 -27.54,-27.01 -45.27,-36.53 -19.62,-10.58 -39.97,-16.78 -61.09,-18.71 -21.04,-1.9 -41.52,0.14 -61.3,6.07 -19.74,5.96 -37.88,15.62 -54.45,28.77l-3.33 2.71z"/>
    <path class="fil1" d="M1912.75 1118.31c213.11,0 180.94,0 458.88,0l-0.07 -40.69c-163.17,0 0.84,0.01 -162.33,0l0 -325.6 -155.38 -103.95 -124.13 83.01 0 -448.7 -440.46 -134.88 0 436.37 -183.9 0 0 160 -298.68 0 0 333.75 -162.51 0 0 40.69 1029.04 0 39.54 0zm-606.77 -40.69l-257.99 0 0 -294.21 257.99 0 0 294.21zm292.6 -453.05l0 222.69 -158.16 51.28 0 179.08 -94.35 0 0 -453.05 252.51 0zm291.59 453.05l-88.09 0 0 -179.08 -162.81 -51.28 0 -263.4 -109.31 0 0 -377.07 360.21 103.51 0 767.32z"/>
    <path class="fil2" d="M1481.74 912.01l139.33 -52.21 142.09 54.17 0 163.65 -281.42 0 0 -165.61z"/>
    <path class="fil2" d="M1929.59 776.44l124.03 -82.57 120.54 82.57 0 301.18 -244.57 0 0 -301.18z"/>
    <path class="fil1" d="M1455.41 674.07l-59.3 0 0 60.47 59.3 0 0 -60.47z"/>
    <path class="fil1" d="M1455.41 771.76l-59.3 0 0 58.14 59.3 0 0 -58.14z"/>
    <path class="fil1" d="M1546.12 674.07l-59.31 0 0 60.47 59.31 0 0 -60.47z"/>
    <path class="fil1" d="M1742.64 468.85l75.75 0 0 75.75 -75.75 0 0 -75.75z"/>
    <path class="fil1" d="M1597.07 468.85l75.75 0 0 75.75 -75.75 0 0 -75.75z"/>
    <path class="fil1" d="M1197.99 832.33l59.31 0 0 59.31 -59.31 0 0 -59.31z"/>
    <path class="fil1" d="M1095.66 832.33l59.3 0 0 59.31 -59.3 0 0 -59.31z"/>
    <path class="fil1" d="M1095.66 928.85l59.3 0 0 59.31 -59.3 0 0 -59.31z"/>
    <path class="fil1" d="M1742.64 601.05l75.75 0 0 75.75 -75.75 0 0 -75.75z"/>
    <path class="fil1" d="M1441.04 898.54l180.83 -70.68 0 40.7 -180.83 70.68 0 -40.7z"/>
    <path class="fil1" d="M1802.7 898.54l-180.83 -70.68 0 40.7 180.83 70.68 0 -40.7z"/>
    <path class="fil1" d="M1785.36 891.73l81.3 32.34 -81.3 0 0 -32.34zm-331.81 32.34l-78.01 0 78.01 -31.03 0 31.03z"/>
    <path class="fil3" d="M1523.1 1077.62l58.79 0 0 -114.69 -58.79 0 0 114.69z"/>
    <path class="fil3" d="M1637.95 999.22l68.36 0 0 -47.25 -68.36 0 0 47.25z"/>
    <path class="fil3" d="M2074.55 905.8l59.31 0 0 59.31 -59.31 0 0 -59.31z"/>
    <path class="fil3" d="M1969.89 905.8l59.31 0 0 59.31 -59.31 0 0 -59.31z"/>
    <path class="fil3" d="M2074.55 815.96l59.31 0 0 59.31 -59.31 0 0 -59.31z"/>
    <path class="fil3" d="M1969.89 815.96l59.31 0 0 59.31 -59.31 0 0 -59.31z"/>
    <path class="fil1" d="M1742.64 336.78l75.75 0 0 75.76 -75.75 0 0 -75.76z"/>
    <path class="fil1" d="M1597.07 336.78l75.75 0 0 75.76 -75.75 0 0 -75.76z"/>
    <path class="fil4" d="M2194.13 1331.84l0 148.79c-5.48,-3.41 -10.88,-5.56 -16.28,-6.49 -10.02,-1.71 -19.9,-2.57 -29.63,-2.57 -20.05,0 -38.66,3.59 -55.84,10.73 -17.18,7.17 -31.91,17.04 -44.24,29.65 -12.3,12.59 -22.04,27.48 -29.2,44.66 -7.15,17.18 -10.74,35.79 -10.74,55.82l0 320.41 -140.86 0 0 -462.95 -86.41 0 86.82 -138.33 -0.41 0 80.74 0 60.12 0 0 40.37c9.74,-5.16 20.63,-10.16 32.65,-15.03 12.03,-4.88 24.33,-9.16 36.93,-12.89 12.61,-3.72 24.91,-6.72 36.94,-9.01 23.7,-4.53 55.85,-7.3 79.41,-3.16zm-1181.77 138.06l0 182.92c0,20.6 4.58,39.5 13.75,56.69 9.15,17.17 20.61,31.79 34.36,43.81 13.72,12.02 28.77,21.47 45.09,28.34 16.31,6.87 31.93,10.3 46.82,10.3l120.25 0 0 140.88 -120.25 0c-34.92,0 -69.29,-8.02 -103.09,-24.05 -33.78,-16.03 -63.85,-37.24 -90.18,-63.57 -26.33,-26.33 -47.53,-56.26 -63.57,-89.76 -16.04,-33.5 -24.05,-67.71 -24.05,-102.64l0 -359.05 -112.69 0 86.38 -138.34 167.18 0 0 175.82 260.27 0 0 138.65 -260.27 0zm679.26 162.3c0,-20.61 -4.59,-40.52 -13.75,-59.71 -9.17,-19.17 -21.33,-36.35 -36.51,-51.53 -15.18,-15.18 -32.35,-27.34 -51.53,-36.5 -19.19,-9.16 -39.08,-13.75 -59.69,-13.75 -25.21,0 -47.69,4.59 -67.44,13.75 -19.76,9.16 -36.51,21.32 -50.26,36.5 -13.73,15.18 -24.32,32.36 -31.77,51.53 -7.45,19.19 -11.17,39.1 -11.17,59.71 0,20.04 3.72,39.8 11.17,59.27 7.45,19.47 18.04,36.64 31.77,51.54 13.75,14.88 30.5,26.9 50.26,36.08 19.75,9.16 42.23,13.73 67.44,13.73 20.61,0 40.5,-4.57 59.69,-13.73 19.18,-9.18 36.35,-21.2 51.53,-36.08 15.18,-14.9 27.34,-32.07 36.51,-51.54 9.16,-19.47 13.75,-39.23 13.75,-59.27zm140 0c0,40.09 -8.15,78.3 -24.47,114.68 -16.33,36.35 -38.23,68.28 -65.71,95.76 -27.48,27.49 -59.55,49.39 -96.21,65.71 -36.65,16.33 -75.01,24.49 -115.09,24.49 -45.24,0 -86.33,-8.16 -123.28,-24.49 -36.93,-16.32 -68.57,-38.22 -94.92,-65.71 -26.33,-27.48 -46.67,-59.41 -60.98,-95.76 -14.31,-36.38 -21.48,-74.59 -21.48,-114.68 0,-40.09 7.17,-78.45 21.48,-115.11 14.31,-36.65 34.65,-68.71 60.98,-96.21 26.35,-27.48 57.99,-49.39 94.92,-65.71 36.95,-16.31 78.04,-24.47 123.28,-24.47 40.08,0 78.44,8.16 115.09,24.47 36.66,16.32 68.73,38.23 96.21,65.71 27.48,27.5 49.38,59.56 65.71,96.21 16.32,36.66 24.47,75.02 24.47,115.11zm541.29 -162.3l0 182.92c0,20.61 4.58,39.5 13.74,56.69 9.17,17.17 20.62,31.78 34.36,43.81 13.74,12.02 28.78,21.47 45.1,28.34 16.32,6.87 31.92,10.3 46.81,10.3l120.25 0 0 140.88 -120.25 0c-34.93,0 -69.29,-8.02 -103.07,-24.05 -33.78,-16.03 -63.86,-37.23 -90.2,-63.57 -26.33,-26.33 -47.52,-56.26 -63.55,-89.76 -16.04,-33.5 -24.05,-67.71 -24.05,-102.64l0 -359.05 -112.7 0 86.38 -138.34 167.18 0 0 175.9 260.26 0 0 138.57 -260.26 0zm-1659.32 -176.4l-156.54 0 -0.01 0 0 -0.27c-24.53,0 -47.06,10.27 -63.6,26.8 -16.52,16.53 -26.79,39.06 -26.79,63.58l0.27 0 0 0.02 0 0 0 0.01 -0.27 0c0,24.54 10.27,47.06 26.8,63.61 16.53,16.53 39.06,26.79 63.58,26.79l0 -0.27 0.02 0 51 0 0.01 0.27c62.99,0 120.04,25.56 161.2,66.71 40.38,40.38 62.45,92.08 66.24,144.82 4.56,63.66 -17.52,128.87 -66.25,177.6 -41.15,41.15 -98.18,66.7 -161.18,66.7l15.17 0.27 -15.19 0 -277.96 0 0 -138.05 277.96 0 0.02 0 0 0.27c24.53,-0.01 47.05,-10.27 63.58,-26.8 16.54,-16.53 26.8,-39.07 26.8,-63.59l-0.26 0 0 -0.01 0 0 0 -0.03 0.26 0c0,-24.52 -10.26,-47.04 -26.8,-63.58 -16.53,-16.53 -39.07,-26.8 -63.59,-26.8l0 0.27 -0.01 0 -51 0 -0.02 0 0 -0.27c-62.99,-0.01 -120.03,-25.55 -161.18,-66.7 -41.16,-41.15 -66.72,-98.2 -66.72,-161.21l-0.27 0 0 -0.01 0 0 0 -0.02 0.27 0c0.02,-62.98 25.56,-120.03 66.71,-161.18 41.15,-41.16 98.2,-66.7 161.2,-66.7l242.74 -0.27 -86.19 138.04zm2321.09 606.97l-0.25 0.13 -1.17 0.64c-25.79,14.31 -54.14,24.92 -84.3,31.12 -32.89,6.74 -66.52,7.65 -101,2.79 -34.43,-4.85 -67.8,-15.94 -100.07,-33.26 -36.82,-19.87 -67.52,-45.31 -92.11,-76.36 -14.76,-18.64 -27.05,-38.36 -36.95,-59.1 -2.95,-5.83 -5.77,-11.75 -8.4,-17.83 -15.8,-36.41 -23.63,-75.45 -23.63,-117.28 0.01,-41.79 7.85,-80.88 23.61,-117.24 15.73,-36.32 37.22,-68.11 64.41,-95.31 27.22,-27.25 59,-48.7 95.41,-64.44 36.3,-15.76 75.36,-23.63 117.17,-23.62 30.95,-0.02 60.42,4.42 88.48,13.29 28.12,8.92 54,21.34 77.76,37.37 23.8,16.05 44.92,35.08 63.56,57.07 15.38,18.24 28.37,38 38.8,59.1 23.83,47.6 35.42,108.68 33.52,160.4 0.09,1.05 0.14,2.05 0.14,3.08 -1.07,11.68 -1.66,22.07 -3.8,32.03l-0.12 0.64 0 0.01 -0.29 1.61 -0.11 0c-0.68,2.83 -1.46,5.63 -2.48,8.42l-439.1 0c7.8,15.48 17.73,29.28 29.84,41.42 14.61,14.62 31.69,26.03 51.14,34.38 19.44,8.29 40.3,12.43 62.67,12.47 33.79,-0.04 64.02,-9.52 90.62,-28.39 3.71,-2.58 7.35,-5.38 10.75,-8.18l177.88 0c-14.68,35.04 -36.41,67.53 -64.77,95.6 -19.79,19.57 -42.17,35.99 -67.21,49.44zm-1.56 -335.3c-5.17,-11.97 -13.73,-23.7 -21.66,-33.12 -12.48,-14.88 -27.54,-27 -45.27,-36.53 -19.63,-10.58 -39.98,-16.78 -61.09,-18.71 -21.05,-1.9 -41.53,0.14 -61.3,6.08 -19.74,5.95 -37.89,15.61 -54.45,28.76 -16.49,13.16 -30,29.69 -40.6,49.34 -0.74,1.36 -1.41,2.81 -2.1,4.18l286.47 0z"/>
    <path class="fil5" style="mask:url(#id0)" d="M2194.13 1331.84l0 148.79c-5.48,-3.41 -10.88,-5.56 -16.28,-6.49 -10.02,-1.71 -19.9,-2.57 -29.63,-2.57 -20.05,0 -38.66,3.59 -55.84,10.73 -17.18,7.17 -31.91,17.04 -44.24,29.65 -12.3,12.59 -22.04,27.48 -29.2,44.66 -7.15,17.18 -10.74,35.79 -10.74,55.82l0 14.63c-46.95,-1.31 -93.9,-2.22 -140.86,-2.79l0 -154.38 -86.41 0 86.82 -138.33 -0.41 0 80.74 0 60.12 0 0 40.37c9.74,-5.16 20.63,-10.16 32.65,-15.03 12.03,-4.88 24.33,-9.16 36.93,-12.89 12.61,-3.72 24.91,-6.72 36.94,-9.01 23.7,-4.53 55.85,-7.3 79.41,-3.16zm895.79 371.89c-135.04,-23.09 -375.22,-44.5 -502.16,-47.36 -1.01,-10.2 -0.96,-14.51 -0.96,-25.05 0,-41.79 7.85,-80.88 23.61,-117.24 15.73,-36.32 37.22,-68.11 64.41,-95.31 27.22,-27.25 59,-48.7 95.41,-64.44 36.3,-15.76 75.36,-23.63 117.17,-23.62 30.95,-0.02 60.42,4.42 88.48,13.29 28.12,8.92 54,21.34 77.76,37.37 23.8,16.05 44.92,35.08 63.56,57.07 15.38,18.24 28.37,38 38.8,59.1 23.83,47.6 35.42,108.68 33.52,160.4 0.09,1.05 0.14,2.05 0.14,3.08 -1.07,11.68 -1.66,22.07 -3.8,32.03l-0.12 0.64 0 0.01 -0.29 1.61 -0.11 0c-0.68,2.83 -1.46,5.63 -2.48,8.42l-92.94 0zm-717.53 -64.93c-46.95,-3.25 -93.91,-6.12 -140.86,-8.64l0.52 -336.39 -112.7 0 86.38 -138.34 167.18 0 0 175.9 260.26 0 0 138.57 -260.26 0 -0.52 168.9zm-540.86 -14.89c-46.72,-0.37 -93.43,-0.39 -140.15,-0.03 -1.07,-17.66 -5.58,-34.78 -13.51,-51.39 -9.17,-19.17 -21.33,-36.35 -36.51,-51.53 -15.18,-15.18 -32.35,-27.34 -51.53,-36.5 -19.19,-9.16 -39.08,-13.75 -59.69,-13.75 -25.21,0 -47.69,4.59 -67.44,13.75 -19.76,9.16 -36.51,21.32 -50.26,36.5 -13.73,15.18 -24.32,32.36 -31.77,51.53 -7.45,19.19 -11.17,39.1 -11.17,59.71 -46.64,2.04 -93.29,4.47 -139.92,7.26l-0.1 -7.26c0,-40.09 7.17,-78.45 21.48,-115.11 14.31,-36.65 34.65,-68.71 60.98,-96.21 26.35,-27.48 57.99,-49.39 94.92,-65.71 36.95,-16.31 78.04,-24.47 123.28,-24.47 40.08,0 78.44,8.16 115.09,24.47 36.66,16.32 68.73,38.23 96.21,65.71 27.48,27.5 49.38,59.56 65.71,96.21 15.19,34.14 23.33,69.72 24.38,106.82zm-819.13 31.19c-46.79,3.95 -93.58,8.28 -140.37,12.97 -0.34,-5.09 -0.54,-10.14 -0.54,-15.25l0 -359.05 -112.69 0 86.38 -138.34 167.18 0 0 175.82 260.27 0 0 138.65 -260.27 0 0 182.92 0.04 2.28zm-178.26 16.85c-45.63,4.77 -91.27,9.9 -136.89,15.37 -3.19,-18.8 -12.4,-35.77 -25.6,-48.97 -16.53,-16.53 -39.07,-26.8 -63.59,-26.8l0 0.27 -0.01 0 -51 0 -0.02 0 0 -0.27c-62.99,-0.01 -120.03,-25.55 -161.18,-66.7 -41.16,-41.15 -66.72,-98.2 -66.72,-161.21l-0.27 0 0 -0.01 0 0 0 -0.02 0.27 0c0.02,-62.98 25.56,-120.03 66.71,-161.18 41.15,-41.16 98.2,-66.7 161.2,-66.7l242.74 -0.27 -86.19 138.04 -156.54 0 -0.01 0 0 -0.27c-24.53,0 -47.06,10.27 -63.6,26.8 -16.52,16.53 -26.79,39.06 -26.79,63.58l0.27 0 0 0.02 0 0 0 0.01 -0.27 0c0,24.54 10.27,47.06 26.8,63.61 16.53,16.53 39.06,26.79 63.58,26.79l0 -0.27 0.02 0 51 0 0.01 0.27c62.99,0 120.04,25.56 161.2,66.71 36.9,36.9 58.54,83.23 64.88,131.2zm2198.98 -106.78c-5.17,-11.97 -13.73,-23.7 -21.66,-33.12 -12.48,-14.88 -27.54,-27 -45.27,-36.53 -19.63,-10.58 -39.98,-16.78 -61.09,-18.71 -21.05,-1.9 -41.53,0.14 -61.3,6.08 -19.74,5.95 -37.89,15.61 -54.45,28.76 -16.49,13.16 -30,29.69 -40.6,49.34 -0.74,1.36 -1.41,2.81 -2.1,4.18l286.47 0z"/>
   </g>
   <g>
    <path class="fil0" d="M494.55 2267.59c0,2 -0.33,3.69 -1.05,5.12 -0.71,1.38 -1.59,2.5 -2.75,3.42 -1.1,0.93 -2.37,1.54 -3.8,1.95 -1.38,0.41 -2.76,0.61 -4.19,0.61l-8.87 0c-2.81,0 -5.24,-0.3 -7.33,-0.82 -2.09,-0.56 -4.08,-1.58 -6.01,-3.01 -1.87,-1.44 -3.74,-3.43 -5.62,-5.94 -1.87,-2.45 -3.96,-5.67 -6.22,-9.56l-65.85 -110.26c-3.47,-5.73 -6.94,-11.66 -10.41,-17.9 -3.52,-6.29 -6.78,-12.33 -9.75,-18.21l-0.33 0c0.22,7.16 0.38,14.53 0.49,21.99 0.05,7.52 0.11,14.94 0.11,22.35l0 117.02c0,0.66 -0.17,1.37 -0.6,1.99 -0.44,0.66 -1.16,1.17 -2.21,1.53 -0.99,0.36 -2.37,0.62 -4.02,0.87 -1.65,0.26 -3.8,0.41 -6.39,0.41 -2.59,0 -4.69,-0.15 -6.39,-0.41 -1.66,-0.25 -2.98,-0.51 -3.91,-0.87 -1,-0.36 -1.71,-0.87 -2.1,-1.53 -0.44,-0.62 -0.66,-1.33 -0.66,-1.99l0 -178.9c0,-3.99 1.15,-6.85 3.53,-8.54 2.37,-1.69 4.96,-2.56 7.76,-2.56l13.23 0c3.14,0 5.73,0.26 7.83,0.77 2.09,0.46 4.01,1.33 5.67,2.45 1.65,1.13 3.25,2.77 4.85,4.81 1.54,2.05 3.25,4.6 5.07,7.73l50.69 85.1c3.14,5.16 6.12,10.22 9.04,15.18 2.91,4.97 5.73,9.82 8.37,14.63 2.7,4.76 5.4,9.51 7.99,14.17 2.65,4.6 5.29,9.3 7.82,13.96l0.17 0c-0.22,-7.88 -0.33,-16.06 -0.38,-24.6 -0.06,-8.54 -0.06,-16.77 -0.06,-24.65l0 -105.2c0,-0.71 0.22,-1.33 0.6,-1.94 0.45,-0.62 1.16,-1.13 2.21,-1.59 0.99,-0.46 2.37,-0.76 4.02,-0.97 1.65,-0.21 3.86,-0.31 6.56,-0.31 2.37,0 4.41,0.1 6.12,0.31 1.7,0.21 3.08,0.51 4.01,0.97 1,0.46 1.71,0.97 2.1,1.59 0.44,0.61 0.66,1.23 0.66,1.94l0 178.89zm176.43 -66.38c0,3.89 -1.04,6.7 -3.14,8.34 -2.09,1.64 -4.46,2.45 -7.17,2.45l-95.26 0c0,7.52 0.83,14.22 2.42,20.26 1.6,5.98 4.3,11.09 8.1,15.39 3.75,4.29 8.66,7.62 14.66,9.92 6.06,2.3 13.39,3.43 22.15,3.43 6.89,0 13,-0.52 18.4,-1.59 5.35,-1.02 10.03,-2.2 13.95,-3.53 3.9,-1.28 7.16,-2.45 9.69,-3.47 2.54,-1.08 4.41,-1.59 5.73,-1.59 0.72,0 1.44,0.15 1.98,0.51 0.61,0.36 1.05,0.87 1.38,1.59 0.33,0.71 0.61,1.68 0.77,2.91 0.12,1.23 0.23,2.76 0.23,4.55 0,1.33 -0.06,2.46 -0.17,3.38 -0.11,0.97 -0.22,1.79 -0.39,2.55 -0.16,0.77 -0.44,1.44 -0.82,2.05 -0.39,0.56 -0.89,1.18 -1.43,1.69 -0.61,0.56 -2.37,1.48 -5.29,2.71 -2.87,1.23 -6.67,2.45 -11.3,3.68 -4.63,1.18 -9.98,2.25 -16.04,3.22 -6.06,0.92 -12.56,1.43 -19.45,1.43 -11.95,0 -22.42,-1.58 -31.4,-4.65 -8.98,-3.12 -16.53,-7.72 -22.7,-13.81 -6.12,-6.08 -10.75,-13.7 -13.89,-22.91 -3.08,-9.2 -4.68,-19.89 -4.68,-32.06 0,-11.56 1.65,-21.99 4.85,-31.25 3.25,-9.21 7.87,-17.08 13.99,-23.53 6.06,-6.44 13.39,-11.35 22.04,-14.83 8.6,-3.43 18.24,-5.16 28.88,-5.16 11.4,0 21.1,1.69 29.14,5.11 7.99,3.38 14.6,7.98 19.78,13.71 5.18,5.73 8.93,12.47 11.35,20.2 2.43,7.77 3.64,16 3.64,24.8l0 4.5zm-26.78 -7.31c0.33,-12.99 -2.75,-23.22 -9.31,-30.58 -6.5,-7.42 -16.14,-11.1 -28.92,-11.1 -6.62,0 -12.35,1.18 -17.31,3.48 -4.96,2.25 -9.09,5.32 -12.39,9.1 -3.37,3.78 -5.96,8.23 -7.78,13.25 -1.82,5.06 -2.86,10.32 -3.08,15.85l78.79 0zm188.66 -48.12c0,3.52 -0.49,6.03 -1.48,7.56 -1.05,1.54 -2.37,2.36 -3.97,2.36l-20.83 0c3.75,3.57 6.39,7.51 7.88,11.86 1.55,4.35 2.26,8.9 2.26,13.6 0,7.78 -1.32,14.68 -4.02,20.66 -2.7,5.99 -6.5,11.05 -11.52,15.2 -5.01,4.14 -10.96,7.31 -17.85,9.51 -6.89,2.2 -14.55,3.32 -22.92,3.32 -5.89,0 -11.57,-0.72 -16.86,-2.2 -5.34,-1.43 -9.48,-3.27 -12.35,-5.47 -1.92,1.79 -3.52,3.83 -4.79,6.14 -1.21,2.3 -1.81,4.96 -1.81,7.97 0,3.48 1.7,6.4 5.23,8.7 3.47,2.3 8.15,3.53 13.94,3.73l37.96 1.48c7.22,0.21 13.83,1.13 19.84,2.77 6,1.69 11.24,3.99 15.65,7.06 4.41,3.06 7.88,6.8 10.36,11.25 2.48,4.44 3.69,9.61 3.69,15.49 0,6.19 -1.38,12.07 -4.19,17.7 -2.81,5.57 -7.11,10.48 -12.84,14.72 -5.78,4.25 -13.11,7.63 -22.04,10.08 -8.93,2.4 -19.45,3.63 -31.62,3.63 -11.74,0 -21.72,-0.92 -29.98,-2.76 -8.21,-1.84 -14.99,-4.35 -20.22,-7.57 -5.29,-3.17 -9.09,-7 -11.46,-11.46 -2.37,-4.45 -3.58,-9.25 -3.58,-14.47 0,-3.27 0.44,-6.49 1.32,-9.56 0.82,-3.12 2.15,-6.04 3.91,-8.85 1.82,-2.81 4.02,-5.47 6.67,-8.03 2.59,-2.55 5.67,-5.06 9.09,-7.57 -5.29,-2.5 -9.15,-5.62 -11.68,-9.41 -2.54,-3.78 -3.8,-7.93 -3.8,-12.32 0,-6.09 1.32,-11.51 4.02,-16.32 2.7,-4.8 6.06,-9.1 10.03,-12.89 -3.37,-3.68 -6.01,-7.87 -7.94,-12.47 -1.93,-4.66 -2.92,-10.28 -2.92,-16.88 0,-7.67 1.43,-14.58 4.24,-20.66 2.76,-6.09 6.67,-11.25 11.63,-15.44 4.91,-4.2 10.86,-7.42 17.8,-9.67 6.94,-2.25 14.54,-3.38 22.7,-3.38 4.41,0 8.54,0.21 12.34,0.67 3.8,0.46 7.38,1.07 10.75,1.89l43.91 0c1.82,0 3.2,0.82 4.08,2.45 0.93,1.64 1.37,4.2 1.37,7.58zm-41.6 35.49c0,-9.16 -2.75,-16.32 -8.15,-21.48 -5.45,-5.17 -13.17,-7.72 -23.2,-7.72 -5.18,0 -9.64,0.81 -13.44,2.4 -3.86,1.58 -7,3.78 -9.54,6.6 -2.53,2.81 -4.4,6.03 -5.67,9.66 -1.21,3.63 -1.87,7.47 -1.87,11.46 0,8.89 2.75,15.9 8.15,20.96 5.46,5.12 13.06,7.68 22.87,7.68 5.29,0 9.86,-0.77 13.72,-2.36 3.85,-1.53 7.05,-3.68 9.59,-6.44 2.53,-2.71 4.4,-5.88 5.67,-9.51 1.21,-3.58 1.87,-7.31 1.87,-11.25zm13.39 106.83c0,-5.78 -2.58,-10.23 -7.65,-13.4 -5.13,-3.12 -12.07,-4.81 -20.78,-5.01l-37.63 -1.18c-3.42,2.46 -6.23,4.86 -8.43,7.11 -2.2,2.25 -3.97,4.4 -5.29,6.45 -1.27,2.04 -2.15,4.04 -2.65,6.03 -0.49,2 -0.71,4.04 -0.71,6.14 0,6.49 3.53,11.46 10.63,14.78 7.11,3.32 17.03,5.01 29.7,5.01 8.1,0 14.82,-0.72 20.28,-2.15 5.46,-1.48 9.81,-3.37 13.17,-5.78 3.3,-2.4 5.73,-5.16 7.16,-8.23 1.43,-3.12 2.2,-6.34 2.2,-9.77zm195.28 -82.54c0,11 -1.54,21.12 -4.69,30.32 -3.08,9.26 -7.76,17.24 -13.93,23.94 -6.18,6.7 -13.95,11.92 -23.26,15.65 -9.31,3.73 -20.11,5.62 -32.34,5.62 -11.96,0 -22.37,-1.68 -31.24,-4.96 -8.87,-3.27 -16.31,-8.08 -22.21,-14.37 -5.89,-6.29 -10.3,-13.96 -13.23,-22.96 -2.91,-8.95 -4.35,-19.18 -4.35,-30.53 0,-11 1.55,-21.12 4.58,-30.33 3.08,-9.26 7.71,-17.23 13.88,-23.93 6.17,-6.7 13.94,-11.87 23.2,-15.55 9.25,-3.73 20.06,-5.57 32.4,-5.57 11.96,0 22.37,1.63 31.24,4.96 8.87,3.27 16.31,8.08 22.21,14.37 5.95,6.29 10.36,13.96 13.33,22.91 2.98,9 4.41,19.13 4.41,30.43zm-28.05 1.63c0,-7.26 -0.77,-14.16 -2.21,-20.65 -1.43,-6.5 -3.85,-12.18 -7.15,-17.09 -3.36,-4.91 -7.88,-8.74 -13.56,-11.61 -5.73,-2.86 -12.84,-4.29 -21.32,-4.29 -7.88,0 -14.6,1.33 -20.28,3.93 -5.62,2.56 -10.3,6.24 -13.94,11 -3.69,4.76 -6.39,10.38 -8.16,16.88 -1.76,6.49 -2.64,13.55 -2.64,21.27 0,7.37 0.72,14.32 2.15,20.82 1.43,6.49 3.85,12.17 7.27,16.98 3.36,4.85 7.94,8.69 13.61,11.56 5.73,2.86 12.84,4.24 21.33,4.24 7.77,0 14.49,-1.28 20.16,-3.89 5.74,-2.6 10.42,-6.24 14.05,-10.94 3.69,-4.65 6.4,-10.28 8.1,-16.78 1.71,-6.49 2.59,-13.6 2.59,-21.43zm-31.35 -133.48c0.66,-1.12 1.38,-1.99 2.26,-2.71 0.88,-0.66 1.93,-1.22 3.14,-1.63 1.27,-0.41 2.75,-0.72 4.63,-0.92 1.82,-0.15 4.02,-0.26 6.61,-0.26 2.97,0 5.46,0.16 7.33,0.51 1.87,0.36 3.2,0.82 3.96,1.49 0.72,0.66 1.05,1.38 0.94,2.25 -0.11,0.87 -0.55,1.74 -1.43,2.6l-29.2 34.93c-0.88,0.98 -1.66,1.79 -2.37,2.41 -0.72,0.61 -1.49,1.07 -2.43,1.43 -0.88,0.36 -2.09,0.56 -3.52,0.72 -1.49,0.15 -3.26,0.25 -5.4,0.25 -2.37,0 -4.3,-0.15 -5.68,-0.46 -1.37,-0.31 -2.37,-0.71 -2.97,-1.22 -0.61,-0.46 -0.83,-1.13 -0.67,-1.95 0.17,-0.76 0.61,-1.74 1.38,-2.81l23.42 -34.63zm203.1 180.23c0,1.74 -0.06,3.17 -0.16,4.45 -0.11,1.22 -0.33,2.3 -0.56,3.12 -0.27,0.87 -0.6,1.64 -0.99,2.25 -0.38,0.66 -1.21,1.64 -2.59,2.86 -1.32,1.23 -3.64,2.82 -6.83,4.66 -3.25,1.84 -6.89,3.47 -10.91,4.9 -4.02,1.49 -8.43,2.67 -13.17,3.53 -4.74,0.93 -9.64,1.38 -14.71,1.38 -10.41,0 -19.67,-1.63 -27.72,-4.8 -8.1,-3.23 -14.82,-7.88 -20.27,-14.02 -5.46,-6.13 -9.59,-13.7 -12.46,-22.6 -2.8,-8.95 -4.24,-19.28 -4.24,-30.94 0,-13.3 1.71,-24.7 5.24,-34.26 3.47,-9.52 8.26,-17.34 14.38,-23.43 6.06,-6.08 13.22,-10.63 21.43,-13.55 8.27,-2.97 17.13,-4.45 26.73,-4.45 4.62,0 9.14,0.41 13.49,1.23 4.36,0.77 8.38,1.84 12.01,3.12 3.64,1.27 6.95,2.81 9.76,4.5 2.86,1.68 4.95,3.12 6.22,4.35 1.33,1.17 2.21,2.14 2.65,2.86 0.5,0.66 0.93,1.48 1.21,2.45 0.33,0.97 0.55,2 0.66,3.22 0.11,1.18 0.17,2.71 0.17,4.5 0,3.89 -0.5,6.6 -1.43,8.14 -1,1.58 -2.15,2.35 -3.58,2.35 -1.6,0 -3.48,-0.82 -5.57,-2.45 -2.1,-1.69 -4.74,-3.48 -7.99,-5.48 -3.2,-1.99 -7.11,-3.83 -11.68,-5.47 -4.57,-1.69 -9.98,-2.5 -16.26,-2.5 -12.78,0 -22.59,4.6 -29.42,13.7 -6.83,9.15 -10.25,22.4 -10.25,39.79 0,8.69 0.88,16.31 2.64,22.86 1.77,6.54 4.42,12.02 7.83,16.41 3.47,4.4 7.66,7.68 12.67,9.83 5.02,2.14 10.75,3.22 17.19,3.22 6.12,0 11.52,-0.92 16.15,-2.71 4.63,-1.79 8.65,-3.79 12.01,-5.94 3.42,-2.15 6.28,-4.09 8.59,-5.83 2.32,-1.73 4.09,-2.61 5.41,-2.61 0.71,0 1.37,0.21 1.93,0.57 0.54,0.41 0.99,1.07 1.37,2.04 0.39,0.97 0.61,2.15 0.78,3.58 0.16,1.49 0.27,3.17 0.27,5.17zm61.98 20.56c0,0.76 -0.22,1.48 -0.65,1.99 -0.45,0.57 -1.16,1.02 -2.1,1.44 -0.99,0.4 -2.31,0.71 -4.02,0.92 -1.77,0.2 -3.97,0.3 -6.67,0.3 -2.53,0 -4.68,-0.1 -6.45,-0.3 -1.71,-0.21 -3.08,-0.52 -4.07,-0.92 -1.05,-0.42 -1.76,-0.87 -2.1,-1.44 -0.38,-0.51 -0.6,-1.23 -0.6,-1.99l0 -134.86c0,-0.72 0.22,-1.33 0.6,-1.95 0.34,-0.61 1.05,-1.12 2.1,-1.48 0.99,-0.41 2.36,-0.71 4.07,-0.92 1.77,-0.21 3.92,-0.31 6.45,-0.31 2.7,0 4.9,0.1 6.67,0.31 1.71,0.21 3.03,0.51 4.02,0.92 0.94,0.36 1.65,0.87 2.1,1.48 0.43,0.62 0.65,1.23 0.65,1.95l0 134.86zm3.03 -180.43c0,5.83 -1.15,9.77 -3.52,11.87 -2.37,2.09 -6.72,3.12 -13.06,3.12 -6.28,0 -10.52,-1.03 -12.84,-3.07 -2.31,-2.05 -3.47,-5.88 -3.47,-11.61 0,-5.78 1.16,-9.72 3.53,-11.82 2.37,-2.09 6.72,-3.17 13.06,-3.17 6.28,0 10.52,1.02 12.83,3.07 2.32,2.05 3.47,5.93 3.47,11.61zm181.29 111.49c0,11 -1.55,21.12 -4.69,30.32 -3.09,9.26 -7.77,17.24 -13.94,23.94 -6.17,6.7 -13.94,11.92 -23.25,15.65 -9.31,3.73 -20.12,5.62 -32.34,5.62 -11.96,0 -22.38,-1.68 -31.25,-4.96 -8.87,-3.27 -16.31,-8.08 -22.2,-14.37 -5.9,-6.29 -10.31,-13.96 -13.23,-22.96 -2.92,-8.95 -4.35,-19.18 -4.35,-30.53 0,-11 1.54,-21.12 4.58,-30.33 3.08,-9.26 7.71,-17.23 13.88,-23.93 6.17,-6.7 13.94,-11.87 23.2,-15.55 9.25,-3.73 20.05,-5.57 32.39,-5.57 11.96,0 22.37,1.63 31.25,4.96 8.87,3.27 16.31,8.08 22.2,14.37 5.95,6.29 10.36,13.96 13.33,22.91 2.98,9 4.42,19.13 4.42,30.43zm-28.05 1.63c0,-7.26 -0.77,-14.16 -2.21,-20.65 -1.43,-6.5 -3.85,-12.18 -7.16,-17.09 -3.36,-4.91 -7.88,-8.74 -13.55,-11.61 -5.73,-2.86 -12.84,-4.29 -21.33,-4.29 -7.88,0 -14.6,1.33 -20.27,3.93 -5.62,2.56 -10.31,6.24 -13.95,11 -3.69,4.76 -6.39,10.38 -8.15,16.88 -1.76,6.49 -2.64,13.55 -2.64,21.27 0,7.37 0.71,14.32 2.14,20.82 1.44,6.49 3.86,12.17 7.28,16.98 3.36,4.85 7.93,8.69 13.61,11.56 5.73,2.86 12.84,4.24 21.32,4.24 7.77,0 14.49,-1.28 20.17,-3.89 5.73,-2.6 10.41,-6.24 14.05,-10.94 3.69,-4.65 6.39,-10.28 8.1,-16.78 1.7,-6.49 2.59,-13.6 2.59,-21.43zm158.52 30.59c0,6.9 -1.38,13.04 -4.13,18.41 -2.76,5.42 -6.67,9.97 -11.74,13.65 -5.01,3.69 -11.07,6.5 -18.07,8.39 -7,1.89 -14.66,2.86 -23.09,2.86 -5.12,0 -10.08,-0.4 -14.77,-1.12 -4.68,-0.77 -8.86,-1.74 -12.56,-2.86 -3.75,-1.13 -6.89,-2.36 -9.47,-3.58 -2.54,-1.29 -4.47,-2.41 -5.63,-3.38 -1.21,-1.02 -2.04,-2.4 -2.58,-4.19 -0.56,-1.79 -0.83,-4.25 -0.83,-7.37 0,-1.89 0.11,-3.48 0.33,-4.81 0.22,-1.27 0.5,-2.3 0.82,-3.11 0.33,-0.82 0.78,-1.39 1.38,-1.74 0.55,-0.36 1.27,-0.52 1.99,-0.52 1.21,0 2.98,0.67 5.29,2.05 2.31,1.33 5.12,2.81 8.54,4.4 3.36,1.59 7.38,3.07 12.01,4.4 4.63,1.38 9.97,2.04 15.98,2.04 4.52,0 8.59,-0.46 12.28,-1.33 3.64,-0.92 6.84,-2.25 9.54,-3.98 2.64,-1.75 4.74,-4 6.17,-6.65 1.49,-2.72 2.2,-5.94 2.2,-9.62 0,-3.78 -1.05,-7.01 -3.14,-9.56 -2.09,-2.61 -4.9,-4.91 -8.32,-6.91 -3.47,-1.99 -7.33,-3.78 -11.62,-5.32 -4.3,-1.53 -8.77,-3.16 -13.34,-4.85 -4.57,-1.74 -9.04,-3.64 -13.39,-5.78 -4.35,-2.15 -8.26,-4.76 -11.68,-7.88 -3.47,-3.12 -6.22,-6.8 -8.32,-11.1 -2.09,-4.29 -3.14,-9.41 -3.14,-15.44 0,-5.27 1.1,-10.33 3.31,-15.19 2.2,-4.86 5.51,-9.1 9.91,-12.73 4.41,-3.64 9.92,-6.55 16.53,-8.75 6.62,-2.2 14.38,-3.32 23.2,-3.32 3.86,0 7.71,0.3 11.63,0.92 3.85,0.56 7.32,1.33 10.47,2.25 3.14,0.87 5.78,1.84 7.99,2.91 2.2,1.02 3.85,1.94 5.01,2.76 1.1,0.82 1.87,1.49 2.26,2.1 0.39,0.62 0.66,1.28 0.83,2.05 0.16,0.71 0.27,1.63 0.43,2.76 0.17,1.07 0.28,2.45 0.28,4.04 0,1.69 -0.11,3.17 -0.28,4.4 -0.16,1.27 -0.38,2.3 -0.76,3.06 -0.39,0.82 -0.83,1.39 -1.38,1.74 -0.56,0.36 -1.16,0.51 -1.76,0.51 -1,0 -2.38,-0.51 -4.25,-1.63 -1.82,-1.07 -4.19,-2.25 -7.05,-3.53 -2.92,-1.23 -6.33,-2.4 -10.3,-3.53 -3.92,-1.07 -8.38,-1.63 -13.45,-1.63 -4.52,0 -8.49,0.45 -11.96,1.43 -3.41,0.97 -6.28,2.3 -8.48,4.04 -2.2,1.73 -3.86,3.83 -5.02,6.24 -1.1,2.4 -1.65,4.96 -1.65,7.77 0,3.89 1.05,7.16 3.2,9.82 2.14,2.66 4.96,4.96 8.43,6.95 3.42,2 7.33,3.79 11.73,5.42 4.47,1.59 8.93,3.23 13.5,4.92 4.58,1.73 9.1,3.62 13.56,5.72 4.46,2.1 8.43,4.6 11.9,7.62 3.42,3.02 6.17,6.6 8.26,10.79 2.1,4.2 3.2,9.21 3.2,14.99zm143.65 36.57c0,0.76 -0.22,1.48 -0.66,2.09 -0.45,0.62 -1.16,1.07 -2.26,1.43 -1.05,0.36 -2.49,0.62 -4.3,0.87 -1.77,0.26 -3.97,0.41 -6.67,0.41 -2.59,0 -4.79,-0.15 -6.61,-0.41 -1.82,-0.25 -3.31,-0.51 -4.35,-0.87 -1.11,-0.36 -1.88,-0.81 -2.27,-1.43 -0.43,-0.61 -0.65,-1.33 -0.65,-2.09l0 -186.11c0,-0.77 0.22,-1.48 0.71,-2.1 0.5,-0.61 1.33,-1.07 2.43,-1.43 1.15,-0.36 2.59,-0.61 4.35,-0.87 1.76,-0.25 3.91,-0.41 6.39,-0.41 2.7,0 4.9,0.16 6.67,0.41 1.81,0.26 3.25,0.51 4.3,0.87 1.1,0.36 1.81,0.82 2.26,1.43 0.44,0.62 0.66,1.33 0.66,2.1l0 186.11zm267.95 0.15c0,0.76 -0.22,1.48 -0.61,1.99 -0.44,0.57 -1.15,1.02 -2.09,1.44 -0.99,0.4 -2.31,0.71 -4.08,0.92 -1.7,0.2 -3.85,0.3 -6.44,0.3 -2.71,0 -4.91,-0.1 -6.61,-0.3 -1.71,-0.21 -3.09,-0.52 -4.14,-0.92 -0.99,-0.42 -1.71,-0.87 -2.15,-1.44 -0.44,-0.51 -0.66,-1.23 -0.66,-1.99l0 -81.98c0,-5.68 -0.55,-10.89 -1.6,-15.55 -1.1,-4.71 -2.8,-8.75 -5.17,-12.17 -2.37,-3.38 -5.41,-5.99 -9.04,-7.78 -3.64,-1.79 -7.99,-2.7 -12.89,-2.7 -6.18,0 -12.35,2.19 -18.52,6.59 -6.17,4.4 -13,10.84 -20.39,19.33l0 94.26c0,0.76 -0.22,1.48 -0.66,1.99 -0.44,0.57 -1.15,1.02 -2.2,1.44 -0.99,0.4 -2.37,0.71 -4.08,0.92 -1.76,0.2 -3.91,0.3 -6.5,0.3 -2.48,0 -4.57,-0.1 -6.34,-0.3 -1.81,-0.21 -3.19,-0.52 -4.24,-0.92 -0.99,-0.42 -1.71,-0.87 -2.09,-1.44 -0.33,-0.51 -0.55,-1.23 -0.55,-1.99l0 -81.98c0,-5.68 -0.61,-10.89 -1.77,-15.55 -1.21,-4.71 -2.97,-8.75 -5.34,-12.17 -2.37,-3.38 -5.35,-5.99 -8.93,-7.78 -3.63,-1.79 -7.88,-2.7 -12.84,-2.7 -6.17,0 -12.34,2.19 -18.57,6.59 -6.22,4.4 -13.06,10.84 -20.33,19.33l0 94.26c0,0.76 -0.22,1.48 -0.66,1.99 -0.44,0.57 -1.16,1.02 -2.09,1.44 -1,0.4 -2.32,0.71 -4.02,0.92 -1.77,0.2 -3.97,0.3 -6.67,0.3 -2.53,0 -4.68,-0.1 -6.45,-0.3 -1.71,-0.21 -3.09,-0.52 -4.08,-0.92 -1.04,-0.42 -1.76,-0.87 -2.09,-1.44 -0.39,-0.51 -0.61,-1.23 -0.61,-1.99l0 -134.86c0,-0.82 0.17,-1.49 0.5,-2.05 0.33,-0.51 0.99,-1.02 1.93,-1.48 0.99,-0.46 2.2,-0.72 3.75,-0.87 1.48,-0.16 3.47,-0.26 5.95,-0.26 2.36,0 4.35,0.1 5.89,0.26 1.54,0.15 2.75,0.41 3.64,0.87 0.82,0.46 1.49,0.97 1.87,1.48 0.33,0.56 0.55,1.23 0.55,2.05l0 17.84c8.15,-8.48 16.09,-14.72 23.81,-18.66 7.71,-3.94 15.48,-5.93 23.3,-5.93 6.06,0 11.46,0.66 16.26,1.94 4.79,1.33 8.98,3.12 12.67,5.47 3.64,2.36 6.78,5.17 9.37,8.39 2.53,3.27 4.74,6.9 6.45,10.89 4.84,-4.91 9.41,-9.05 13.77,-12.43 4.35,-3.42 8.59,-6.18 12.62,-8.28 4.02,-2.1 7.93,-3.58 11.79,-4.55 3.8,-0.97 7.66,-1.43 11.51,-1.43 9.37,0 17.25,1.53 23.59,4.6 6.34,3.02 11.46,7.11 15.43,12.17 3.91,5.11 6.72,11.1 8.37,17.9 1.65,6.85 2.48,14.07 2.48,21.69l0 85.25zm183.7 -68.94c0,11 -1.54,21.12 -4.68,30.32 -3.09,9.26 -7.77,17.24 -13.94,23.94 -6.17,6.7 -13.94,11.92 -23.25,15.65 -9.32,3.73 -20.12,5.62 -32.35,5.62 -11.95,0 -22.37,-1.68 -31.24,-4.96 -8.87,-3.27 -16.31,-8.08 -22.2,-14.37 -5.9,-6.29 -10.31,-13.96 -13.23,-22.96 -2.92,-8.95 -4.35,-19.18 -4.35,-30.53 0,-11 1.54,-21.12 4.57,-30.33 3.09,-9.26 7.72,-17.23 13.89,-23.93 6.17,-6.7 13.94,-11.87 23.19,-15.55 9.26,-3.73 20.06,-5.57 32.41,-5.57 11.95,0 22.36,1.63 31.24,4.96 8.87,3.27 16.31,8.08 22.2,14.37 5.95,6.29 10.36,13.96 13.33,22.91 2.98,9 4.41,19.13 4.41,30.43zm-28.04 1.63c0,-7.26 -0.77,-14.16 -2.21,-20.65 -1.43,-6.5 -3.86,-12.18 -7.16,-17.09 -3.36,-4.91 -7.88,-8.74 -13.55,-11.61 -5.73,-2.86 -12.85,-4.29 -21.33,-4.29 -7.88,0 -14.6,1.33 -20.27,3.93 -5.63,2.56 -10.31,6.24 -13.95,11 -3.69,4.76 -6.39,10.38 -8.15,16.88 -1.76,6.49 -2.65,13.55 -2.65,21.27 0,7.37 0.72,14.32 2.15,20.82 1.44,6.49 3.86,12.17 7.28,16.98 3.36,4.85 7.93,8.69 13.61,11.56 5.73,2.86 12.84,4.24 21.32,4.24 7.77,0 14.49,-1.28 20.17,-3.89 5.73,-2.6 10.41,-6.24 14.05,-10.94 3.69,-4.65 6.39,-10.28 8.1,-16.78 1.7,-6.49 2.59,-13.6 2.59,-21.43z"/>
    <path class="fil0" d="M2288.61 2205.25c0,11.71 -1.38,22.2 -4.14,31.56 -2.7,9.35 -6.77,17.28 -12.06,23.88 -5.35,6.6 -11.91,11.66 -19.62,15.14 -7.76,3.47 -16.64,5.26 -26.67,5.26 -4.62,0 -8.87,-0.45 -12.83,-1.27 -3.92,-0.87 -7.77,-2.25 -11.52,-4.15 -3.8,-1.89 -7.55,-4.29 -11.29,-7.16 -3.81,-2.91 -7.78,-6.39 -11.96,-10.53l0 16.52c0,0.76 -0.22,1.48 -0.67,2.1 -0.44,0.56 -1.09,1.07 -2.09,1.43 -0.93,0.3 -2.15,0.61 -3.63,0.82 -1.44,0.2 -3.31,0.3 -5.57,0.3 -2.15,0 -3.97,-0.1 -5.46,-0.3 -1.54,-0.21 -2.75,-0.52 -3.74,-0.82 -0.94,-0.36 -1.6,-0.87 -1.93,-1.43 -0.33,-0.62 -0.5,-1.34 -0.5,-2.1l0 -200.17c0,-0.82 0.23,-1.54 0.61,-2.1 0.33,-0.61 1.05,-1.12 2.09,-1.53 1,-0.36 2.37,-0.67 4.08,-0.87 1.77,-0.2 3.91,-0.31 6.45,-0.31 2.7,0 4.9,0.11 6.67,0.31 1.7,0.2 3.02,0.51 4.02,0.87 0.93,0.41 1.65,0.92 2.09,1.53 0.44,0.56 0.66,1.28 0.66,2.1l0 80.75c4.3,-4.09 8.43,-7.57 12.51,-10.33 4.02,-2.81 7.99,-5.06 11.85,-6.85 3.86,-1.74 7.77,-3.02 11.62,-3.79 3.86,-0.81 7.99,-1.22 12.29,-1.22 10.53,0 19.56,1.94 27,5.83 7.49,3.94 13.55,9.15 18.24,15.7 4.68,6.54 8.1,14.16 10.24,22.96 2.21,8.8 3.26,18.1 3.26,27.87zm-28.11 2.87c0,-6.91 -0.54,-13.61 -1.65,-20.1 -1.15,-6.5 -3.14,-12.22 -5.89,-17.24 -2.81,-4.96 -6.56,-9 -11.19,-12.01 -4.63,-3.07 -10.35,-4.61 -17.24,-4.61 -3.48,0 -6.84,0.46 -10.2,1.38 -3.3,0.87 -6.72,2.36 -10.14,4.45 -3.47,2.1 -7.05,4.81 -10.74,8.13 -3.69,3.28 -7.66,7.42 -11.85,12.43l0 53.8c7.27,8.29 14.27,14.58 20.99,18.92 6.67,4.35 13.62,6.55 20.78,6.55 6.72,0 12.39,-1.53 17.14,-4.5 4.73,-3.02 8.59,-6.95 11.51,-11.92 2.97,-4.96 5.12,-10.48 6.5,-16.62 1.33,-6.14 1.98,-12.37 1.98,-18.66zm94.78 66.38c0,0.76 -0.22,1.48 -0.66,1.99 -0.44,0.57 -1.16,1.02 -2.1,1.44 -0.99,0.4 -2.31,0.71 -4.02,0.92 -1.76,0.2 -3.97,0.3 -6.66,0.3 -2.54,0 -4.69,-0.1 -6.45,-0.3 -1.71,-0.21 -3.09,-0.52 -4.08,-0.92 -1.05,-0.42 -1.76,-0.87 -2.1,-1.44 -0.38,-0.51 -0.6,-1.23 -0.6,-1.99l0 -134.86c0,-0.72 0.22,-1.33 0.6,-1.95 0.34,-0.61 1.05,-1.12 2.1,-1.48 0.99,-0.41 2.37,-0.71 4.08,-0.92 1.76,-0.21 3.91,-0.31 6.45,-0.31 2.69,0 4.9,0.1 6.66,0.31 1.71,0.21 3.03,0.51 4.02,0.92 0.94,0.36 1.66,0.87 2.1,1.48 0.44,0.62 0.66,1.23 0.66,1.95l0 134.86zm3.03 -180.43c0,5.83 -1.16,9.77 -3.53,11.87 -2.36,2.09 -6.72,3.12 -13.06,3.12 -6.28,0 -10.52,-1.03 -12.83,-3.07 -2.32,-2.05 -3.47,-5.88 -3.47,-11.61 0,-5.78 1.15,-9.72 3.52,-11.82 2.37,-2.09 6.72,-3.17 13.06,-3.17 6.28,0 10.52,1.02 12.84,3.07 2.31,2.05 3.47,5.93 3.47,11.61zm72.84 180.43c0,0.76 -0.22,1.48 -0.66,1.99 -0.44,0.57 -1.16,1.02 -2.1,1.44 -0.99,0.4 -2.31,0.71 -4.01,0.92 -1.77,0.2 -3.98,0.3 -6.67,0.3 -2.54,0 -4.68,-0.1 -6.45,-0.3 -1.71,-0.21 -3.08,-0.52 -4.08,-0.92 -1.04,-0.42 -1.76,-0.87 -2.09,-1.44 -0.38,-0.51 -0.61,-1.23 -0.61,-1.99l0 -200.17c0,-0.82 0.23,-1.54 0.61,-2.1 0.33,-0.61 1.05,-1.12 2.09,-1.53 1,-0.36 2.37,-0.67 4.08,-0.87 1.77,-0.2 3.91,-0.31 6.45,-0.31 2.69,0 4.9,0.11 6.67,0.31 1.7,0.2 3.02,0.51 4.01,0.87 0.94,0.41 1.66,0.92 2.1,1.53 0.44,0.56 0.66,1.28 0.66,2.1l0 200.17zm75.87 0c0,0.76 -0.22,1.48 -0.66,1.99 -0.44,0.57 -1.16,1.02 -2.09,1.44 -0.99,0.4 -2.32,0.71 -4.02,0.92 -1.77,0.2 -3.97,0.3 -6.67,0.3 -2.54,0 -4.68,-0.1 -6.45,-0.3 -1.71,-0.21 -3.08,-0.52 -4.08,-0.92 -1.04,-0.42 -1.76,-0.87 -2.09,-1.44 -0.38,-0.51 -0.61,-1.23 -0.61,-1.99l0 -134.86c0,-0.72 0.23,-1.33 0.61,-1.95 0.33,-0.61 1.05,-1.12 2.09,-1.48 1,-0.41 2.37,-0.71 4.08,-0.92 1.77,-0.21 3.91,-0.31 6.45,-0.31 2.7,0 4.9,0.1 6.67,0.31 1.7,0.21 3.03,0.51 4.02,0.92 0.93,0.36 1.65,0.87 2.09,1.48 0.44,0.62 0.66,1.23 0.66,1.95l0 134.86zm3.03 -180.43c0,5.83 -1.15,9.77 -3.52,11.87 -2.37,2.09 -6.72,3.12 -13.06,3.12 -6.28,0 -10.53,-1.03 -12.84,-3.07 -2.32,-2.05 -3.47,-5.88 -3.47,-11.61 0,-5.78 1.15,-9.72 3.53,-11.82 2.36,-2.09 6.72,-3.17 13.05,-3.17 6.28,0 10.53,1.02 12.84,3.07 2.32,2.05 3.47,5.93 3.47,11.61zm155.66 180.58c0,1.18 -0.44,2.1 -1.32,2.66 -0.82,0.62 -2.04,1.08 -3.53,1.38 -1.54,0.31 -3.74,0.46 -6.61,0.46 -2.81,0 -5.07,-0.15 -6.72,-0.46 -1.66,-0.3 -2.87,-0.76 -3.64,-1.38 -0.77,-0.56 -1.1,-1.48 -1.1,-2.66l0 -13.5c-6.39,6.29 -13.44,11.2 -21.27,14.68 -7.77,3.47 -16.03,5.26 -24.74,5.26 -7.66,0 -14.6,-0.91 -20.77,-2.81 -6.17,-1.84 -11.46,-4.5 -15.81,-7.98 -4.36,-3.53 -7.77,-7.82 -10.2,-12.88 -2.37,-5.12 -3.58,-10.9 -3.58,-17.39 0,-7.62 1.65,-14.17 4.96,-19.79 3.36,-5.58 8.15,-10.23 14.38,-13.91 6.23,-3.74 13.88,-6.5 22.92,-8.34 9.04,-1.84 19.23,-2.76 30.53,-2.76l20 0 0 -10.49c0,-5.21 -0.61,-9.82 -1.76,-13.8 -1.22,-3.99 -3.09,-7.32 -5.73,-9.92 -2.65,-2.67 -6.07,-4.66 -10.25,-6.04 -4.19,-1.33 -9.37,-2 -15.49,-2 -6.61,0 -12.45,0.72 -17.68,2.15 -5.24,1.49 -9.81,3.07 -13.72,4.81 -3.97,1.74 -7.22,3.33 -9.87,4.81 -2.64,1.43 -4.57,2.15 -5.89,2.15 -0.83,0 -1.6,-0.21 -2.26,-0.57 -0.66,-0.41 -1.21,-1.02 -1.71,-1.84 -0.44,-0.77 -0.82,-1.79 -1.05,-3.07 -0.22,-1.22 -0.33,-2.61 -0.33,-4.09 0,-2.5 0.22,-4.5 0.61,-5.93 0.38,-1.43 1.27,-2.81 2.75,-4.14 1.44,-1.28 3.91,-2.81 7.5,-4.55 3.52,-1.74 7.6,-3.33 12.23,-4.81 4.63,-1.43 9.7,-2.61 15.21,-3.58 5.45,-0.97 11.02,-1.43 16.64,-1.43 10.41,0 19.28,1.12 26.61,3.32 7.33,2.2 13.22,5.42 17.74,9.67 4.52,4.24 7.83,9.51 9.87,15.8 2.04,6.29 3.08,13.6 3.08,21.99l0 90.98zm-26.5 -61.57l-22.76 0c-7.33,0 -13.66,0.56 -19.06,1.69 -5.35,1.17 -9.81,2.86 -13.39,5.11 -3.53,2.25 -6.18,4.96 -7.83,8.08 -1.65,3.17 -2.47,6.75 -2.47,10.84 0,7.01 2.36,12.58 7.16,16.72 4.79,4.15 11.51,6.24 20.11,6.24 7,0 13.44,-1.63 19.45,-4.96 5.95,-3.27 12.23,-8.33 18.79,-15.13l0 -28.59zm-15.98 -139.37c0.66,-1.12 1.38,-1.99 2.26,-2.71 0.88,-0.66 1.93,-1.22 3.14,-1.63 1.27,-0.41 2.76,-0.72 4.63,-0.92 1.82,-0.15 4.02,-0.26 6.61,-0.26 2.98,0 5.46,0.16 7.33,0.51 1.87,0.36 3.19,0.82 3.97,1.49 0.71,0.66 1.04,1.38 0.93,2.25 -0.11,0.87 -0.55,1.74 -1.43,2.6l-29.2 34.93c-0.89,0.98 -1.66,1.79 -2.37,2.41 -0.72,0.61 -1.49,1.07 -2.43,1.43 -0.88,0.36 -2.09,0.56 -3.52,0.72 -1.49,0.15 -3.25,0.25 -5.4,0.25 -2.37,0 -4.3,-0.15 -5.68,-0.46 -1.38,-0.31 -2.37,-0.71 -2.98,-1.22 -0.6,-0.46 -0.82,-1.13 -0.65,-1.95 0.16,-0.76 0.6,-1.74 1.37,-2.81l23.42 -34.63zm176.27 74.78c0,2.19 -0.06,4.03 -0.17,5.52 -0.11,1.53 -0.33,2.71 -0.61,3.53 -0.32,0.87 -0.77,1.48 -1.21,1.94 -0.49,0.46 -1.15,0.66 -2.04,0.66 -0.88,0 -1.92,-0.2 -3.14,-0.66 -1.26,-0.46 -2.64,-0.87 -4.18,-1.33 -1.6,-0.46 -3.31,-0.87 -5.24,-1.28 -1.98,-0.41 -4.07,-0.61 -6.33,-0.61 -2.71,0 -5.29,0.51 -7.88,1.53 -2.6,0.98 -5.35,2.61 -8.16,4.91 -2.87,2.3 -5.84,5.37 -8.98,9.16 -3.08,3.78 -6.56,8.44 -10.3,13.91l0 88.73c0,0.76 -0.22,1.48 -0.67,1.99 -0.43,0.57 -1.16,1.02 -2.09,1.44 -0.99,0.4 -2.32,0.71 -4.02,0.92 -1.77,0.2 -3.97,0.3 -6.67,0.3 -2.53,0 -4.68,-0.1 -6.45,-0.3 -1.7,-0.21 -3.08,-0.52 -4.07,-0.92 -1.05,-0.42 -1.76,-0.87 -2.1,-1.44 -0.38,-0.51 -0.61,-1.23 -0.61,-1.99l0 -134.86c0,-0.82 0.17,-1.49 0.5,-2.05 0.34,-0.51 1,-1.02 1.93,-1.48 0.99,-0.46 2.2,-0.72 3.75,-0.87 1.49,-0.16 3.47,-0.26 5.95,-0.26 2.37,0 4.35,0.1 5.89,0.26 1.54,0.15 2.76,0.41 3.64,0.87 0.83,0.46 1.49,0.97 1.87,1.48 0.34,0.56 0.55,1.23 0.55,2.05l0 19.63c3.97,-5.41 7.72,-9.81 11.19,-13.19 3.53,-3.37 6.83,-6.09 9.97,-8.03 3.09,-1.94 6.17,-3.27 9.26,-4.04 3.09,-0.71 6.18,-1.12 9.26,-1.12 1.43,0 3.03,0.1 4.79,0.25 1.77,0.16 3.64,0.41 5.56,0.82 1.93,0.41 3.7,0.82 5.24,1.33 1.6,0.51 2.7,1.02 3.31,1.48 0.66,0.52 1.1,0.97 1.32,1.43 0.22,0.46 0.38,1.03 0.55,1.74 0.17,0.72 0.28,1.74 0.33,3.07 0.06,1.33 0.06,3.17 0.06,5.48zm57.03 126.01c0,0.76 -0.22,1.48 -0.66,1.99 -0.44,0.57 -1.16,1.02 -2.1,1.44 -0.99,0.4 -2.32,0.71 -4.02,0.92 -1.77,0.2 -3.97,0.3 -6.67,0.3 -2.53,0 -4.68,-0.1 -6.45,-0.3 -1.7,-0.21 -3.08,-0.52 -4.07,-0.92 -1.05,-0.42 -1.76,-0.87 -2.1,-1.44 -0.38,-0.51 -0.6,-1.23 -0.6,-1.99l0 -134.86c0,-0.72 0.22,-1.33 0.6,-1.95 0.34,-0.61 1.05,-1.12 2.1,-1.48 0.99,-0.41 2.37,-0.71 4.07,-0.92 1.77,-0.21 3.92,-0.31 6.45,-0.31 2.7,0 4.9,0.1 6.67,0.31 1.7,0.21 3.03,0.51 4.02,0.92 0.94,0.36 1.66,0.87 2.1,1.48 0.44,0.62 0.66,1.23 0.66,1.95l0 134.86zm3.02 -180.43c0,5.83 -1.15,9.77 -3.52,11.87 -2.37,2.09 -6.72,3.12 -13.06,3.12 -6.28,0 -10.52,-1.03 -12.84,-3.07 -2.31,-2.05 -3.47,-5.88 -3.47,-11.61 0,-5.78 1.16,-9.72 3.53,-11.82 2.37,-2.09 6.72,-3.17 13.05,-3.17 6.29,0 10.53,1.02 12.84,3.07 2.32,2.05 3.47,5.93 3.47,11.61zm181.28 111.49c0,11 -1.54,21.12 -4.68,30.32 -3.08,9.26 -7.77,17.24 -13.94,23.94 -6.17,6.7 -13.94,11.92 -23.25,15.65 -9.31,3.73 -20.11,5.62 -32.34,5.62 -11.96,0 -22.37,-1.68 -31.24,-4.96 -8.88,-3.27 -16.31,-8.08 -22.21,-14.37 -5.9,-6.29 -10.31,-13.96 -13.23,-22.96 -2.92,-8.95 -4.35,-19.18 -4.35,-30.53 0,-11 1.54,-21.12 4.58,-30.33 3.08,-9.26 7.71,-17.23 13.88,-23.93 6.17,-6.7 13.94,-11.87 23.2,-15.55 9.25,-3.73 20.05,-5.57 32.4,-5.57 11.96,0 22.37,1.63 31.24,4.96 8.87,3.27 16.31,8.08 22.21,14.37 5.94,6.29 10.35,13.96 13.33,22.91 2.97,9 4.4,19.13 4.4,30.43zm-28.04 1.63c0,-7.26 -0.77,-14.16 -2.21,-20.65 -1.43,-6.5 -3.85,-12.18 -7.16,-17.09 -3.36,-4.91 -7.88,-8.74 -13.55,-11.61 -5.73,-2.86 -12.84,-4.29 -21.32,-4.29 -7.89,0 -14.61,1.33 -20.28,3.93 -5.63,2.56 -10.31,6.24 -13.94,11 -3.69,4.76 -6.4,10.38 -8.16,16.88 -1.76,6.49 -2.64,13.55 -2.64,21.27 0,7.37 0.71,14.32 2.14,20.82 1.44,6.49 3.86,12.17 7.28,16.98 3.36,4.85 7.93,8.69 13.61,11.56 5.73,2.86 12.84,4.24 21.32,4.24 7.77,0 14.49,-1.28 20.17,-3.89 5.73,-2.6 10.41,-6.24 14.05,-10.94 3.69,-4.65 6.39,-10.28 8.1,-16.78 1.71,-6.49 2.59,-13.6 2.59,-21.43zm158.52 30.59c0,6.9 -1.37,13.04 -4.13,18.41 -2.76,5.42 -6.67,9.97 -11.74,13.65 -5.01,3.69 -11.07,6.5 -18.07,8.39 -7,1.89 -14.66,2.86 -23.09,2.86 -5.12,0 -10.08,-0.4 -14.76,-1.12 -4.69,-0.77 -8.87,-1.74 -12.57,-2.86 -3.74,-1.13 -6.88,-2.36 -9.47,-3.58 -2.54,-1.29 -4.46,-2.41 -5.62,-3.38 -1.21,-1.02 -2.04,-2.4 -2.59,-4.19 -0.56,-1.79 -0.83,-4.25 -0.83,-7.37 0,-1.89 0.11,-3.48 0.33,-4.81 0.22,-1.27 0.5,-2.3 0.83,-3.11 0.33,-0.82 0.77,-1.39 1.38,-1.74 0.54,-0.36 1.26,-0.52 1.98,-0.52 1.21,0 2.97,0.67 5.29,2.05 2.31,1.33 5.12,2.81 8.54,4.4 3.36,1.59 7.38,3.07 12.01,4.4 4.63,1.38 9.97,2.04 15.98,2.04 4.52,0 8.59,-0.46 12.29,-1.33 3.63,-0.92 6.83,-2.25 9.53,-3.98 2.65,-1.75 4.74,-4 6.17,-6.65 1.49,-2.72 2.2,-5.94 2.2,-9.62 0,-3.78 -1.04,-7.01 -3.14,-9.56 -2.09,-2.61 -4.9,-4.91 -8.32,-6.91 -3.47,-1.99 -7.33,-3.78 -11.62,-5.32 -4.3,-1.53 -8.76,-3.16 -13.34,-4.85 -4.57,-1.74 -9.03,-3.64 -13.39,-5.78 -4.35,-2.15 -8.26,-4.76 -11.68,-7.88 -3.47,-3.12 -6.22,-6.8 -8.32,-11.1 -2.09,-4.29 -3.14,-9.41 -3.14,-15.44 0,-5.27 1.1,-10.33 3.31,-15.19 2.2,-4.86 5.51,-9.1 9.91,-12.73 4.41,-3.64 9.92,-6.55 16.53,-8.75 6.62,-2.2 14.38,-3.32 23.2,-3.32 3.86,0 7.72,0.3 11.63,0.92 3.86,0.56 7.33,1.33 10.47,2.25 3.14,0.87 5.78,1.84 7.99,2.91 2.2,1.02 3.86,1.94 5.01,2.76 1.1,0.82 1.88,1.49 2.26,2.1 0.38,0.62 0.66,1.28 0.83,2.05 0.16,0.71 0.27,1.63 0.44,2.76 0.16,1.07 0.27,2.45 0.27,4.04 0,1.69 -0.11,3.17 -0.27,4.4 -0.17,1.27 -0.39,2.3 -0.77,3.06 -0.39,0.82 -0.83,1.39 -1.38,1.74 -0.55,0.36 -1.16,0.51 -1.76,0.51 -0.99,0 -2.37,-0.51 -4.25,-1.63 -1.82,-1.07 -4.19,-2.25 -7.05,-3.53 -2.92,-1.23 -6.34,-2.4 -10.3,-3.53 -3.92,-1.07 -8.38,-1.63 -13.45,-1.63 -4.52,0 -8.49,0.45 -11.96,1.43 -3.41,0.97 -6.28,2.3 -8.48,4.04 -2.2,1.73 -3.86,3.83 -5.01,6.24 -1.11,2.4 -1.66,4.96 -1.66,7.77 0,3.89 1.05,7.16 3.2,9.82 2.15,2.66 4.96,4.96 8.43,6.95 3.41,2 7.33,3.79 11.74,5.42 4.46,1.59 8.92,3.23 13.49,4.92 4.58,1.73 9.1,3.62 13.56,5.72 4.46,2.1 8.43,4.6 11.9,7.62 3.42,3.02 6.17,6.6 8.27,10.79 2.09,4.2 3.19,9.21 3.19,14.99z"/>
   </g>
  </g>
 </g>
</svg>
